<svg aria-hidden="true" style="position: absolute; width: 0; height: 0; overflow: hidden;" version="1.1" xmlns="http://www.w3.org/2000/svg" xmlns:xlink="http://www.w3.org/1999/xlink">
<defs>
<symbol id="involvement-community" viewBox="0 0 34 32">
<path fill="none" stroke="#552c8e" style="stroke: var(--color1, #552c8e)" stroke-linejoin="miter" stroke-linecap="butt" stroke-miterlimit="4" stroke-width="0.9846" d="M23.481 16.18c0 3.398-2.867 6.185-6.444 6.185s-6.444-2.786-6.444-6.185c0-3.398 2.867-6.184 6.444-6.184s6.444 2.786 6.444 6.184z"></path>
<path fill="none" stroke="#552c8e" style="stroke: var(--color1, #552c8e)" stroke-linejoin="miter" stroke-linecap="butt" stroke-miterlimit="4" stroke-width="0.9846" d="M9.609 6.754c0 1.229-1.040 2.257-2.364 2.257s-2.364-1.028-2.364-2.257c0-1.229 1.040-2.257 2.364-2.257s2.364 1.028 2.364 2.257z"></path>
<path fill="none" stroke="#552c8e" style="stroke: var(--color1, #552c8e)" stroke-linejoin="miter" stroke-linecap="butt" stroke-miterlimit="4" stroke-width="0.9846" d="M28.683 6.754c0 1.229-1.041 2.257-2.364 2.257s-2.364-1.028-2.364-2.257c0-1.229 1.040-2.257 2.364-2.257s2.364 1.028 2.364 2.257z"></path>
<path fill="none" stroke="#552c8e" style="stroke: var(--color1, #552c8e)" stroke-linejoin="miter" stroke-linecap="butt" stroke-miterlimit="4" stroke-width="0.9846" d="M28.683 24.918c0 1.229-1.041 2.257-2.364 2.257s-2.364-1.028-2.364-2.257c0-1.229 1.040-2.257 2.364-2.257s2.364 1.028 2.364 2.257z"></path>
<path fill="none" stroke="#552c8e" style="stroke: var(--color1, #552c8e)" stroke-linejoin="miter" stroke-linecap="butt" stroke-miterlimit="4" stroke-width="0.9846" d="M9.609 24.918c0 1.229-1.040 2.257-2.364 2.257s-2.364-1.028-2.364-2.257c0-1.229 1.040-2.257 2.364-2.257s2.364 1.028 2.364 2.257z"></path>
<path fill="#552c8e" style="fill: var(--color1, #552c8e); stroke: var(--color1, #552c8e)" stroke="#552c8e" stroke-linejoin="miter" stroke-linecap="butt" stroke-miterlimit="4" stroke-width="0.9846" d="M19.401 28.846c0 1.229-1.040 2.257-2.364 2.257s-2.364-1.028-2.364-2.257c0-1.229 1.040-2.257 2.364-2.257s2.364 1.028 2.364 2.257z"></path>
<path fill="#552c8e" style="fill: var(--color1, #552c8e); stroke: var(--color1, #552c8e)" stroke="#552c8e" stroke-linejoin="miter" stroke-linecap="butt" stroke-miterlimit="4" stroke-width="0.9846" d="M19.146 2.777c0 1.229-1.041 2.257-2.364 2.257s-2.364-1.028-2.364-2.257c0-1.229 1.040-2.257 2.364-2.257s2.364 1.028 2.364 2.257z"></path>
<path fill="#552c8e" style="fill: var(--color1, #552c8e); stroke: var(--color1, #552c8e)" stroke="#552c8e" stroke-linejoin="miter" stroke-linecap="butt" stroke-miterlimit="4" stroke-width="0.9846" d="M33.121 15.836c0 1.229-1.040 2.257-2.364 2.257s-2.364-1.028-2.364-2.257c0-1.229 1.040-2.257 2.364-2.257s2.364 1.028 2.364 2.257z"></path>
<path fill="#552c8e" style="fill: var(--color1, #552c8e); stroke: var(--color1, #552c8e)" stroke="#552c8e" stroke-linejoin="miter" stroke-linecap="butt" stroke-miterlimit="4" stroke-width="0.9846" d="M5.682 15.836c0 1.229-1.040 2.257-2.364 2.257s-2.364-1.028-2.364-2.257c0-1.229 1.040-2.257 2.364-2.257s2.364 1.028 2.364 2.257z"></path>
<path fill="#552c8e" style="fill: var(--color1, #552c8e); stroke: var(--color1, #552c8e)" stroke="#552c8e" stroke-linejoin="miter" stroke-linecap="butt" stroke-miterlimit="4" stroke-width="0.9846" d="M18.91 14.524c0 0.983-0.834 1.812-1.902 1.812s-1.902-0.829-1.902-1.812c0-0.983 0.834-1.812 1.902-1.812s1.902 0.829 1.902 1.812z"></path>
<path fill="none" stroke="#5b2993" style="stroke: var(--color2, #5b2993)" stroke-linejoin="miter" stroke-linecap="butt" stroke-miterlimit="4" stroke-width="0.9846" d="M13.941 20.14c0-1.366-0.237-3.61 1.197-4.42 2.195-1.241 3.145-0.402 3.84-0s1.308 1.125 1.135 4.42"></path>
<path fill="none" stroke="#5b2993" style="stroke: var(--color2, #5b2993)" stroke-linejoin="miter" stroke-linecap="butt" stroke-miterlimit="4" stroke-width="0.9846" d="M16.877 10.161v-4.822"></path>
<path fill="none" stroke="#5b2993" style="stroke: var(--color2, #5b2993)" stroke-linejoin="miter" stroke-linecap="butt" stroke-miterlimit="4" stroke-width="0.9846" d="mNaNclNaNNaNclNaNNaNNaNNaNclNaNNaNclNaNNaN"></path>
<path fill="none" stroke="#5b2993" style="stroke: var(--color2, #5b2993)" stroke-linejoin="miter" stroke-linecap="butt" stroke-miterlimit="4" stroke-width="0.9846" d="mNaNclNaNNaNclNaNNaNNaNNaNclNaNNaNclNaNNaN"></path>
<path fill="none" stroke="#5b2993" style="stroke: var(--color2, #5b2993)" stroke-linejoin="miter" stroke-linecap="butt" stroke-miterlimit="4" stroke-width="0.9846" d="mNaNclNaNNaNclNaNNaNNaNNaNclNaNNaNclNaNNaN"></path>
<path fill="none" stroke="#5b2993" style="stroke: var(--color2, #5b2993)" stroke-linejoin="miter" stroke-linecap="butt" stroke-miterlimit="4" stroke-width="0.9846" d="M8.71 22.95l3.242-2.976"></path>
<path fill="none" stroke="#5b2993" style="stroke: var(--color2, #5b2993)" stroke-linejoin="miter" stroke-linecap="butt" stroke-miterlimit="4" stroke-width="0.9846" d="M28.583 16.312h-5.009"></path>
<path fill="none" stroke="#5b2993" style="stroke: var(--color2, #5b2993)" stroke-linejoin="miter" stroke-linecap="butt" stroke-miterlimit="4" stroke-width="0.9846" d="mNaNclNaNNaNclNaNNaNNaNNaNclNaNNaNclNaNNaN"></path>
<path fill="none" stroke="#5b2993" style="stroke: var(--color2, #5b2993)" stroke-linejoin="miter" stroke-linecap="butt" stroke-miterlimit="4" stroke-width="0.9846" d="M17.139 27.329v-4.822"></path>
</symbol>
</defs>
</svg>
