<svg aria-hidden="true" style="position: absolute; width: 0; height: 0; overflow: hidden;" version="1.1" xmlns="http://www.w3.org/2000/svg" xmlns:xlink="http://www.w3.org/1999/xlink">
<defs>
<symbol id="logo-footer" viewBox="0 0 82 32">
<path fill="#fff" style="fill: var(--color1, #fff)" d="M30.706 11.272c-0.96-1.267-2.401-2.048-3.964-2.134-1.894-0.104-3.623 0.486-5.090 1.718 0.428-1.249 0.576-2.325 0.463-3.288-0.471-3.974-5.596-7.080-5.814-7.21l-0.306-0.182-0.297 0.182c-0.218 0.13-5.334 3.236-5.814 7.21-0.114 0.963 0.035 2.039 0.463 3.288-1.467-1.232-3.195-1.822-5.090-1.718-1.563 0.087-3.012 0.868-3.963 2.134-0.995 1.31-1.327 2.967-0.925 4.668 0.716 3.115 3.623 3.93 5.081 3.93 0.009 0 0.017 0 0.026 0l0.952-0.009-0.445-0.842c-0.009-0.017-0.96-1.857 0.017-3.063l-0.829-0.824c-0.655 0.746-0.908 1.735-0.725 2.881 0.035 0.208 0.079 0.408 0.131 0.59-1.021-0.226-2.61-0.894-3.082-2.924-0.314-1.371-0.061-2.69 0.725-3.722 0.742-0.98 1.903-1.605 3.099-1.675 2.357-0.13 4.339 0.972 5.884 3.28 0.14 0.2 0.262 0.408 0.384 0.607l-5.535 0.208 4.103 4.078-4.112 4.052 5.648 0.226 0.131 3.566c-0.559 0.599-1.161 0.685-1.868 0.599-0.856-0.104-1.318-0.677-1.554-1.154 0.349-0.009 0.768-0.061 1.257-0.182 0.34-0.087 0.655-0.217 0.952-0.39l-0.052-1.449c-0.402 0.442-0.864 0.633-1.187 0.711-0.995 0.252-1.659 0.113-1.659 0.113l-0.847-0.2 0.131 0.85c0.14 0.885 0.899 2.62 2.811 2.855 0.192 0.026 0.375 0.035 0.559 0.035 0.332 0 0.637-0.043 0.925-0.121 0.192 0.338 1.056 1.735 2.689 2.924 1.222 0.894 1.807 1.006 1.956 1.024l0.052 0.009 0.052-0.009c0.148-0.017 0.733-0.13 1.956-1.024 1.633-1.188 2.497-2.585 2.689-2.924 0.288 0.087 0.594 0.121 0.925 0.121 0.183 0 0.367-0.009 0.559-0.035 1.912-0.234 2.671-1.97 2.811-2.855l0.122-0.833-0.829 0.182c-0.009 0-0.663 0.139-1.659-0.104-0.314-0.078-0.777-0.269-1.187-0.711l-0.052 1.449c0.288 0.174 0.611 0.304 0.952 0.39 0.489 0.121 0.917 0.174 1.257 0.182-0.244 0.486-0.698 1.050-1.554 1.154-0.838 0.104-1.397-0.069-1.886-0.607l0.14-3.557 5.631-0.208-4.068-4.078 4.077-4.052-5.544-0.217c0.122-0.2 0.244-0.408 0.384-0.607 1.545-2.308 3.527-3.41 5.884-3.28 1.205 0.069 2.366 0.694 3.099 1.675 0.777 1.032 1.039 2.351 0.724 3.722-0.471 2.030-2.060 2.707-3.082 2.924 0.052-0.182 0.096-0.382 0.131-0.59 0.183-1.137-0.061-2.117-0.707-2.863l-0.829 0.824c0.951 1.206 0.009 3.028 0 3.045l-0.445 0.842 0.952 0.009c0.009 0 0.018 0 0.026 0 1.458 0 4.356-0.816 5.081-3.93 0.428-1.718 0.096-3.375-0.89-4.685zM16.581 13.701l2.453-2.438 0.122 3.245-2.575 2.559v-3.366zM15.42 17.172l-2.575-2.559 0.131-3.349 2.436 2.438v3.47h0.009zM12.967 25.657l-0.122-3.236 2.567-2.551v3.375l-2.444 2.412zM16.581 19.965l2.575 2.559-0.131 3.141-2.444-2.429v-3.271zM11.046 7.706c0.349-2.907 3.894-5.457 4.959-6.169 1.065 0.703 4.61 3.254 4.959 6.169 0.113 0.98-0.131 2.186-0.751 3.661l-0.105-2.794-4.103 4.069-4.077-4.078-0.114 2.837c-0.637-1.492-0.89-2.707-0.768-3.696zM8.768 15.436l3.152-0.113 2.575 2.56h-3.265l-2.462-2.447zM11.212 19.046h3.379l-2.567 2.551-3.265-0.13 2.453-2.421zM17.323 29.952c-0.733 0.529-1.152 0.72-1.327 0.781-0.166-0.061-0.594-0.243-1.327-0.781-1.1-0.798-1.807-1.718-2.148-2.23l3.483-3.436 3.466 3.445c-0.349 0.512-1.056 1.423-2.148 2.221zM23.242 21.475l-3.37 0.121-2.567-2.551h3.509l2.427 2.429zM20.798 17.892h-3.396l2.584-2.568 3.265 0.13-2.453 2.438z"></path>
<path fill="#fff" style="fill: var(--color1, #fff)" d="M37.9 15.766c0.541 0.312 1.152 0.469 1.807 0.469 0.507 0 0.987-0.095 1.432-0.295 0.445-0.191 0.829-0.477 1.152-0.833s0.559-0.781 0.716-1.249l0.052-0.156h-1.309l-0.035 0.069c-0.192 0.408-0.454 0.729-0.794 0.954s-0.742 0.347-1.205 0.347c-0.428 0-0.829-0.104-1.179-0.312s-0.628-0.503-0.838-0.868c-0.201-0.364-0.306-0.772-0.306-1.215s0.105-0.85 0.306-1.215c0.201-0.364 0.48-0.659 0.838-0.868 0.349-0.208 0.742-0.312 1.179-0.312 0.463 0 0.864 0.113 1.205 0.347s0.611 0.555 0.794 0.954l0.035 0.069h1.309l-0.052-0.156c-0.148-0.469-0.393-0.894-0.716-1.249s-0.707-0.642-1.152-0.833-0.925-0.295-1.432-0.295c-0.655 0-1.266 0.156-1.807 0.469s-0.978 0.746-1.292 1.284-0.471 1.145-0.471 1.805c0 0.651 0.157 1.258 0.471 1.805 0.314 0.538 0.751 0.972 1.292 1.284z"></path>
<path fill="#fff" style="fill: var(--color1, #fff)" d="M50.489 9.215h-1.545l-3.387 3.167v-3.167h-1.205v6.924h1.205v-2.317l0.847-0.781 2.558 3.097h1.571l-3.265-3.93 3.221-2.993z"></path>
<path fill="#fff" style="fill: var(--color1, #fff)" d="M52.829 14.612h3.466l0.664 1.527h1.37l-3.125-6.924h-1.222l-3.125 6.924h1.318l0.655-1.527zM53.318 13.493l1.257-2.863 1.248 2.863h-2.505z"></path>
<path fill="#fff" style="fill: var(--color1, #fff)" d="M60.406 16.139h1.388l3.632-6.924h-1.379l-2.139 4.147-2.296-4.147h-1.484l3.090 5.414-0.812 1.51z"></path>
<path fill="#fff" style="fill: var(--color1, #fff)" d="M68.351 16.139h1.205v-5.761h2.401v-1.163h-6.006v1.163h2.401v5.761z"></path>
<path fill="#fff" style="fill: var(--color1, #fff)" d="M78.093 16.139h1.205v-6.924h-1.362l-3.632 5.11v-5.11h-1.205v6.924h1.24l3.754-5.258v5.258z"></path>
<path fill="#fff" style="fill: var(--color1, #fff)" d="M39.83 25.509l-2.296-4.147h-1.484l3.090 5.414-0.812 1.51h1.388l3.632-6.924h-1.379l-2.139 4.147z"></path>
<path fill="#fff" style="fill: var(--color1, #fff)" d="M50.148 21.362h-1.537l-3.396 3.167v-3.167h-1.205v6.924h1.205v-2.317l0.847-0.781 2.558 3.098h1.571l-3.256-3.93 3.213-2.993z"></path>
<path fill="#fff" style="fill: var(--color1, #fff)" d="M56.687 23.445c0-0.39-0.087-0.755-0.271-1.067s-0.445-0.564-0.786-0.746c-0.34-0.174-0.751-0.269-1.214-0.269h-3.064v6.924h1.205v-2.768h1.859c0.463 0 0.873-0.087 1.214-0.269s0.611-0.425 0.786-0.746c0.175-0.304 0.271-0.668 0.271-1.059zM55.43 23.445c0 0.321-0.087 0.547-0.262 0.711-0.175 0.156-0.437 0.243-0.794 0.243h-1.825v-1.883h1.825c0.349 0 0.62 0.078 0.794 0.234 0.183 0.148 0.262 0.373 0.262 0.694z"></path>
<path fill="#fff" style="fill: var(--color1, #fff)" d="M59.498 21.362l-3.125 6.924h1.318l0.663-1.527h3.466l0.663 1.527h1.371l-3.126-6.924h-1.231zM61.34 25.64h-2.497l1.257-2.863 1.24 2.863z"></path>
<path fill="#fff" style="fill: var(--color1, #fff)" d="M65.138 19.549h-1.301v1.293h1.301v-1.293z"></path>
<path fill="#fff" style="fill: var(--color1, #fff)" d="M67.155 19.549h-1.301v1.293h1.301v-1.293z"></path>
<path fill="#fff" style="fill: var(--color1, #fff)" d="M66.098 21.362h-1.205v6.924h1.205v-6.924z"></path>
<path fill="#fff" style="fill: var(--color1, #fff)" d="M72.768 24.243h-3.597v-2.881h-1.205v6.924h1.205v-2.881h3.597v2.881h1.205v-6.924h-1.205v2.881z"></path>
<path fill="#fff" style="fill: var(--color1, #fff)" d="M80.669 21.362l-3.623 5.11v-5.11h-1.205v6.924h1.24l3.754-5.258v5.258h1.205v-6.924h-1.371z"></path>
</symbol>
<symbol id="icon-Vector" viewBox="0 0 32 32">
<path fill="none" stroke="#fff" style="stroke: var(--color1, #fff)" stroke-linejoin="miter" stroke-linecap="butt" stroke-miterlimit="4" stroke-width="2.0645" d="M5.781 25.986c5.644 5.644 14.794 5.644 20.438 0s5.644-14.794 0-20.438-14.794-5.644-20.438 0c-5.644 5.644-5.644 14.794 0 20.438z"></path>
</symbol>
</defs>
</svg>
