<?xml version="1.0" encoding="utf-8"?>
<!-- Generator: Adobe Illustrator 28.0.0, SVG Export Plug-In . SVG Version: 6.00 Build 0)  -->
<svg version="1.1" id="Layer_1" xmlns="http://www.w3.org/2000/svg" xmlns:xlink="http://www.w3.org/1999/xlink" x="0px" y="0px"
	 viewBox="0 0 937.4 365.8" style="enable-background:new 0 0 937.4 365.8;" xml:space="preserve">
<style type="text/css">
	.st0{fill:#622599;}
	.st1{fill:#413D45;}
</style>
<g>
	<g>
		<path class="st0" d="M349.4,127.9c-11-14.6-27.5-23.6-45.4-24.6c-21.7-1.2-41.5,5.6-58.3,19.8c4.9-14.4,6.6-26.8,5.3-37.9
			c-5.4-45.8-64.1-81.6-66.6-83.1L180.9,0l-3.4,2.1c-2.5,1.5-61.1,37.3-66.6,83.1c-1.3,11.1,0.4,23.5,5.3,37.9
			c-16.8-14.2-36.6-21-58.3-19.8c-17.9,1-34.5,10-45.4,24.6C1.1,143-2.7,162.1,1.9,181.7c8.2,35.9,41.5,45.3,58.2,45.3
			c0.1,0,0.2,0,0.3,0l10.9-0.1l-5.1-9.7c-0.1-0.2-11-21.4,0.2-35.3l-9.5-9.5c-7.5,8.6-10.4,20-8.3,33.2c0.4,2.4,0.9,4.7,1.5,6.8
			c-11.7-2.6-29.9-10.3-35.3-33.7c-3.6-15.8-0.7-31,8.3-42.9c8.5-11.3,21.8-18.5,35.5-19.3c27-1.5,49.7,11.2,67.4,37.8
			c1.6,2.3,3,4.7,4.4,7L67,163.7l47,47l-47.1,46.7l64.7,2.6l1.5,41.1c-6.4,6.9-13.3,7.9-21.4,6.9c-9.8-1.2-15.1-7.8-17.8-13.3
			c4-0.1,8.8-0.7,14.4-2.1c3.9-1,7.5-2.5,10.9-4.5l-0.6-16.7c-4.6,5.1-9.9,7.3-13.6,8.2c-11.4,2.9-19,1.3-19,1.3l-9.7-2.3l1.5,9.8
			c1.6,10.2,10.3,30.2,32.2,32.9c2.2,0.3,4.3,0.4,6.4,0.4c3.8,0,7.3-0.5,10.6-1.4c2.2,3.9,12.1,20,30.8,33.7
			c14,10.3,20.7,11.6,22.4,11.8l0.6,0.1l0.6-0.1c1.7-0.2,8.4-1.5,22.4-11.8c18.7-13.7,28.6-29.8,30.8-33.7c3.3,1,6.8,1.4,10.6,1.4
			c2.1,0,4.2-0.1,6.4-0.4c21.9-2.7,30.6-22.7,32.2-32.9l1.4-9.6l-9.5,2.1c-0.1,0-7.6,1.6-19-1.2c-3.6-0.9-8.9-3.1-13.6-8.2
			l-0.6,16.7c3.3,2,7,3.5,10.9,4.5c5.6,1.4,10.5,2,14.4,2.1c-2.8,5.6-8,12.1-17.8,13.3c-9.6,1.2-16-0.8-21.6-7l1.6-41l64.5-2.4
			l-46.6-47l46.7-46.7l-63.5-2.5c1.4-2.3,2.8-4.7,4.4-7c17.7-26.6,40.4-39.3,67.4-37.8c13.8,0.8,27.1,8,35.5,19.3
			c8.9,11.9,11.9,27.1,8.3,42.9c-5.4,23.4-23.6,31.2-35.3,33.7c0.6-2.1,1.1-4.4,1.5-6.8c2.1-13.1-0.7-24.4-8.1-33l-9.5,9.5
			c10.9,13.9,0.1,34.9,0,35.1l-5.1,9.7l10.9,0.1c0.1,0,0.2,0,0.3,0c16.7,0,49.9-9.4,58.2-45.3C364.5,162.1,360.7,143,349.4,127.9z
			 M187.6,155.9l28.1-28.1l1.4,37.4l-29.5,29.5V155.9z M174.3,195.9l-29.5-29.5l1.5-38.6l27.9,28.1V195.9z M146.2,293.7l-1.4-37.3
			l29.4-29.4v38.9L146.2,293.7z M187.6,228.1l29.5,29.5l-1.5,36.2l-28-28V228.1z M124.2,86.8c4-33.5,44.6-62.9,56.8-71.1
			c12.2,8.1,52.8,37.5,56.8,71.1c1.3,11.3-1.5,25.2-8.6,42.2l-1.2-32.2l-47,46.9l-46.7-47l-1.3,32.7
			C125.7,112.2,122.8,98.2,124.2,86.8z M98.1,175.9l36.1-1.3l29.5,29.5h-37.4L98.1,175.9z M126.1,217.5h38.7l-29.4,29.4L98,245.4
			L126.1,217.5z M196.1,343.2c-8.4,6.1-13.2,8.3-15.2,9c-1.9-0.7-6.8-2.8-15.2-9c-12.6-9.2-20.7-19.8-24.6-25.7l39.9-39.6l39.7,39.7
			C216.7,323.5,208.6,334,196.1,343.2z M263.9,245.5l-38.6,1.4l-29.4-29.4h40.2L263.9,245.5z M235.9,204.2H197l29.6-29.6l37.4,1.5
			L235.9,204.2z"/>
	</g>
	<g>
		<g>
			<path class="st1" d="M431.8,179.7c6.2,3.6,13.2,5.4,20.7,5.4c5.8,0,11.3-1.1,16.4-3.4c5.1-2.2,9.5-5.5,13.2-9.6
				c3.7-4.1,6.4-9,8.2-14.4l0.6-1.8h-15l-0.4,0.8c-2.2,4.7-5.2,8.4-9.1,11c-3.9,2.6-8.5,4-13.8,4c-4.9,0-9.5-1.2-13.5-3.6
				c-4-2.4-7.2-5.8-9.6-10c-2.3-4.2-3.5-8.9-3.5-14c0-5.1,1.2-9.8,3.5-14c2.3-4.2,5.5-7.6,9.6-10c4-2.4,8.5-3.6,13.5-3.6
				c5.3,0,9.9,1.3,13.8,4c3.9,2.7,7,6.4,9.1,11l0.4,0.8h15l-0.6-1.8c-1.7-5.4-4.5-10.3-8.2-14.4c-3.7-4.1-8.1-7.4-13.2-9.6
				c-5.1-2.2-10.6-3.4-16.4-3.4c-7.5,0-14.5,1.8-20.7,5.4c-6.2,3.6-11.2,8.6-14.8,14.8c-3.6,6.2-5.4,13.2-5.4,20.8
				c0,7.5,1.8,14.5,5.4,20.8C420.6,171.1,425.6,176.1,431.8,179.7z"/>
			<polygon class="st1" points="576,104.2 558.3,104.2 519.5,140.7 519.5,104.2 505.7,104.2 505.7,184 519.5,184 519.5,157.3 
				529.2,148.3 558.5,184 576.5,184 539.1,138.7 			"/>
			<path class="st1" d="M602.8,166.4h39.7l7.6,17.6h15.7l-35.8-79.8H616L580.2,184h15.1L602.8,166.4z M608.4,153.5l14.4-33l14.3,33
				H608.4z"/>
			<polygon class="st1" points="689.6,184 705.5,184 747.1,104.2 731.3,104.2 706.8,152 680.5,104.2 663.5,104.2 698.9,166.6 			"/>
			<polygon class="st1" points="780.6,184 794.4,184 794.4,117.6 821.9,117.6 821.9,104.2 753.1,104.2 753.1,117.6 780.6,117.6 			
				"/>
			<polygon class="st1" points="892.2,184 906,184 906,104.2 890.4,104.2 848.8,163.1 848.8,104.2 835,104.2 835,184 849.2,184 
				892.2,123.4 			"/>
			<polygon class="st1" points="453.9,292 427.6,244.2 410.6,244.2 446,306.6 436.7,324 452.6,324 494.2,244.2 478.4,244.2 			"/>
			<polygon class="st1" points="572.1,244.2 554.5,244.2 515.6,280.7 515.6,244.2 501.8,244.2 501.8,324 515.6,324 515.6,297.3 
				525.3,288.3 554.6,324 572.6,324 535.3,278.7 			"/>
			<path class="st1" d="M647,268.2c0-4.5-1-8.7-3.1-12.3c-2.1-3.6-5.1-6.5-9-8.6l0,0c-3.9-2-8.6-3.1-13.9-3.1h-35.1V324h13.8v-31.9
				h21.3c5.3,0,10-1,13.9-3.1c3.9-2.1,7-4.9,9-8.6C645.9,276.9,647,272.7,647,268.2z M632.6,268.2c0,3.7-1,6.3-3,8.2
				c-2,1.8-5,2.8-9.1,2.8h-20.9v-21.7h20.9c4,0,7.1,0.9,9.1,2.7C631.7,261.9,632.6,264.5,632.6,268.2z"/>
			<path class="st1" d="M679.2,244.2L643.4,324h15.1l7.6-17.6h39.7l7.6,17.6h15.7l-35.8-79.8H679.2z M700.3,293.5h-28.6l14.4-33
				L700.3,293.5z"/>
			<rect x="728.9" y="223.3" class="st1" width="14.9" height="14.9"/>
			<rect x="752" y="223.3" class="st1" width="14.9" height="14.9"/>
			<rect x="741" y="244.2" class="st1" width="13.8" height="79.8"/>
			<polygon class="st1" points="831.2,277.4 790,277.4 790,244.2 776.2,244.2 776.2,324 790,324 790,290.8 831.2,290.8 831.2,324 
				845,324 845,244.2 831.2,244.2 			"/>
			<polygon class="st1" points="921.7,244.2 880.2,303.1 880.2,244.2 866.4,244.2 866.4,324 880.6,324 923.6,263.4 923.6,324 
				937.4,324 937.4,244.2 			"/>
		</g>
	</g>
</g>
</svg>
