<svg aria-hidden="true" style="position: absolute; width: 0; height: 0; overflow: hidden;" version="1.1" xmlns="http://www.w3.org/2000/svg" xmlns:xlink="http://www.w3.org/1999/xlink">
<defs>
<symbol id="icon----" viewBox="0 0 35 32">
<path fill="#5b5b6c" style="fill: var(--color1, #5b5b6c)" opacity="0.3" d="M17.738 15.695l11.097 9.576-11.097 4.491v-14.067z"></path>
<path fill="#5b5b6c" style="fill: var(--color1, #5b5b6c)" opacity="0.3" d="M17.935 15.385l11.097-9.576-11.097-4.491v14.067z"></path>
<path fill="#5b5b6c" style="fill: var(--color1, #5b5b6c)" opacity="0.3" d="M17.738 15.289l-11.097-9.576 11.097-4.491v14.067z"></path>
<path fill="#5b5b6c" style="fill: var(--color1, #5b5b6c)" opacity="0.3" d="M17.15 15.351l-9.997 10.516-5.568-9.757 15.565-0.759z"></path>
<path fill="#5b5b6c" style="fill: var(--color1, #5b5b6c)" opacity="0.3" d="M17.635 15.855l0.037 13.856-11.277-4.109 11.239-9.747z"></path>
<path fill="#5b5b6c" style="fill: var(--color1, #5b5b6c)" opacity="0.3" d="M18.012 15.348l15.35 0.249-4.735 10.092-10.615-10.341z"></path>
<path fill="#5b5b6c" style="fill: var(--color1, #5b5b6c)" opacity="0.3" d="M18.021 15.37l15.342 0.54-4.138-10.32-11.203 9.781z"></path>
<path fill="#5b5b6c" style="fill: var(--color1, #5b5b6c)" opacity="0.3" d="M17.677 15.083l-15.342 0.54 4.138-10.32 11.203 9.781z"></path>
<path fill="#fff" style="fill: var(--color2, #fff)" d="M14.918 2.704c0 1.215-1.025 2.201-2.29 2.201s-2.29-0.985-2.29-2.201c0-1.215 1.025-2.201 2.29-2.201s2.29 0.985 2.29 2.201z"></path>
<path fill="none" stroke="#d5c95a" style="stroke: var(--color3, #d5c95a)" stroke-linejoin="miter" stroke-linecap="butt" stroke-miterlimit="4" stroke-width="0.4885" d="M12.627 5.149c1.39 0 2.534-1.086 2.534-2.445s-1.144-2.445-2.534-2.445c-1.39 0-2.534 1.086-2.534 2.445s1.144 2.445 2.534 2.445z"></path>
<path fill="#fff" style="fill: var(--color2, #fff)" d="M5.074 20.182c0 1.215-1.025 2.201-2.29 2.201s-2.29-0.985-2.29-2.201c0-1.215 1.025-2.201 2.29-2.201s2.29 0.985 2.29 2.201z"></path>
<path fill="none" stroke="#d5c95a" style="stroke: var(--color3, #d5c95a)" stroke-linejoin="miter" stroke-linecap="butt" stroke-miterlimit="4" stroke-width="0.4885" d="M2.784 22.627c1.39 0 2.534-1.086 2.534-2.445s-1.144-2.445-2.534-2.445c-1.39 0-2.534 1.086-2.534 2.445s1.144 2.445 2.534 2.445z"></path>
<path fill="#fff" style="fill: var(--color2, #fff)" d="M3.171 19.351c0 0.181-0.164 0.336-0.377 0.336s-0.377-0.155-0.377-0.336c0-0.181 0.164-0.336 0.377-0.336s0.377 0.155 0.377 0.336z"></path>
<path fill="#fff" style="fill: var(--color2, #fff)" d="M3.91 20.429c0 0.181-0.164 0.336-0.377 0.336s-0.377-0.155-0.377-0.336c0-0.181 0.164-0.336 0.377-0.336s0.377 0.155 0.377 0.336z"></path>
<path fill="#fff" style="fill: var(--color2, #fff)" d="M2.412 20.429c0 0.181-0.164 0.336-0.377 0.336s-0.377-0.155-0.377-0.336c0-0.181 0.164-0.336 0.377-0.336s0.377 0.155 0.377 0.336z"></path>
<path fill="#fff" style="fill: var(--color2, #fff)" d="M5.074 10.281c0 1.215-1.025 2.201-2.29 2.201s-2.29-0.985-2.29-2.201c0-1.215 1.025-2.201 2.29-2.201s2.29 0.985 2.29 2.201z"></path>
<path fill="none" stroke="#d5c95a" style="stroke: var(--color3, #d5c95a)" stroke-linejoin="miter" stroke-linecap="butt" stroke-miterlimit="4" stroke-width="0.4885" d="M2.784 12.726c1.39 0 2.534-1.086 2.534-2.445s-1.144-2.445-2.534-2.445c-1.39 0-2.534 1.086-2.534 2.445s1.144 2.445 2.534 2.445z"></path>
<path fill="#fff" style="fill: var(--color2, #fff)" d="M21.988 16.52c0 2.53-2.079 4.58-4.644 4.58s-4.644-2.051-4.644-4.58c0-2.53 2.079-4.58 4.644-4.58s4.644 2.051 4.644 4.58z"></path>
<path fill="#fff" style="fill: var(--color2, #fff)" d="M14.918 29.29c0 1.215-1.025 2.201-2.29 2.201s-2.29-0.985-2.29-2.201c0-1.215 1.025-2.201 2.29-2.201s2.29 0.985 2.29 2.201z"></path>
<path fill="none" stroke="#d5c95a" style="stroke: var(--color3, #d5c95a)" stroke-linejoin="miter" stroke-linecap="butt" stroke-miterlimit="4" stroke-width="0.4885" d="M12.627 31.735c1.39 0 2.534-1.085 2.534-2.445s-1.144-2.445-2.534-2.445c-1.39 0-2.534 1.086-2.534 2.445s1.144 2.445 2.534 2.445z"></path>
<path fill="#552c8e" style="fill: var(--color4, #552c8e)" d="M12.995 30.749c0 0.165-0.149 0.301-0.336 0.301s-0.336-0.136-0.336-0.301c0-0.165 0.149-0.302 0.336-0.302s0.336 0.136 0.336 0.302z"></path>
<path fill="#552c8e" style="fill: var(--color4, #552c8e)" d="M12.963 27.745c0 0.165-0.149 0.302-0.336 0.302s-0.336-0.136-0.336-0.302c0-0.165 0.149-0.302 0.336-0.302s0.336 0.136 0.336 0.302z"></path>
<path fill="#552c8e" style="fill: var(--color4, #552c8e)" d="M14.681 29.25c0 0.165-0.149 0.302-0.336 0.302s-0.336-0.136-0.336-0.302c0-0.165 0.149-0.302 0.336-0.302s0.336 0.136 0.336 0.302z"></path>
<path fill="#552c8e" style="fill: var(--color4, #552c8e)" d="M11.308 29.25c0 0.165-0.149 0.302-0.336 0.302s-0.336-0.136-0.336-0.302c0-0.165 0.149-0.302 0.336-0.302s0.336 0.136 0.336 0.302z"></path>
<path fill="#552c8e" style="fill: var(--color4, #552c8e)" d="M12.904 29.099c0 0.117-0.107 0.22-0.248 0.22s-0.248-0.103-0.248-0.22c0-0.117 0.107-0.22 0.248-0.22s0.248 0.103 0.248 0.22z"></path>
<path fill="#fff" style="fill: var(--color2, #fff)" d="M25.871 29.29c0 1.215-1.025 2.201-2.29 2.201s-2.29-0.985-2.29-2.201c0-1.215 1.025-2.201 2.29-2.201s2.29 0.985 2.29 2.201z"></path>
<path fill="none" stroke="#d5c95a" style="stroke: var(--color3, #d5c95a)" stroke-linejoin="miter" stroke-linecap="butt" stroke-miterlimit="4" stroke-width="0.4885" d="M23.581 31.735c1.39 0 2.534-1.085 2.534-2.445s-1.144-2.445-2.534-2.445c-1.39 0-2.534 1.086-2.534 2.445s1.144 2.445 2.534 2.445z"></path>
<path fill="#fff" style="fill: var(--color2, #fff)" d="M34.193 20.182c0 1.215-1.025 2.201-2.29 2.201s-2.29-0.985-2.29-2.201c0-1.215 1.025-2.201 2.29-2.201s2.29 0.985 2.29 2.201z"></path>
<path fill="none" stroke="#d5c95a" style="stroke: var(--color3, #d5c95a)" stroke-linejoin="miter" stroke-linecap="butt" stroke-miterlimit="4" stroke-width="0.4885" d="M31.903 22.627c1.39 0 2.534-1.086 2.534-2.445s-1.144-2.445-2.534-2.445c-1.391 0-2.534 1.086-2.534 2.445s1.144 2.445 2.534 2.445z"></path>
<path fill="#fff" style="fill: var(--color2, #fff)" d="M34.193 10.281c0 1.215-1.025 2.201-2.29 2.201s-2.29-0.985-2.29-2.201c0-1.215 1.025-2.201 2.29-2.201s2.29 0.985 2.29 2.201z"></path>
<path fill="none" stroke="#d5c95a" style="stroke: var(--color3, #d5c95a)" stroke-linejoin="miter" stroke-linecap="butt" stroke-miterlimit="4" stroke-width="0.4885" d="M31.903 12.726c1.39 0 2.534-1.086 2.534-2.445s-1.144-2.445-2.534-2.445c-1.391 0-2.534 1.086-2.534 2.445s1.144 2.445 2.534 2.445z"></path>
<path fill="#5b2993" style="fill: var(--color5, #5b2993)" d="M30.545 10.624l0.034-0.031-0.002-0.002-0.032 0.033zM31.159 11.297l-0.034 0.031 0.003 0.003 0.003 0.002 0.028-0.036zM31.27 11.275l0.025 0.039 0-0 0.001-0-0.026-0.038zM31.419 11.175l-0.025-0.039-0.001 0-0 0 0.026 0.038zM31.419 11.084v0zM30.812 10.437l0.034-0.031-0.003-0.003-0.003-0.003-0.027 0.037zM30.692 10.429v0zM31.297 10.959v0zM31.736 10.663l0.005-0.046-0.017-0.002-0.014 0.009 0.026 0.038zM32.070 10.663v0zM32.518 10.113l-0.025-0.038-0.109 0.072 0.13 0.012 0.004-0.046zM32.435 9.885l-0.035-0.029-0.056 0.069 0.088 0.006 0.003-0.046zM32.306 9.665l-0.038-0.025-0.061 0.091 0.108-0.021-0.009-0.045zM31.836 9.381l0.011-0.045-0.015-0.004-0.014 0.006 0.019 0.042zM31.736 9.527h0.046v-0.025l-0.021-0.014-0.025 0.039zM31.595 9.437l0.025-0.039-0.006-0.003-0.006-0.002-0.013 0.044zM31.395 9.57l-0.046 0.005 0.002 0.015 0.011 0.011 0.033-0.032zM31.297 9.777l-0.043 0.017 0.003 0.007 0.004 0.005 0.036-0.029zM31.175 9.973l-0.043 0.015 0.004 0.011 0.009 0.008 0.031-0.034zM31.072 10.193l-0.045 0.011 0.003 0.013 0.009 0.009 0.032-0.033zM31.334 10.389l-0.026 0.038 0.014 0.010 0.017-0.002-0.004-0.046zM31.478 10.243l0.045-0.009-0.003-0.015-0.012-0.010-0.031 0.034zM31.595 10.042l0.045-0.008-0.002-0.012-0.008-0.009-0.035 0.029zM31.569 10.010l0.035-0.029-0.003-0.004-0.003-0.003-0.029 0.036zM31.736 9.885h-0.046v0.006l0.002 0.006 0.044-0.011zM31.895 9.694l0.041-0.020-0.004-0.009-0.007-0.006-0.030 0.035zM31.874 9.676v0zM31.968 9.617v0zM31.75 9.57v0zM32.907 10.495l-0.028 0.037 0.028 0.021 0.028-0.021-0.028-0.036zM32.984 10.437l0.028 0.036 0.005-0.004 0.004-0.005-0.036-0.028zM33.17 10.453l0.031-0.033-0.001-0.001-0.001-0.001-0.030 0.034zM33.278 10.556l-0.031 0.033 0.001 0.001 0.001 0.001 0.029-0.035zM32.681 11.254l-0.033-0.031-0.010 0.010-0.002 0.014 0.045 0.007zM32.518 11.275l-0.031 0.034 0.005 0.004 0.006 0.003 0.020-0.041zM32.406 11.175l0.030-0.034-0.003-0.003-0.004-0.002-0.023 0.039zM32.435 11.026v0zM33.006 10.417l0.035 0.029-0.068-0.061 0.033 0.031zM32.024 10.674v0zM32.888 9.486c-0.023 0.011-0.032 0.038-0.022 0.061s0.038 0.033 0.061 0.022l-0.039-0.083zM33.117 9.479c0.023-0.011 0.033-0.038 0.022-0.061s-0.038-0.033-0.061-0.022l0.039 0.083zM32.416 9.16c-0.013 0.021-0.007 0.050 0.015 0.063s0.050 0.007 0.063-0.014l-0.078-0.049zM32.629 8.994c0.013-0.021 0.007-0.050-0.015-0.063s-0.050-0.007-0.063 0.014l0.078 0.049zM31.828 9.081c0.001 0.025 0.023 0.045 0.048 0.044s0.045-0.023 0.044-0.048l-0.092 0.004zM31.908 8.82c-0.001-0.025-0.023-0.045-0.048-0.044s-0.045 0.023-0.044 0.048l0.091-0.004zM31.26 9.264c0.014 0.021 0.043 0.026 0.064 0.012s0.027-0.043 0.012-0.064l-0.076 0.052zM31.196 9.007c-0.014-0.021-0.043-0.026-0.064-0.012s-0.027 0.043-0.012 0.064l0.076-0.052zM31.228 9.135v0zM30.886 9.668c0.022 0.013 0.050 0.005 0.063-0.017s0.006-0.050-0.017-0.063l-0.046 0.079zM30.695 9.451c-0.022-0.013-0.050-0.005-0.063 0.017s-0.006 0.050 0.017 0.063l0.046-0.079zM30.512 10.655l0.614 0.673 0.068-0.062-0.614-0.673-0.068 0.062zM31.131 11.333c0.014 0.011 0.035 0.023 0.067 0.020 0.028-0.002 0.059-0.016 0.096-0.039l-0.049-0.077c-0.033 0.021-0.049 0.025-0.055 0.025-0.002 0-0.002-0-0.002 0s0 0-0.002-0.001l-0.056 0.072zM31.296 11.313l0.149-0.1-0.051-0.076-0.149 0.1 0.051 0.076zM31.444 11.214c0.016-0.010 0.038-0.031 0.045-0.063 0.008-0.036-0.007-0.071-0.039-0.1l-0.061 0.068c0.008 0.007 0.010 0.012 0.011 0.013s0 0.001 0-0c0-0 0 0-0.001 0.002s-0.003 0.003-0.004 0.003l0.049 0.077zM30.84 10.4c-0.034-0.025-0.098-0.053-0.171-0.011l0.046 0.079c0.029-0.017 0.053-0.008 0.071 0.005l0.055-0.074zM30.669 10.389c-0.027 0.016-0.067 0.042-0.102 0.068-0.017 0.013-0.034 0.026-0.048 0.038-0.007 0.006-0.013 0.012-0.019 0.018s-0.011 0.013-0.016 0.021l0.080 0.044c-0.001 0.002-0.001 0.002 0.002-0.002s0.007-0.007 0.013-0.012c0.011-0.010 0.026-0.021 0.042-0.033 0.033-0.024 0.069-0.049 0.093-0.062l-0.046-0.079zM30.485 10.533c-0.017 0.030-0.010 0.060-0.002 0.079s0.021 0.035 0.030 0.044l0.064-0.065c-0.001-0.001-0.003-0.003-0.005-0.006s-0.004-0.006-0.005-0.009c-0.001-0.003-0.001-0.004-0.001-0.004s-0 0.003-0.002 0.005l-0.080-0.044zM31.45 11.050c-0.013-0.011-0.057-0.057-0.119-0.123l-0.067 0.063c0.061 0.064 0.108 0.114 0.124 0.128l0.061-0.068zM31.323 10.997l0.439-0.295-0.051-0.076-0.439 0.295 0.051 0.076zM32.093 10.703c0.045-0.026 0.396-0.265 0.563-0.379l-0.052-0.076c-0.17 0.116-0.516 0.351-0.558 0.375l0.046 0.079zM32.666 10.315c0.023-0.029 0.053-0.083 0.036-0.14-0.018-0.063-0.082-0.098-0.18-0.107l-0.009 0.091c0.088 0.008 0.099 0.034 0.101 0.041 0.004 0.013-0.003 0.037-0.020 0.058l0.072 0.057zM32.543 10.152c0.032-0.021 0.060-0.047 0.081-0.076s0.036-0.063 0.034-0.101c-0.003-0.041-0.027-0.074-0.066-0.096-0.037-0.021-0.088-0.034-0.154-0.038l-0.006 0.091c0.059 0.004 0.094 0.015 0.114 0.026 0.018 0.010 0.020 0.019 0.020 0.024 0.001 0.008-0.003 0.022-0.017 0.041s-0.033 0.037-0.058 0.053l0.051 0.076zM32.471 9.914c0.021-0.026 0.044-0.059 0.060-0.092 0.016-0.032 0.029-0.072 0.025-0.11-0.002-0.020-0.009-0.040-0.024-0.058s-0.034-0.029-0.056-0.036c-0.043-0.014-0.102-0.013-0.178 0.002l0.018 0.090c0.071-0.014 0.111-0.012 0.133-0.005 0.009 0.003 0.013 0.007 0.015 0.008s0.002 0.004 0.003 0.009c0.001 0.012-0.003 0.032-0.016 0.059-0.013 0.026-0.031 0.052-0.049 0.075l0.071 0.058zM32.344 9.691c0.017-0.025 0.034-0.056 0.046-0.088 0.012-0.031 0.021-0.068 0.016-0.103-0.003-0.018-0.010-0.037-0.023-0.053s-0.032-0.027-0.053-0.034c-0.040-0.013-0.092-0.009-0.156 0.007l0.022 0.089c0.058-0.015 0.090-0.013 0.106-0.008 0.007 0.002 0.009 0.005 0.010 0.005s0.002 0.003 0.003 0.008c0.002 0.012-0.001 0.031-0.011 0.056-0.009 0.024-0.023 0.049-0.037 0.070l0.076 0.051zM32.196 9.419l-0.35-0.082-0.021 0.089 0.35 0.082 0.021-0.089zM31.817 9.34c-0.020 0.009-0.049 0.026-0.075 0.049-0.024 0.022-0.053 0.056-0.053 0.102h0.092c0-0.006 0.005-0.018 0.023-0.034 0.017-0.015 0.037-0.027 0.050-0.033l-0.038-0.083zM31.69 9.49c0 0 0 0 0 0s0 0 0 0 0 0 0 0 0 0 0 0 0 0 0 0 0 0 0 0 0 0 0 0 0 0 0 0 0 0 0 0 0 0 0 0 0 0 0 0 0 0 0 0 0 0 0 0 0 0 0 0 0 0 0 0 0 0 0 0 0 0 0 0 0 0 0 0 0 0 0 0 0 0 0 0 0 0 0 0 0 0 0 0 0 0 0 0 0 0 0 0 0 0 0 0 0 0 0 0 0 0 0 0 0 0 0 0 0 0 0 0 0 0 0 0 0 0 0 0 0 0 0 0 0 0 0 0 0 0 0 0 0 0 0 0 0 0 0 0 0 0 0 0 0 0 0 0 0 0 0 0 0 0 0 0 0 0 0 0 0 0 0 0 0 0 0 0 0 0 0 0 0 0 0 0 0 0 0 0 0 0 0 0 0 0 0 0 0 0 0 0 0 0 0 0 0 0 0 0 0 0 0 0 0 0 0 0 0 0 0 0 0 0 0 0 0 0 0 0 0 0 0 0 0 0 0 0 0 0 0 0 0 0 0 0 0 0 0 0 0 0 0 0 0 0 0 0 0 0 0 0 0 0 0 0 0 0 0 0 0 0 0 0 0 0 0 0 0 0 0 0 0 0 0 0 0 0 0 0 0 0 0 0 0 0 0 0 0 0 0 0 0 0 0 0 0 0 0 0 0 0 0 0 0 0 0 0 0 0 0 0 0 0 0 0 0 0 0 0 0 0 0 0 0 0 0 0 0 0 0 0 0 0 0 0 0 0 0 0 0 0 0 0 0 0 0 0 0 0 0 0 0 0 0 0 0 0 0 0 0 0 0 0 0 0 0 0 0 0 0 0 0 0 0 0 0 0 0 0 0 0 0 0 0 0 0 0 0 0 0 0 0 0 0 0 0 0 0 0 0 0 0 0 0 0 0 0 0 0 0 0 0 0 0 0 0 0 0 0 0 0 0 0 0 0 0 0 0 0 0 0 0 0 0 0 0 0 0 0 0 0 0 0 0 0 0 0 0 0 0 0 0 0 0 0 0 0 0 0 0 0 0 0 0 0 0 0 0 0 0 0 0 0 0 0 0 0 0 0 0 0 0 0 0 0 0 0 0 0 0 0 0 0 0 0 0 0 0 0 0 0 0 0 0 0 0 0 0 0 0 0 0 0 0 0 0 0 0 0 0 0 0 0 0 0 0 0 0 0 0 0 0 0 0 0 0 0 0 0 0 0 0 0 0 0 0 0 0 0 0 0 0 0 0 0 0 0 0 0 0 0 0 0 0 0 0 0 0 0 0 0 0 0 0 0 0 0 0 0 0 0 0 0 0 0 0 0 0 0 0 0 0 0 0 0 0 0 0 0 0 0 0 0 0 0 0 0 0 0 0 0 0 0 0 0 0 0 0 0 0 0 0 0 0 0 0 0 0 0 0 0 0 0 0 0 0 0 0 0 0 0 0 0 0 0 0 0 0 0 0 0 0 0 0 0 0 0 0 0 0 0 0 0 0 0 0 0 0 0 0 0 0 0 0 0 0 0 0 0 0 0 0 0 0 0 0 0 0 0 0 0 0 0 0 0 0 0 0 0 0 0 0 0 0 0 0 0 0 0 0 0 0 0 0 0 0 0 0 0 0 0 0 0 0 0 0 0 0 0 0 0 0 0 0 0 0 0 0 0 0 0 0 0 0 0 0 0 0 0 0 0 0 0 0 0 0 0 0 0 0 0 0 0 0 0 0 0 0 0 0 0 0 0 0 0 0 0 0 0 0 0 0 0 0 0 0 0 0 0 0 0 0 0 0 0 0 0 0 0 0 0 0 0 0 0 0 0 0 0 0 0 0 0 0 0 0 0 0 0 0 0 0 0 0 0 0 0 0 0 0 0 0 0 0 0 0 0 0 0 0 0 0 0 0 0 0 0 0 0 0 0 0 0 0 0 0 0 0 0 0 0 0 0 0 0 0 0 0 0 0 0 0 0 0 0 0 0 0 0 0 0 0 0 0 0 0 0 0 0 0 0 0 0 0 0 0 0 0 0 0 0 0 0 0 0 0 0 0 0 0 0 0 0 0 0 0 0 0 0 0 0 0 0 0 0 0 0 0 0 0 0 0 0 0 0 0 0 0 0 0 0 0 0 0 0 0 0 0 0 0 0 0 0 0 0 0 0 0 0 0 0 0 0 0 0 0 0 0 0 0 0 0 0 0 0 0 0 0 0 0 0 0 0 0 0 0 0 0 0 0 0 0 0 0 0 0 0 0 0 0 0 0 0 0 0 0 0 0 0 0 0 0 0 0 0 0 0 0 0 0 0 0 0 0 0 0 0 0 0 0 0 0 0 0 0 0 0 0 0 0 0 0 0 0 0 0 0 0 0 0 0 0 0 0 0 0 0 0 0 0 0 0 0 0 0 0 0 0 0 0 0 0 0 0 0 0 0 0 0 0 0 0 0 0 0 0 0 0 0 0 0 0 0 0 0 0 0 0 0 0 0 0 0 0 0 0 0 0 0 0 0 0 0 0 0 0 0 0 0 0 0 0 0 0 0 0 0 0 0 0 0 0 0 0 0 0 0 0 0 0 0 0 0 0 0 0 0 0 0 0 0 0 0 0 0 0 0 0 0 0 0 0 0 0 0 0 0 0 0 0 0 0 0 0 0 0 0 0 0 0 0 0 0 0 0 0 0 0 0 0 0 0 0 0 0 0 0 0 0 0 0 0 0 0 0 0 0 0 0 0 0 0 0 0 0 0 0 0 0 0 0 0 0 0 0 0 0 0 0 0 0 0 0 0 0 0 0 0 0 0 0 0 0 0 0 0 0 0 0 0 0 0 0 0 0 0 0 0 0 0 0 0 0 0 0 0 0 0 0 0 0 0 0 0 0 0 0 0 0 0 0 0 0 0 0 0 0 0 0 0 0 0 0 0 0 0 0 0 0 0 0 0 0 0 0 0 0 0 0 0 0 0 0 0 0 0 0 0 0 0 0 0 0 0 0 0 0 0 0 0 0 0 0 0 0 0.046 0 0.092 0c0 0 0 0 0-0s0 0 0 0 0 0 0 0 0 0 0 0 0 0 0 0 0 0 0 0 0 0 0 0 0 0 0 0 0 0 0 0 0 0 0 0 0 0 0-0 0 0 0 0 0 0 0 0 0 0 0 0 0 0 0 0 0-0 0-0 0 0 0 0 0 0 0 0 0 0 0 0 0-0 0-0 0 0 0 0 0 0 0 0 0-0 0-0 0 0 0 0 0 0 0-0 0 0 0 0 0 0 0 0 0-0 0-0 0 0 0 0 0 0 0-0 0 0 0 0 0 0 0-0 0 0 0 0 0 0 0-0 0 0 0 0 0 0 0-0 0 0 0 0 0-0 0-0 0 0 0 0 0-0 0-0 0 0 0-0 0 0 0 0 0-0 0-0 0 0 0 0 0-0 0-0 0 0 0-0 0 0 0 0 0-0 0-0 0-0 0-0 0 0 0-0 0 0 0 0 0-0 0-0 0 0 0-0 0 0 0-0 0 0 0 0 0-0 0-0 0-0 0-0 0 0 0-0 0 0 0-0 0 0 0 0 0-0 0-0 0-0 0-0 0-0 0-0 0-0 0-0 0 0 0-0 0 0 0-0 0 0 0-0 0 0 0-0 0 0 0 0 0-0 0-0 0-0 0-0 0-0 0-0 0-0 0-0 0-0 0-0 0-0 0-0 0-0 0-0 0-0 0-0 0-0 0-0 0-0 0-0 0-0 0-0 0 0 0-0 0 0 0-0 0 0 0-0 0-0 0-0 0-0 0-0 0-0 0-0 0-0 0-0 0-0 0-0 0-0 0-0 0 0 0-0 0 0 0-0 0-0 0-0 0-0 0-0 0-0 0-0 0-0 0-0 0 0 0-0 0-0 0-0 0-0 0-0 0-0 0-0 0 0 0-0 0-0 0-0 0-0 0-0 0-0 0-0 0 0 0-0 0-0 0-0 0-0 0-0 0-0 0-0 0-0 0-0 0-0 0-0 0-0 0-0 0-0 0-0 0-0 0-0 0-0 0-0 0-0 0-0 0-0 0-0 0 0 0-0 0-0 0-0 0-0 0-0 0-0 0-0 0-0 0-0 0 0 0-0 0-0 0-0 0-0 0-0 0-0 0-0 0-0 0-0 0-0 0-0 0-0 0-0 0-0 0-0 0-0 0-0 0-0 0-0 0-0 0-0 0 0 0-0 0-0 0-0 0-0 0-0 0-0 0-0 0-0 0-0 0-0 0-0 0-0 0-0 0-0 0-0 0-0 0-0 0-0 0-0 0-0 0-0 0-0 0-0 0-0 0-0 0-0 0-0 0-0 0-0 0-0 0-0 0-0 0-0 0-0 0-0 0-0 0-0 0-0 0-0 0-0 0-0 0-0 0-0 0-0 0-0 0-0 0-0 0-0 0-0 0-0 0-0 0-0 0-0 0-0 0-0 0-0 0-0 0-0 0-0 0-0 0-0 0-0 0-0 0-0 0-0 0-0 0-0 0-0 0-0 0-0 0-0 0-0 0-0 0-0 0-0 0-0 0-0 0-0 0-0 0-0 0-0 0-0 0-0 0-0 0-0 0-0 0-0 0-0 0-0h-0.092c0 0 0 0 0 0s0 0 0 0 0 0 0 0 0 0 0 0 0 0 0 0 0 0 0 0 0 0 0 0 0 0 0 0 0 0 0 0 0 0 0 0 0 0 0 0 0 0 0 0 0 0 0 0 0 0 0 0 0 0 0 0 0 0 0 0 0 0 0 0 0 0 0 0 0 0 0 0 0 0 0 0 0 0 0 0 0 0 0 0 0 0 0 0 0 0 0 0 0 0 0 0 0 0 0 0 0 0 0 0 0 0 0 0 0 0 0 0 0 0 0 0 0 0 0 0 0 0 0 0 0 0 0 0 0 0 0 0 0 0 0 0 0 0 0 0 0 0 0 0 0 0 0 0 0 0 0 0 0 0 0 0 0 0 0 0 0 0 0 0 0 0 0 0 0 0 0 0 0 0 0 0 0 0 0 0 0 0 0 0 0 0 0 0 0 0 0 0 0 0 0 0 0 0 0 0 0 0 0 0 0 0 0 0 0 0 0 0 0 0 0 0 0 0 0 0 0 0 0 0 0 0 0 0 0 0 0 0 0 0 0 0 0 0 0 0 0 0 0 0 0 0 0 0 0 0 0 0 0 0 0 0 0 0 0 0 0 0 0 0 0 0 0 0 0 0 0 0 0 0 0 0 0 0 0 0 0 0 0 0 0 0 0 0 0 0 0 0 0 0 0 0 0 0 0 0 0 0 0 0 0 0 0 0 0 0 0 0 0 0 0 0 0 0 0 0 0 0 0 0 0 0 0 0 0 0 0 0 0 0 0 0 0 0 0 0 0 0 0 0 0 0 0 0 0 0 0 0 0 0 0 0 0 0 0 0 0 0 0 0 0 0 0 0 0 0 0 0 0 0 0 0 0 0 0 0 0 0 0 0 0 0 0 0 0 0 0 0 0 0 0 0 0 0 0 0 0 0 0 0 0 0 0 0 0 0 0 0 0 0 0 0 0 0 0 0 0 0 0 0 0 0 0 0 0 0 0 0 0 0 0 0 0 0 0 0 0 0 0 0 0 0 0 0 0 0 0 0 0 0 0 0 0 0 0 0 0 0 0 0 0 0 0 0 0 0 0 0 0 0 0 0 0 0 0 0 0 0 0 0 0 0 0 0 0 0 0 0 0 0 0 0 0 0 0 0 0 0 0 0 0 0 0 0 0 0 0 0 0 0 0 0 0 0 0 0 0 0 0 0 0 0 0 0 0 0 0 0 0 0 0 0 0 0 0 0 0 0 0 0 0 0 0 0 0 0 0 0 0 0 0 0 0 0 0 0 0 0 0 0 0 0 0 0 0 0 0 0 0 0 0 0 0 0 0 0 0 0 0 0 0 0 0 0 0 0 0 0 0 0 0 0 0 0 0 0 0 0 0 0 0 0 0 0 0 0 0 0 0 0 0 0 0 0 0 0 0 0 0 0 0 0 0 0 0 0 0 0 0 0 0 0 0 0 0 0 0 0 0 0 0 0 0 0 0 0 0 0 0 0 0 0 0 0 0 0 0 0 0 0 0 0 0 0 0 0 0 0 0 0 0 0 0 0 0 0 0 0 0 0 0 0 0 0 0 0 0 0 0 0 0 0 0 0 0 0c0.046 0 0.092 0 0.092 0s0-0 0-0 0 0 0 0 0 0 0 0 0 0 0 0 0 0 0 0 0 0 0 0 0 0 0 0 0 0 0 0 0 0 0 0 0 0 0 0 0-0 0-0 0 0 0 0 0 0 0 0 0 0 0 0 0 0 0-0 0 0 0 0 0 0 0 0 0 0 0 0 0-0 0-0 0 0 0 0 0 0 0 0 0-0 0-0 0 0 0 0 0-0 0-0 0 0 0 0 0 0 0-0 0 0 0 0 0 0 0-0 0 0 0 0 0 0 0-0 0 0 0 0 0 0 0-0 0 0 0 0 0-0 0-0 0 0 0 0 0-0 0-0 0-0 0-0 0 0 0 0 0-0 0-0 0-0 0-0 0 0 0-0 0 0 0 0 0-0 0-0 0-0 0-0 0 0 0-0 0 0 0-0 0 0 0 0 0-0 0-0 0-0 0-0 0-0 0-0 0-0 0-0 0-0 0-0 0-0 0-0 0-0 0-0 0-0 0-0 0-0 0-0 0-0 0-0 0-0 0-0 0-0 0-0 0-0 0-0 0-0 0-0 0 0 0-0 0-0 0-0 0-0 0-0 0-0 0-0 0-0 0-0 0 0 0-0 0-0 0-0 0-0 0-0 0-0 0-0 0-0 0-0 0-0 0-0 0 0 0-0 0-0 0-0 0-0 0-0 0-0 0-0 0-0 0-0 0-0 0-0 0-0 0-0 0-0 0-0 0-0 0-0 0-0 0-0 0-0 0-0 0-0 0-0 0-0 0-0 0-0 0-0 0-0 0-0 0-0 0-0 0-0 0-0 0-0 0-0 0-0 0-0 0-0 0-0 0-0 0-0 0-0 0-0 0-0 0-0 0-0 0-0 0-0 0-0 0-0 0-0 0-0 0-0 0-0 0-0 0-0 0-0 0-0 0-0 0-0 0-0 0-0 0-0 0-0 0-0 0-0 0-0 0-0 0-0 0-0 0-0 0-0 0-0 0-0 0-0 0-0 0-0 0-0 0-0 0-0 0-0 0-0 0-0 0-0 0-0 0-0 0-0 0-0 0-0 0-0 0-0 0-0 0-0 0-0 0-0 0-0 0-0 0-0 0-0 0-0 0-0 0-0 0-0 0-0 0-0 0-0 0-0 0-0 0-0 0-0 0-0 0-0 0-0 0-0 0-0 0-0 0-0 0-0 0-0 0-0 0-0 0-0 0-0 0-0 0-0 0-0 0-0 0-0 0-0 0-0 0-0 0-0 0-0 0-0 0-0 0-0 0-0 0-0 0-0 0-0 0-0 0-0 0-0 0-0 0-0 0-0 0-0 0-0 0-0 0-0 0-0 0-0 0-0 0-0 0-0 0-0 0-0 0-0 0-0 0-0 0-0 0-0 0-0 0-0 0-0 0-0 0-0 0-0 0-0 0-0 0-0 0-0 0-0 0-0 0-0 0-0 0-0 0-0 0-0 0-0 0-0 0-0 0-0 0-0 0-0 0-0 0-0 0-0 0-0 0-0 0-0 0-0 0-0 0-0 0-0 0-0 0-0 0-0 0-0 0-0 0-0 0-0 0-0 0-0 0-0 0-0 0-0 0-0 0-0 0-0 0-0 0-0 0-0 0-0 0-0 0-0 0-0 0-0 0-0 0-0 0-0 0-0 0-0 0-0 0-0 0-0 0-0 0-0 0-0 0-0 0-0 0-0 0-0 0-0 0-0 0-0 0-0 0-0 0-0 0-0 0-0 0-0 0-0 0-0 0-0 0-0 0-0 0-0 0-0 0-0 0-0 0-0 0-0 0-0 0-0 0-0 0-0 0-0 0-0 0-0 0-0 0-0 0-0 0-0 0-0 0-0 0-0 0-0 0-0 0-0 0-0 0-0 0-0 0-0 0-0 0-0 0-0 0-0 0-0 0-0 0-0 0-0 0-0 0-0 0-0 0-0 0-0 0-0 0-0 0-0 0-0 0-0 0-0 0-0 0-0 0-0 0-0 0-0 0-0 0-0 0-0 0-0 0-0 0-0 0-0 0-0 0-0 0-0 0-0 0-0 0-0 0-0 0-0 0-0 0-0 0-0 0-0 0-0 0-0 0-0 0-0 0-0 0-0 0-0 0-0 0-0 0-0 0-0 0-0 0-0 0-0 0-0 0-0 0-0 0-0 0-0 0-0 0-0 0-0 0-0 0-0 0-0 0-0 0-0 0-0 0-0 0-0 0-0 0-0 0-0 0-0 0-0 0-0 0-0 0-0 0-0 0-0 0-0 0-0 0-0 0-0 0-0 0-0 0-0 0-0 0-0 0-0 0-0 0-0 0-0 0-0 0-0 0-0 0-0 0-0 0-0 0-0 0-0 0-0 0-0 0-0 0-0 0-0 0-0 0-0 0-0 0-0 0-0 0-0 0-0 0-0 0-0 0-0 0-0 0-0 0-0 0-0 0-0 0-0 0-0 0-0 0-0 0-0 0-0 0-0 0-0 0-0 0-0 0-0 0-0 0-0 0-0 0-0 0-0 0-0 0-0 0-0 0-0 0-0 0-0 0-0 0-0 0-0 0-0 0-0 0-0 0-0 0-0 0-0 0-0 0-0 0-0 0-0 0-0 0-0 0-0 0-0 0-0 0-0 0-0 0-0 0-0 0-0 0-0 0-0 0-0 0-0 0-0 0-0 0-0 0-0 0-0 0-0 0-0 0-0 0-0 0-0 0-0 0-0 0-0 0-0 0-0 0-0 0-0 0-0 0-0 0-0 0-0 0-0 0-0 0-0 0-0 0-0 0-0 0-0 0-0 0-0 0-0 0-0 0-0 0-0 0-0 0-0 0-0 0-0 0-0 0-0 0-0 0-0 0-0 0-0 0-0 0-0 0-0 0-0 0-0 0-0 0-0 0-0 0-0 0-0 0-0 0-0 0-0 0-0 0-0 0-0 0-0 0-0 0-0 0-0 0-0 0-0 0-0 0-0 0-0 0-0 0-0 0-0 0-0 0-0 0-0 0-0 0-0 0-0h-0.092zM31.608 9.393c-0.042-0.012-0.107-0.022-0.164-0.001-0.030 0.011-0.058 0.031-0.076 0.064s-0.024 0.072-0.018 0.119l0.091-0.011c-0.004-0.033 0.001-0.052 0.007-0.063s0.015-0.018 0.028-0.023c0.030-0.011 0.073-0.007 0.106 0.003l0.026-0.088zM31.362 9.601l0.056 0.058 0.066-0.063-0.056-0.058-0.066 0.063zM31.463 9.584c-0.023-0.006-0.050-0.011-0.078-0.011s-0.058 0.003-0.086 0.017c-0.030 0.015-0.053 0.041-0.062 0.079-0.008 0.036-0.001 0.078 0.017 0.124l0.085-0.034c-0.015-0.038-0.016-0.060-0.013-0.071 0.002-0.009 0.006-0.013 0.013-0.017 0.009-0.005 0.024-0.008 0.044-0.007s0.039 0.004 0.056 0.008l0.024-0.088zM31.262 9.805l0.036 0.045 0.071-0.057-0.036-0.045-0.071 0.057zM31.344 9.777c-0.023-0.005-0.049-0.009-0.077-0.009s-0.058 0.005-0.085 0.019c-0.029 0.015-0.053 0.040-0.062 0.078-0.009 0.036-0.005 0.077 0.012 0.123l0.086-0.031c-0.013-0.037-0.013-0.058-0.010-0.069 0.002-0.009 0.007-0.015 0.016-0.019 0.010-0.005 0.025-0.009 0.044-0.009s0.038 0.002 0.054 0.006l0.021-0.089zM31.144 10.007l0.076 0.069 0.061-0.068-0.076-0.069-0.061 0.068zM31.258 9.996c-0.042-0.006-0.107-0.006-0.159 0.021-0.027 0.014-0.053 0.037-0.067 0.071s-0.015 0.073-0.004 0.116l0.089-0.023c-0.008-0.030-0.005-0.048-0.001-0.058s0.012-0.018 0.024-0.025c0.028-0.014 0.071-0.017 0.105-0.012l0.013-0.091zM31.041 10.226l0.053 0.050 0.063-0.066-0.053-0.050-0.063 0.066zM31.331 10.927c-0.133-0.141-0.342-0.367-0.47-0.506l-0.067 0.062c0.128 0.139 0.337 0.365 0.471 0.506l0.067-0.063zM30.86 10.421c-0.005-0.005-0.010-0.011-0.014-0.016l-0.067 0.062c0.005 0.005 0.010 0.010 0.015 0.016l0.067-0.062zM31.099 10.206l-0.298 0.209 0.053 0.075 0.298-0.209-0.053-0.075zM31.099 10.281l0.209 0.146 0.053-0.075-0.209-0.146-0.053 0.075zM31.338 10.435c0.034-0.003 0.083-0.015 0.124-0.044 0.021-0.015 0.040-0.035 0.052-0.063s0.016-0.059 0.009-0.094l-0.089 0.018c0.003 0.018 0.001 0.030-0.003 0.038s-0.011 0.018-0.022 0.026c-0.023 0.016-0.056 0.025-0.079 0.027l0.009 0.091zM31.508 10.209l-0.056-0.050-0.061 0.068 0.057 0.050 0.061-0.068zM31.452 10.159l-0.17-0.151-0.061 0.068 0.169 0.151 0.061-0.068zM31.414 10.238c0.040 0.006 0.101 0.006 0.151-0.022 0.027-0.014 0.050-0.037 0.065-0.069s0.017-0.070 0.010-0.113l-0.090 0.016c0.005 0.030 0.002 0.049-0.003 0.060s-0.013 0.020-0.025 0.026c-0.026 0.014-0.064 0.016-0.094 0.012l-0.014 0.091zM31.598 9.974l-0.235-0.188-0.057 0.071 0.235 0.188 0.057-0.071zM31.631 10.012l-0.013-0.016-0.070 0.059 0.013 0.016 0.071-0.059zM31.617 9.997l-0.013-0.016-0.071 0.059 0.013 0.016 0.070-0.059zM31.585 10.072c0.035-0.003 0.089-0.013 0.132-0.041 0.022-0.014 0.043-0.034 0.056-0.061s0.016-0.061 0.007-0.095l-0.089 0.023c0.004 0.016 0.002 0.026-0.002 0.033s-0.011 0.016-0.023 0.024c-0.025 0.016-0.062 0.025-0.089 0.027l0.007 0.091zM31.782 9.885v-0.037h-0.092v0.037h0.092zM31.764 9.812l-0.285-0.22-0.056 0.072 0.285 0.22 0.056-0.072zM31.734 9.894c0.043 0.002 0.109-0.002 0.159-0.031 0.026-0.015 0.050-0.039 0.060-0.075s0.003-0.073-0.016-0.113l-0.083 0.039c0.013 0.027 0.012 0.042 0.010 0.049s-0.006 0.013-0.018 0.020c-0.026 0.015-0.071 0.021-0.107 0.019l-0.005 0.091zM31.925 9.66l-0.021-0.018-0.060 0.070 0.021 0.018 0.060-0.070zM32.159 9.426l-0.218 0.153 0.053 0.075 0.218-0.153-0.053-0.075zM31.941 9.579l-0.046 0.033 0.053 0.075 0.046-0.033-0.053-0.075zM31.898 9.715l0.094-0.060-0.049-0.077-0.094 0.060 0.049 0.077zM31.904 9.642l-0.125-0.107-0.060 0.070 0.124 0.107 0.060-0.070zM31.779 9.535l-0.031-0.027-0.060 0.070 0.031 0.027 0.060-0.070zM31.761 9.489l-0.098-0.063-0.049 0.077 0.098 0.063 0.049-0.077zM31.663 9.426l-0.043-0.027-0.049 0.077 0.042 0.027 0.049-0.077zM31.781 9.536l-0.112-0.105-0.063 0.067 0.112 0.105 0.063-0.067zM32.603 10.323l0.277 0.209 0.055-0.073-0.277-0.209-0.055 0.073zM32.935 10.532l0.077-0.059-0.055-0.073-0.077 0.059 0.056 0.073zM33.020 10.465c0.004-0.006 0.016-0.015 0.034-0.016 0.017-0.001 0.045 0.003 0.086 0.039l0.060-0.069c-0.054-0.047-0.107-0.065-0.154-0.061-0.046 0.004-0.080 0.028-0.098 0.052l0.072 0.056zM33.138 10.486l0.109 0.103 0.063-0.066-0.108-0.103-0.063 0.066zM33.249 10.591c-0.015-0.012-0.005-0.023-0.011-0.007-0.005 0.014-0.020 0.041-0.061 0.083l0.065 0.064c0.046-0.046 0.071-0.086 0.082-0.118 0.010-0.031 0.010-0.069-0.018-0.093l-0.058 0.071zM33.178 10.667c-0.087 0.089-0.39 0.408-0.53 0.556l0.067 0.063c0.14-0.149 0.442-0.467 0.529-0.554l-0.065-0.064zM32.636 11.247c0-0 0 0-0 0.001s-0.001 0.001-0.001 0.002-0.002 0.003-0.007 0.004c-0.009 0.003-0.036 0.006-0.090-0.020l-0.039 0.083c0.064 0.030 0.117 0.038 0.158 0.024 0.043-0.014 0.065-0.049 0.070-0.079l-0.090-0.015zM32.548 11.241l-0.113-0.1-0.061 0.068 0.112 0.1 0.061-0.068zM32.429 11.136c-0.006-0.004-0.005-0.005-0.005-0.007 0-0.007 0.006-0.030 0.046-0.072l-0.067-0.063c-0.044 0.047-0.069 0.090-0.070 0.13-0.002 0.046 0.025 0.075 0.050 0.090l0.047-0.079zM32.469 11.057c0.095-0.102 0.455-0.47 0.572-0.61l-0.070-0.059c-0.115 0.138-0.469 0.5-0.569 0.607l0.067 0.063zM31.731 10.709c0.073 0.008 0.216 0.020 0.298 0.011l-0.010-0.091c-0.071 0.007-0.204-0.003-0.278-0.011l-0.010 0.091zM32.029 10.72c0.021-0.002 0.045-0.006 0.064-0.017l-0.046-0.079c0.001-0.001-0 0-0.006 0.002s-0.013 0.002-0.022 0.003l0.010 0.091zM32.973 10.386l-0.551 0.587 0.067 0.063 0.551-0.587-0.067-0.063zM32.422 10.973l-0.020 0.021 0.067 0.062 0.020-0.021-0.067-0.062zM31.996 10.711l0.431 0.33 0.056-0.073-0.432-0.33-0.056 0.073zM32.927 9.569l0.19-0.090-0.039-0.083-0.19 0.090 0.039 0.083zM32.494 9.209l0.134-0.214-0.078-0.049-0.135 0.214 0.078 0.049zM31.92 9.077l-0.012-0.257-0.091 0.004 0.011 0.257 0.092-0.004zM31.335 9.212l-0.070-0.102-0.075 0.052 0.070 0.102 0.076-0.052zM31.265 9.11l-0.070-0.102-0.076 0.052 0.070 0.102 0.075-0.052zM30.932 9.588l-0.237-0.138-0.046 0.079 0.237 0.138 0.046-0.079z"></path>
<path fill="#fff" style="fill: var(--color2, #fff)" d="M25.871 2.704c0 1.215-1.025 2.201-2.29 2.201s-2.29-0.985-2.29-2.201c0-1.215 1.025-2.201 2.29-2.201s2.29 0.985 2.29 2.201z"></path>
<path fill="none" stroke="#d5c95a" style="stroke: var(--color3, #d5c95a)" stroke-linejoin="miter" stroke-linecap="butt" stroke-miterlimit="4" stroke-width="0.4885" d="M23.581 5.149c1.39 0 2.534-1.086 2.534-2.445s-1.144-2.445-2.534-2.445c-1.39 0-2.534 1.086-2.534 2.445s1.144 2.445 2.534 2.445z"></path>
<path fill="#622599" style="fill: var(--color6, #622599)" d="M25.083 2.097c-0.098-0.128-0.244-0.206-0.403-0.215-0.192-0.011-0.368 0.049-0.517 0.174 0.044-0.126 0.058-0.234 0.047-0.333-0.049-0.401-0.569-0.715-0.59-0.728l-0.030-0.018-0.030 0.018c-0.022 0.014-0.541 0.327-0.59 0.728-0.012 0.097 0.004 0.206 0.047 0.333-0.149-0.125-0.324-0.184-0.517-0.174-0.159 0.009-0.305 0.087-0.403 0.215-0.102 0.132-0.136 0.3-0.096 0.472 0.073 0.315 0.368 0.397 0.516 0.397 0.001 0 0.002 0 0.003 0l0.097-0.001-0.045-0.085c-0.001-0.002-0.098-0.187 0.002-0.31l-0.084-0.083c-0.067 0.076-0.092 0.176-0.073 0.291 0.004 0.022 0.008 0.041 0.014 0.059-0.104-0.023-0.265-0.090-0.313-0.296-0.032-0.138-0.006-0.271 0.073-0.376 0.075-0.099 0.193-0.162 0.315-0.169 0.239-0.014 0.44 0.098 0.597 0.331 0.014 0.021 0.026 0.041 0.038 0.061l-0.562 0.021 0.416 0.412-0.417 0.41 0.573 0.023 0.014 0.361c-0.056 0.061-0.118 0.069-0.19 0.060-0.087-0.011-0.134-0.068-0.158-0.117 0.035-0.001 0.078-0.006 0.128-0.019 0.035-0.009 0.067-0.022 0.097-0.040l-0.005-0.146c-0.041 0.045-0.088 0.064-0.12 0.072-0.101 0.025-0.168 0.011-0.169 0.011l-0.086-0.021 0.014 0.086c0.014 0.089 0.091 0.264 0.285 0.288 0.020 0.003 0.038 0.004 0.056 0.004 0.034 0 0.065-0.005 0.094-0.013 0.020 0.034 0.108 0.176 0.272 0.295 0.124 0.090 0.183 0.102 0.199 0.103l0.005 0.001 0.005-0.001c0.015-0.002 0.075-0.013 0.199-0.103 0.166-0.12 0.253-0.261 0.272-0.296 0.029 0.008 0.060 0.013 0.094 0.013 0.018 0 0.037-0.001 0.056-0.004 0.194-0.023 0.271-0.198 0.285-0.288l0.013-0.085-0.085 0.019c-0.001 0-0.067 0.014-0.169-0.011-0.032-0.008-0.079-0.027-0.12-0.072l-0.005 0.146c0.029 0.017 0.062 0.031 0.097 0.040 0.049 0.013 0.093 0.017 0.128 0.019-0.025 0.049-0.071 0.106-0.158 0.117-0.085 0.010-0.142-0.007-0.191-0.061l0.015-0.359 0.572-0.021-0.414-0.412 0.415-0.41-0.563-0.021c0.012-0.021 0.025-0.041 0.039-0.062 0.158-0.233 0.358-0.344 0.597-0.331 0.122 0.007 0.24 0.070 0.315 0.169 0.079 0.105 0.105 0.238 0.073 0.376-0.047 0.205-0.21 0.273-0.313 0.296 0.005-0.018 0.010-0.038 0.014-0.059 0.019-0.114-0.006-0.214-0.072-0.289l-0.084 0.083c0.097 0.123 0.001 0.306 0 0.308l-0.045 0.085 0.097 0.001c0.001 0 0.002 0 0.003 0 0.148 0 0.443-0.083 0.516-0.397 0.039-0.172 0.006-0.34-0.094-0.472zM23.649 2.344l0.25-0.246 0.012 0.328-0.261 0.259v-0.341zM23.531 2.694l-0.262-0.259 0.014-0.339 0.248 0.246v0.352zM23.283 3.551l-0.012-0.327 0.261-0.258v0.341l-0.249 0.244zM23.649 2.976l0.261 0.258-0.013 0.317-0.248-0.245v-0.33zM23.087 1.738c0.035-0.294 0.395-0.552 0.503-0.623 0.108 0.071 0.467 0.329 0.503 0.623 0.012 0.099-0.013 0.221-0.076 0.37l-0.010-0.282-0.416 0.411-0.415-0.412-0.012 0.287c-0.064-0.151-0.089-0.273-0.077-0.373zM22.857 2.519l0.32-0.012 0.261 0.259h-0.332l-0.25-0.247zM23.105 2.883h0.343l-0.261 0.257-0.332-0.014 0.249-0.243zM23.725 3.985c-0.075 0.054-0.118 0.073-0.135 0.078-0.017-0.006-0.060-0.025-0.135-0.078-0.112-0.081-0.184-0.174-0.219-0.224l0.354-0.347 0.352 0.348c-0.035 0.051-0.106 0.143-0.217 0.224zM24.325 3.129l-0.343 0.013-0.261-0.258h0.356l0.247 0.245zM24.078 2.766h-0.344l0.262-0.26 0.331 0.014-0.249 0.246z"></path>
<path fill="#403d44" style="fill: var(--color7, #403d44)" d="M10.757 23.54c0.031 0.010 0.055 0.026 0.072 0.048s0.026 0.047 0.026 0.076c0 0.031-0.010 0.058-0.030 0.081s-0.047 0.040-0.081 0.052c-0.033 0.012-0.070 0.018-0.109 0.018-0.034 0-0.069-0.005-0.103-0.014s-0.066-0.024-0.095-0.043l0.031-0.070c0.022 0.015 0.047 0.027 0.075 0.035s0.054 0.012 0.081 0.012c0.039 0 0.071-0.008 0.096-0.023s0.039-0.036 0.039-0.062c0-0.022-0.009-0.040-0.028-0.051s-0.044-0.018-0.077-0.018h-0.119v-0.075h0.112c0.028 0 0.051-0.006 0.067-0.018s0.024-0.028 0.024-0.048c0-0.024-0.011-0.043-0.033-0.056s-0.049-0.020-0.083-0.020c-0.023 0-0.047 0.003-0.071 0.010s-0.047 0.016-0.069 0.029l-0.030-0.077c0.026-0.014 0.054-0.025 0.084-0.032s0.059-0.011 0.089-0.011c0.038 0 0.073 0.006 0.105 0.018s0.058 0.029 0.077 0.051c0.019 0.021 0.029 0.047 0.029 0.076 0 0.025-0.007 0.048-0.021 0.067s-0.033 0.034-0.056 0.044zM11.341 23.416v0.391h-0.087v-0.051c-0.015 0.019-0.034 0.032-0.056 0.042s-0.046 0.014-0.073 0.014c-0.038 0-0.072-0.008-0.103-0.025s-0.053-0.040-0.070-0.070c-0.017-0.030-0.025-0.065-0.025-0.106s0.008-0.075 0.025-0.105c0.017-0.030 0.041-0.054 0.070-0.070s0.065-0.025 0.103-0.025c0.025 0 0.049 0.004 0.070 0.013s0.040 0.022 0.056 0.039v-0.048h0.092zM11.135 23.734c0.034 0 0.062-0.011 0.084-0.034s0.033-0.052 0.033-0.089c0-0.037-0.011-0.066-0.033-0.089s-0.050-0.034-0.084-0.034c-0.034 0-0.062 0.011-0.084 0.034s-0.032 0.052-0.032 0.089 0.011 0.066 0.032 0.089c0.022 0.022 0.050 0.034 0.084 0.034zM11.825 23.416v0.391h-0.092v-0.314h-0.147l-0.004 0.078c-0.002 0.052-0.007 0.095-0.015 0.13s-0.019 0.062-0.036 0.083c-0.017 0.020-0.040 0.030-0.069 0.030-0.014 0-0.031-0.003-0.051-0.008l0.004-0.077c0.007 0.001 0.013 0.002 0.018 0.002 0.019 0 0.033-0.007 0.042-0.022s0.015-0.033 0.018-0.053c0.003-0.021 0.005-0.051 0.007-0.089l0.007-0.151h0.317zM12.333 23.416v0.332c0 0.138-0.068 0.207-0.203 0.207-0.036 0-0.070-0.005-0.103-0.015s-0.059-0.023-0.080-0.041l0.041-0.069c0.017 0.014 0.037 0.025 0.061 0.034s0.049 0.012 0.075 0.012c0.040 0 0.069-0.010 0.088-0.029s0.029-0.049 0.029-0.089v-0.018c-0.015 0.016-0.033 0.029-0.053 0.037s-0.044 0.012-0.068 0.012c-0.052 0-0.094-0.014-0.124-0.043s-0.045-0.072-0.045-0.13v-0.201h0.092v0.189c0 0.035 0.008 0.061 0.023 0.078s0.039 0.026 0.068 0.026c0.033 0 0.059-0.010 0.078-0.030s0.029-0.049 0.029-0.087v-0.176h0.092zM12.794 23.416v0.391h-0.092v-0.152c-0.038 0.018-0.077 0.027-0.118 0.027-0.050 0-0.089-0.011-0.116-0.034s-0.040-0.059-0.040-0.107v-0.125h0.092v0.119c0 0.025 0.007 0.043 0.022 0.056s0.035 0.018 0.062 0.018c0.034 0 0.067-0.007 0.098-0.022v-0.171h0.092zM13.109 23.735c0.043 0 0.078-0.014 0.106-0.043l0.048 0.056c-0.017 0.021-0.039 0.037-0.066 0.048s-0.057 0.016-0.091 0.016c-0.043 0-0.081-0.009-0.114-0.026s-0.058-0.041-0.076-0.071c-0.018-0.031-0.026-0.065-0.026-0.104s0.009-0.072 0.026-0.103c0.018-0.031 0.042-0.055 0.072-0.072s0.065-0.026 0.104-0.026c0.037 0 0.070 0.008 0.1 0.024s0.054 0.038 0.072 0.068c0.018 0.029 0.026 0.064 0.026 0.103l-0.3 0.059c0.009 0.022 0.024 0.040 0.045 0.051s0.045 0.018 0.074 0.018zM13.092 23.485c-0.034 0-0.061 0.011-0.082 0.033s-0.031 0.052-0.031 0.089v0.001l0.221-0.043c-0.006-0.024-0.019-0.043-0.039-0.058s-0.042-0.022-0.070-0.022zM13.386 23.416h0.092v0.159h0.197v-0.159h0.092v0.391h-0.092v-0.155h-0.197v0.155h-0.092v-0.391zM13.897 23.416h0.092v0.159h0.197v-0.159h0.092v0.391h-0.092v-0.155h-0.197v0.155h-0.092v-0.391zM14.738 23.416v0.391h-0.082v-0.118h-0.103l-0.080 0.118h-0.098l0.092-0.13c-0.028-0.010-0.050-0.025-0.065-0.045s-0.022-0.046-0.022-0.075c0-0.045 0.016-0.080 0.048-0.104s0.075-0.037 0.131-0.037h0.18zM14.561 23.493c-0.059 0-0.089 0.022-0.089 0.067s0.029 0.066 0.086 0.066h0.097v-0.133h-0.095zM15.464 23.416v0.332c0 0.138-0.070 0.207-0.211 0.207-0.038 0-0.073-0.005-0.107-0.015s-0.062-0.023-0.084-0.041l0.041-0.069c0.017 0.014 0.039 0.025 0.065 0.034s0.053 0.013 0.080 0.013c0.043 0 0.075-0.010 0.095-0.029s0.030-0.049 0.030-0.089v-0.021c-0.016 0.017-0.035 0.030-0.057 0.039s-0.047 0.013-0.074 0.013c-0.037 0-0.071-0.008-0.101-0.023s-0.053-0.039-0.071-0.067c-0.017-0.029-0.026-0.062-0.026-0.099s0.009-0.070 0.026-0.098c0.018-0.029 0.041-0.051 0.071-0.067s0.064-0.023 0.101-0.023c0.028 0 0.054 0.005 0.077 0.014s0.043 0.023 0.059 0.043v-0.052h0.087zM15.255 23.712c0.035 0 0.063-0.010 0.085-0.031s0.034-0.048 0.034-0.081c0-0.033-0.011-0.059-0.034-0.080s-0.050-0.031-0.085-0.031c-0.035 0-0.064 0.010-0.086 0.031s-0.033 0.047-0.033 0.080c0 0.033 0.011 0.060 0.033 0.081s0.051 0.031 0.086 0.031zM15.769 23.812c-0.040 0-0.075-0.009-0.107-0.026s-0.057-0.041-0.075-0.071c-0.018-0.031-0.026-0.065-0.026-0.104s0.009-0.073 0.026-0.103c0.018-0.030 0.043-0.054 0.075-0.071s0.067-0.026 0.107-0.026c0.040 0 0.076 0.009 0.108 0.026s0.056 0.041 0.074 0.071c0.018 0.030 0.027 0.065 0.027 0.103s-0.009 0.073-0.027 0.104c-0.018 0.030-0.042 0.054-0.074 0.071s-0.068 0.026-0.108 0.026zM15.769 23.734c0.034 0 0.062-0.011 0.084-0.034s0.033-0.052 0.033-0.089c0-0.037-0.011-0.066-0.033-0.089s-0.050-0.034-0.084-0.034c-0.034 0-0.062 0.011-0.084 0.034s-0.032 0.052-0.032 0.089 0.011 0.066 0.032 0.089c0.022 0.022 0.050 0.034 0.084 0.034zM11.839 24.379h-0.209v0.314h-0.092v-0.391h0.3v0.078zM12.106 24.297c0.041 0 0.076 0.008 0.106 0.025s0.054 0.040 0.071 0.070c0.017 0.030 0.026 0.065 0.026 0.106s-0.008 0.075-0.024 0.105-0.039 0.054-0.068 0.070c-0.029 0.017-0.062 0.025-0.1 0.025-0.054 0-0.097-0.017-0.127-0.052v0.189h-0.092v-0.336c0-0.040 0.009-0.075 0.026-0.105s0.042-0.054 0.073-0.071c0.032-0.017 0.068-0.026 0.11-0.026zM12.102 24.62c0.034 0 0.062-0.011 0.084-0.034s0.032-0.053 0.032-0.089-0.011-0.066-0.032-0.089c-0.021-0.023-0.049-0.034-0.084-0.034s-0.063 0.011-0.084 0.034-0.031 0.052-0.031 0.089c0 0.037 0.011 0.066 0.031 0.089s0.049 0.034 0.084 0.034zM12.582 24.698c-0.040 0-0.075-0.009-0.107-0.026s-0.057-0.041-0.075-0.071c-0.018-0.031-0.026-0.065-0.026-0.104s0.009-0.073 0.026-0.103c0.018-0.030 0.043-0.054 0.075-0.071s0.067-0.026 0.107-0.026c0.040 0 0.076 0.009 0.108 0.026s0.056 0.041 0.074 0.071c0.018 0.030 0.027 0.065 0.027 0.103s-0.009 0.073-0.027 0.104c-0.018 0.030-0.042 0.054-0.074 0.071s-0.068 0.026-0.108 0.026zM12.582 24.619c0.034 0 0.062-0.011 0.084-0.034s0.033-0.052 0.033-0.089c0-0.037-0.011-0.066-0.033-0.089s-0.050-0.034-0.084-0.034c-0.034 0-0.062 0.011-0.084 0.034s-0.032 0.052-0.032 0.089 0.011 0.066 0.032 0.089c0.022 0.022 0.050 0.034 0.084 0.034zM13.274 24.693v-0.259l-0.132 0.218h-0.040l-0.13-0.219v0.26h-0.084v-0.391h0.096l0.139 0.245 0.146-0.245h0.086l0.001 0.391h-0.083zM13.868 24.301v0.391h-0.087v-0.051c-0.015 0.019-0.034 0.032-0.056 0.042s-0.046 0.014-0.073 0.014c-0.038 0-0.072-0.008-0.103-0.025s-0.053-0.040-0.070-0.070c-0.017-0.030-0.025-0.065-0.025-0.106s0.008-0.075 0.025-0.105c0.017-0.030 0.041-0.054 0.070-0.070s0.065-0.025 0.103-0.025c0.025 0 0.049 0.004 0.070 0.013s0.040 0.022 0.056 0.039v-0.048h0.092zM13.661 24.619c0.034 0 0.062-0.011 0.084-0.034s0.033-0.052 0.033-0.089c0-0.037-0.011-0.066-0.033-0.089s-0.050-0.034-0.084-0.034c-0.034 0-0.062 0.011-0.084 0.034s-0.032 0.052-0.032 0.089 0.011 0.066 0.032 0.089c0.022 0.022 0.050 0.034 0.084 0.034zM14.382 24.301v0.332c0 0.138-0.070 0.207-0.211 0.207-0.038 0-0.073-0.005-0.107-0.015s-0.062-0.023-0.084-0.041l0.041-0.069c0.017 0.014 0.039 0.025 0.065 0.034s0.053 0.013 0.080 0.013c0.043 0 0.075-0.010 0.095-0.029s0.030-0.049 0.030-0.089v-0.021c-0.016 0.017-0.035 0.030-0.057 0.039s-0.047 0.013-0.074 0.013c-0.037 0-0.071-0.008-0.101-0.023s-0.053-0.039-0.071-0.067c-0.017-0.029-0.026-0.062-0.026-0.099s0.009-0.070 0.026-0.098c0.018-0.029 0.041-0.051 0.071-0.067s0.064-0.023 0.101-0.023c0.028 0 0.054 0.005 0.077 0.014s0.043 0.023 0.059 0.043v-0.052h0.087zM14.173 24.597c0.035 0 0.063-0.010 0.085-0.031s0.034-0.048 0.034-0.081c0-0.033-0.011-0.059-0.034-0.080s-0.050-0.031-0.085-0.031c-0.035 0-0.064 0.010-0.086 0.031s-0.033 0.047-0.033 0.080c0 0.033 0.011 0.060 0.033 0.081s0.051 0.031 0.086 0.031zM14.883 24.301v0.391h-0.087v-0.050c-0.015 0.018-0.033 0.031-0.055 0.041s-0.045 0.014-0.070 0.014c-0.052 0-0.094-0.014-0.124-0.043s-0.045-0.073-0.045-0.13v-0.224h0.092v0.211c0 0.035 0.008 0.062 0.023 0.079s0.039 0.026 0.069 0.026c0.032 0 0.058-0.010 0.077-0.030s0.029-0.050 0.029-0.088v-0.198h0.092z"></path>
<path fill="#403d44" style="fill: var(--color7, #403d44)" d="M25.154 18.511v0.513h-0.094v-0.432h-0.266v0.432h-0.094v-0.513h0.454zM25.489 18.629c0.041 0 0.076 0.008 0.106 0.025s0.054 0.040 0.071 0.070c0.017 0.030 0.026 0.065 0.026 0.106s-0.008 0.075-0.024 0.105-0.039 0.054-0.068 0.070c-0.029 0.017-0.062 0.025-0.1 0.025-0.054 0-0.097-0.017-0.128-0.052v0.189h-0.092v-0.336c0-0.040 0.009-0.075 0.026-0.105s0.042-0.054 0.073-0.071c0.032-0.017 0.068-0.026 0.11-0.026zM25.485 18.952c0.034 0 0.062-0.011 0.084-0.034s0.032-0.053 0.032-0.089-0.011-0.066-0.032-0.089c-0.021-0.023-0.049-0.034-0.084-0.034s-0.063 0.011-0.084 0.034-0.032 0.052-0.032 0.089c0 0.037 0.011 0.066 0.032 0.089s0.049 0.034 0.084 0.034zM26.162 18.633v0.391h-0.087v-0.050c-0.015 0.018-0.033 0.031-0.055 0.041s-0.045 0.014-0.070 0.014c-0.052 0-0.094-0.014-0.124-0.043s-0.045-0.073-0.045-0.13v-0.224h0.092v0.211c0 0.035 0.008 0.062 0.023 0.079s0.039 0.026 0.069 0.026c0.032 0 0.058-0.010 0.077-0.030s0.029-0.050 0.029-0.088v-0.198h0.092zM26.486 18.629c0.041 0 0.076 0.008 0.106 0.025s0.054 0.040 0.071 0.070c0.017 0.030 0.026 0.065 0.026 0.106s-0.008 0.075-0.024 0.105-0.039 0.054-0.068 0.070c-0.029 0.017-0.062 0.025-0.1 0.025-0.054 0-0.097-0.017-0.128-0.052v0.189h-0.092v-0.336c0-0.040 0.009-0.075 0.026-0.105s0.042-0.054 0.073-0.071c0.032-0.017 0.068-0.026 0.11-0.026zM26.482 18.952c0.034 0 0.062-0.011 0.084-0.034s0.032-0.053 0.032-0.089-0.011-0.066-0.032-0.089c-0.021-0.023-0.049-0.034-0.084-0.034s-0.063 0.011-0.084 0.034-0.032 0.052-0.032 0.089c0 0.037 0.011 0.066 0.032 0.089s0.049 0.034 0.084 0.034zM26.962 19.029c-0.040 0-0.075-0.009-0.107-0.026s-0.057-0.041-0.075-0.071c-0.018-0.031-0.026-0.065-0.026-0.104s0.009-0.073 0.026-0.103c0.018-0.030 0.043-0.054 0.075-0.071s0.067-0.026 0.107-0.026c0.040 0 0.076 0.009 0.108 0.026s0.056 0.041 0.074 0.071c0.018 0.030 0.027 0.065 0.027 0.103s-0.009 0.073-0.027 0.104c-0.018 0.030-0.042 0.054-0.074 0.071s-0.068 0.026-0.108 0.026zM26.962 18.951c0.034 0 0.062-0.011 0.084-0.034s0.033-0.052 0.033-0.089c0-0.037-0.011-0.066-0.033-0.089s-0.050-0.034-0.084-0.034c-0.034 0-0.062 0.011-0.084 0.034s-0.032 0.052-0.032 0.089 0.011 0.066 0.032 0.089c0.022 0.022 0.050 0.034 0.084 0.034zM27.654 18.633v0.332c0 0.138-0.070 0.207-0.211 0.207-0.038 0-0.073-0.005-0.107-0.015s-0.062-0.023-0.084-0.041l0.041-0.069c0.017 0.014 0.039 0.025 0.064 0.034s0.053 0.013 0.080 0.013c0.043 0 0.075-0.010 0.095-0.029s0.030-0.049 0.030-0.089v-0.021c-0.016 0.017-0.035 0.030-0.057 0.039s-0.047 0.013-0.074 0.013c-0.037 0-0.071-0.008-0.101-0.023s-0.053-0.039-0.071-0.067c-0.017-0.029-0.026-0.062-0.026-0.099s0.009-0.070 0.026-0.098c0.018-0.029 0.041-0.051 0.071-0.067s0.064-0.023 0.101-0.023c0.028 0 0.054 0.005 0.077 0.014s0.043 0.023 0.059 0.043v-0.052h0.087zM27.446 18.929c0.035 0 0.063-0.010 0.085-0.031s0.034-0.048 0.034-0.081c0-0.033-0.011-0.059-0.034-0.080s-0.050-0.031-0.085-0.031c-0.035 0-0.064 0.010-0.086 0.031s-0.033 0.047-0.033 0.080c0 0.033 0.011 0.060 0.033 0.081s0.051 0.031 0.086 0.031zM28.166 18.633v0.391h-0.087v-0.051c-0.015 0.019-0.034 0.032-0.056 0.042s-0.046 0.014-0.073 0.014c-0.038 0-0.072-0.008-0.103-0.025s-0.053-0.040-0.070-0.070c-0.017-0.030-0.025-0.065-0.025-0.106s0.008-0.075 0.025-0.105c0.017-0.030 0.041-0.054 0.070-0.070s0.064-0.025 0.103-0.025c0.025 0 0.049 0.004 0.070 0.013s0.040 0.022 0.056 0.039v-0.048h0.092zM27.96 18.951c0.034 0 0.062-0.011 0.084-0.034s0.033-0.052 0.033-0.089c0-0.037-0.011-0.066-0.033-0.089s-0.050-0.034-0.084-0.034c-0.034 0-0.062 0.011-0.084 0.034s-0.032 0.052-0.032 0.089 0.011 0.066 0.032 0.089c0.022 0.022 0.050 0.034 0.084 0.034z"></path>
<path fill="#403d44" style="fill: var(--color7, #403d44)" d="M11.218 7.115c-0.052 0-0.099-0.011-0.141-0.034s-0.074-0.054-0.098-0.095c-0.023-0.040-0.035-0.085-0.035-0.136s0.012-0.096 0.036-0.136c0.024-0.040 0.057-0.071 0.098-0.094s0.089-0.034 0.141-0.034c0.042 0 0.080 0.007 0.115 0.022s0.064 0.036 0.088 0.064l-0.062 0.058c-0.037-0.040-0.083-0.060-0.137-0.060-0.035 0-0.067 0.008-0.095 0.023s-0.050 0.036-0.065 0.064-0.023 0.058-0.023 0.093c0 0.035 0.008 0.066 0.023 0.093s0.037 0.049 0.065 0.064c0.028 0.015 0.059 0.023 0.095 0.023 0.054 0 0.1-0.020 0.137-0.061l0.062 0.059c-0.024 0.028-0.053 0.049-0.089 0.064s-0.073 0.022-0.115 0.022zM11.67 6.95h-0.071v0.157h-0.092v-0.391h0.092v0.158h0.073l0.116-0.158h0.098l-0.142 0.188 0.152 0.203h-0.108l-0.118-0.157zM12.336 6.716v0.391h-0.087v-0.051c-0.015 0.019-0.034 0.032-0.056 0.042s-0.046 0.014-0.073 0.014c-0.038 0-0.072-0.008-0.103-0.025s-0.053-0.040-0.070-0.070c-0.017-0.030-0.025-0.065-0.025-0.106s0.008-0.075 0.025-0.105c0.017-0.030 0.041-0.054 0.070-0.070s0.065-0.025 0.103-0.025c0.025 0 0.049 0.004 0.070 0.013s0.040 0.022 0.056 0.039v-0.048h0.092zM12.13 7.034c0.034 0 0.062-0.011 0.084-0.034s0.033-0.052 0.033-0.089c0-0.037-0.011-0.066-0.033-0.089s-0.050-0.034-0.084-0.034c-0.034 0-0.062 0.011-0.084 0.034s-0.032 0.052-0.032 0.089 0.011 0.066 0.032 0.089c0.022 0.022 0.050 0.034 0.084 0.034zM12.842 6.716v0.332c0 0.138-0.068 0.207-0.203 0.207-0.036 0-0.070-0.005-0.103-0.015s-0.059-0.023-0.080-0.041l0.041-0.069c0.017 0.014 0.037 0.025 0.061 0.034s0.049 0.012 0.075 0.012c0.040 0 0.069-0.010 0.088-0.029s0.029-0.049 0.029-0.089v-0.018c-0.015 0.016-0.033 0.029-0.053 0.037s-0.044 0.012-0.068 0.012c-0.052 0-0.094-0.014-0.124-0.043s-0.045-0.072-0.045-0.13v-0.201h0.092v0.189c0 0.035 0.008 0.061 0.023 0.078s0.039 0.026 0.068 0.026c0.033 0 0.059-0.010 0.078-0.030s0.029-0.049 0.029-0.087v-0.176h0.092zM13.465 6.712c0.049 0 0.088 0.014 0.117 0.043s0.043 0.071 0.043 0.128v0.224h-0.092v-0.213c0-0.034-0.008-0.060-0.023-0.077s-0.037-0.026-0.065-0.026c-0.031 0-0.055 0.010-0.074 0.031s-0.028 0.049-0.028 0.086v0.199h-0.092v-0.213c0-0.034-0.008-0.060-0.023-0.077s-0.037-0.026-0.065-0.026c-0.031 0-0.056 0.010-0.075 0.030s-0.027 0.049-0.027 0.087v0.199h-0.092v-0.391h0.087v0.050c0.015-0.018 0.033-0.031 0.055-0.040s0.046-0.014 0.073-0.014c0.029 0 0.055 0.006 0.078 0.017s0.041 0.027 0.054 0.048c0.016-0.021 0.037-0.036 0.062-0.048s0.053-0.018 0.084-0.018zM13.924 7.112c-0.041 0-0.077-0.009-0.109-0.026s-0.057-0.041-0.075-0.071c-0.018-0.031-0.027-0.065-0.027-0.104s0.009-0.073 0.027-0.103c0.018-0.030 0.043-0.054 0.075-0.071s0.069-0.026 0.11-0.026c0.039 0 0.072 0.008 0.101 0.023s0.051 0.038 0.066 0.067l-0.070 0.041c-0.011-0.018-0.025-0.032-0.043-0.040s-0.035-0.014-0.055-0.014c-0.034 0-0.063 0.011-0.085 0.034s-0.034 0.052-0.034 0.089 0.011 0.067 0.033 0.089c0.022 0.022 0.051 0.033 0.086 0.033 0.020 0 0.038-0.004 0.055-0.013s0.031-0.023 0.043-0.041l0.070 0.041c-0.015 0.029-0.037 0.052-0.067 0.068s-0.062 0.023-0.1 0.023zM14.349 7.118c-0.058 0-0.103-0.014-0.133-0.041s-0.046-0.067-0.046-0.119v-0.242h0.091v0.141c0.013-0.010 0.029-0.018 0.050-0.024s0.044-0.009 0.068-0.009c0.049 0 0.087 0.012 0.114 0.037s0.041 0.059 0.041 0.104c0 0.048-0.016 0.086-0.049 0.113s-0.078 0.040-0.136 0.040zM14.35 7.050c0.028 0 0.050-0.008 0.066-0.023s0.024-0.035 0.024-0.061c0-0.024-0.008-0.043-0.023-0.057s-0.037-0.021-0.065-0.021c-0.021 0-0.040 0.004-0.056 0.012s-0.028 0.019-0.036 0.033v0.033c0 0.026 0.008 0.046 0.024 0.062s0.038 0.023 0.065 0.023zM14.786 6.95h-0.071v0.157h-0.092v-0.391h0.092v0.158h0.073l0.116-0.158h0.098l-0.142 0.188 0.152 0.203h-0.108l-0.118-0.157zM15.452 6.716v0.391h-0.087v-0.051c-0.015 0.019-0.034 0.032-0.056 0.042s-0.046 0.014-0.073 0.014c-0.038 0-0.072-0.008-0.103-0.025s-0.053-0.040-0.070-0.070c-0.017-0.030-0.025-0.065-0.025-0.106s0.008-0.075 0.025-0.105c0.017-0.030 0.041-0.054 0.070-0.070s0.065-0.025 0.103-0.025c0.025 0 0.049 0.004 0.070 0.013s0.040 0.022 0.056 0.039v-0.048h0.092zM15.245 7.034c0.034 0 0.062-0.011 0.084-0.034s0.033-0.052 0.033-0.089c0-0.037-0.011-0.066-0.033-0.089s-0.050-0.034-0.084-0.034c-0.034 0-0.062 0.011-0.084 0.034s-0.032 0.052-0.032 0.089 0.011 0.066 0.032 0.089c0.022 0.022 0.050 0.034 0.084 0.034zM10.881 8c-0.052 0-0.099-0.011-0.141-0.034s-0.075-0.054-0.099-0.095c-0.024-0.041-0.036-0.086-0.036-0.136s0.012-0.095 0.036-0.135c0.024-0.041 0.057-0.072 0.099-0.095s0.089-0.034 0.141-0.034 0.099 0.011 0.141 0.034c0.042 0.022 0.075 0.054 0.099 0.094s0.036 0.085 0.036 0.136c0 0.050-0.012 0.096-0.036 0.136s-0.057 0.072-0.099 0.095c-0.042 0.022-0.089 0.034-0.141 0.034zM10.881 7.917c0.034 0 0.065-0.008 0.092-0.023s0.049-0.037 0.065-0.064c0.016-0.028 0.023-0.059 0.023-0.093s-0.008-0.065-0.023-0.092c-0.016-0.028-0.037-0.049-0.065-0.064s-0.058-0.023-0.092-0.023-0.065 0.008-0.092 0.023c-0.027 0.015-0.049 0.037-0.065 0.064s-0.023 0.058-0.023 0.092 0.008 0.065 0.023 0.093c0.016 0.027 0.037 0.049 0.065 0.064s0.058 0.023 0.092 0.023zM11.471 7.621c0.037 0 0.070 0.008 0.098 0.024s0.050 0.038 0.066 0.066c0.016 0.028 0.024 0.061 0.024 0.097s-0.009 0.071-0.026 0.1c-0.018 0.029-0.042 0.051-0.074 0.067s-0.068 0.024-0.108 0.024c-0.068 0-0.12-0.022-0.158-0.067s-0.056-0.11-0.056-0.194c0-0.079 0.017-0.141 0.051-0.187s0.085-0.076 0.155-0.091l0.182-0.039 0.013 0.082-0.165 0.034c-0.047 0.010-0.083 0.026-0.106 0.050s-0.037 0.056-0.041 0.099c0.018-0.021 0.039-0.037 0.064-0.048s0.052-0.018 0.082-0.018zM11.453 7.926c0.034 0 0.061-0.011 0.081-0.032s0.031-0.050 0.031-0.084-0.011-0.061-0.031-0.081c-0.021-0.021-0.048-0.031-0.081-0.031s-0.062 0.010-0.083 0.031-0.031 0.048-0.031 0.081c0 0.034 0.011 0.062 0.031 0.084s0.049 0.032 0.083 0.032zM11.756 7.601h0.092v0.391h-0.092v-0.391zM11.802 7.537c-0.017 0-0.031-0.005-0.042-0.015s-0.017-0.024-0.017-0.040 0.006-0.029 0.017-0.039c0.011-0.011 0.025-0.016 0.042-0.016s0.031 0.005 0.042 0.015c0.011 0.010 0.017 0.022 0.017 0.037s-0.006 0.030-0.017 0.041c-0.011 0.011-0.025 0.016-0.042 0.016zM12.408 7.915v0.168h-0.086v-0.090h-0.344v-0.391h0.092v0.314h0.187v-0.314h0.092v0.314h0.059zM12.827 7.601v0.391h-0.082v-0.118h-0.103l-0.080 0.118h-0.098l0.092-0.13c-0.028-0.010-0.050-0.025-0.065-0.045s-0.022-0.046-0.022-0.075c0-0.045 0.016-0.080 0.048-0.104s0.075-0.037 0.131-0.037h0.18zM12.651 7.678c-0.059 0-0.089 0.022-0.089 0.067s0.029 0.066 0.086 0.066h0.097v-0.133h-0.095zM12.958 7.601h0.092v0.159h0.197v-0.159h0.092v0.391h-0.092v-0.155h-0.197v0.155h-0.092v-0.391zM13.631 7.836h-0.071v0.157h-0.092v-0.391h0.092v0.158h0.073l0.116-0.158h0.098l-0.142 0.188 0.152 0.203h-0.108l-0.118-0.157zM14.297 7.601v0.391h-0.087v-0.051c-0.015 0.019-0.034 0.032-0.056 0.042s-0.046 0.014-0.073 0.014c-0.038 0-0.072-0.008-0.103-0.025s-0.053-0.040-0.070-0.070c-0.017-0.030-0.025-0.065-0.025-0.106s0.008-0.075 0.025-0.105c0.017-0.030 0.041-0.054 0.070-0.070s0.065-0.025 0.103-0.025c0.025 0 0.049 0.004 0.070 0.013s0.040 0.022 0.056 0.039v-0.048h0.092zM14.090 7.92c0.034 0 0.062-0.011 0.084-0.034s0.033-0.052 0.033-0.089c0-0.037-0.011-0.066-0.033-0.089s-0.050-0.034-0.084-0.034c-0.034 0-0.062 0.011-0.084 0.034s-0.032 0.052-0.032 0.089 0.011 0.066 0.032 0.089c0.022 0.022 0.050 0.034 0.084 0.034zM15.129 7.597c0.049 0 0.088 0.014 0.117 0.043s0.043 0.071 0.043 0.128v0.224h-0.092v-0.213c0-0.034-0.008-0.060-0.023-0.077s-0.037-0.026-0.065-0.026c-0.031 0-0.055 0.010-0.074 0.031s-0.028 0.049-0.028 0.086v0.199h-0.092v-0.213c0-0.034-0.008-0.060-0.023-0.077s-0.037-0.026-0.065-0.026c-0.031 0-0.056 0.010-0.075 0.030s-0.027 0.049-0.027 0.087v0.199h-0.092v-0.391h0.087v0.050c0.015-0.018 0.033-0.031 0.055-0.040s0.046-0.014 0.073-0.014c0.029 0 0.055 0.006 0.078 0.017s0.041 0.027 0.054 0.048c0.016-0.021 0.037-0.036 0.062-0.048s0.053-0.018 0.084-0.018zM15.791 7.601v0.391h-0.087v-0.051c-0.015 0.019-0.034 0.032-0.056 0.042s-0.046 0.014-0.073 0.014c-0.038 0-0.072-0.008-0.103-0.025s-0.053-0.040-0.070-0.070c-0.017-0.030-0.025-0.065-0.025-0.106s0.008-0.075 0.025-0.105c0.017-0.030 0.041-0.054 0.070-0.070s0.065-0.025 0.103-0.025c0.025 0 0.049 0.004 0.070 0.013s0.040 0.022 0.056 0.039v-0.048h0.092zM15.584 7.92c0.034 0 0.062-0.011 0.084-0.034s0.033-0.052 0.033-0.089c0-0.037-0.011-0.066-0.033-0.089s-0.050-0.034-0.084-0.034c-0.034 0-0.062 0.011-0.084 0.034s-0.032 0.052-0.032 0.089 0.011 0.066 0.032 0.089c0.022 0.022 0.050 0.034 0.084 0.034zM12.344 8.611c0.031 0.010 0.055 0.026 0.072 0.048s0.026 0.047 0.026 0.076c0 0.031-0.010 0.058-0.030 0.081s-0.047 0.040-0.081 0.052c-0.033 0.012-0.070 0.018-0.109 0.018-0.034 0-0.069-0.005-0.103-0.014s-0.066-0.024-0.095-0.043l0.031-0.070c0.022 0.015 0.047 0.027 0.075 0.035s0.054 0.012 0.081 0.012c0.039 0 0.071-0.008 0.096-0.023s0.039-0.036 0.039-0.062c0-0.022-0.009-0.040-0.028-0.051s-0.044-0.018-0.077-0.018h-0.119v-0.075h0.112c0.028 0 0.051-0.006 0.067-0.018s0.024-0.028 0.024-0.048c0-0.024-0.011-0.043-0.033-0.056s-0.049-0.020-0.083-0.020c-0.023 0-0.047 0.003-0.071 0.010s-0.047 0.016-0.069 0.029l-0.030-0.077c0.026-0.014 0.054-0.025 0.084-0.031s0.059-0.011 0.089-0.011c0.038 0 0.073 0.006 0.105 0.018s0.058 0.029 0.077 0.051c0.019 0.021 0.029 0.047 0.029 0.076 0 0.025-0.007 0.048-0.021 0.067s-0.033 0.034-0.056 0.044zM12.928 8.487v0.391h-0.087v-0.051c-0.015 0.019-0.034 0.033-0.056 0.042s-0.046 0.014-0.073 0.014c-0.038 0-0.072-0.008-0.103-0.025s-0.053-0.040-0.070-0.070c-0.017-0.030-0.025-0.065-0.025-0.106s0.008-0.075 0.025-0.105c0.017-0.030 0.041-0.054 0.070-0.070s0.065-0.025 0.103-0.025c0.025 0 0.049 0.004 0.070 0.013s0.040 0.022 0.056 0.039v-0.048h0.092zM12.722 8.805c0.034 0 0.062-0.011 0.084-0.034s0.033-0.052 0.033-0.089c0-0.037-0.011-0.066-0.033-0.089s-0.050-0.034-0.084-0.034c-0.034 0-0.062 0.011-0.084 0.034s-0.032 0.052-0.032 0.089 0.011 0.066 0.032 0.089c0.022 0.022 0.050 0.034 0.084 0.034zM13.22 8.721h-0.071v0.157h-0.092v-0.391h0.092v0.158h0.073l0.116-0.158h0.098l-0.142 0.188 0.152 0.203h-0.108l-0.118-0.157zM13.679 8.883c-0.040 0-0.075-0.009-0.107-0.026s-0.057-0.041-0.075-0.071c-0.018-0.031-0.026-0.065-0.026-0.104s0.009-0.073 0.026-0.103c0.018-0.030 0.043-0.054 0.075-0.071s0.067-0.026 0.107-0.026c0.040 0 0.076 0.009 0.108 0.026s0.056 0.041 0.074 0.071c0.018 0.030 0.027 0.065 0.027 0.103s-0.009 0.073-0.027 0.104c-0.018 0.030-0.042 0.054-0.074 0.071s-0.068 0.026-0.108 0.026zM13.679 8.805c0.034 0 0.062-0.011 0.084-0.034s0.033-0.052 0.033-0.089c0-0.037-0.011-0.066-0.033-0.089s-0.050-0.034-0.084-0.034c-0.034 0-0.062 0.011-0.084 0.034s-0.032 0.052-0.032 0.089 0.011 0.066 0.032 0.089c0.022 0.022 0.050 0.034 0.084 0.034zM13.986 8.487h0.092v0.159h0.197v-0.159h0.092v0.391h-0.092v-0.155h-0.197v0.155h-0.092v-0.391z"></path>
<path fill="#403d44" style="fill: var(--color7, #403d44)" d="M6.172 12.125v0.513h-0.095v-0.22h-0.265v0.22h-0.095v-0.513h0.095v0.212h0.265v-0.212h0.095zM6.694 12.247v0.391h-0.087v-0.051c-0.015 0.019-0.034 0.033-0.056 0.042s-0.046 0.014-0.073 0.014c-0.038 0-0.072-0.008-0.103-0.025s-0.053-0.040-0.070-0.070c-0.017-0.030-0.025-0.065-0.025-0.106s0.008-0.075 0.025-0.105c0.017-0.030 0.041-0.054 0.070-0.070s0.064-0.025 0.103-0.025c0.025 0 0.049 0.004 0.070 0.013s0.040 0.022 0.056 0.039v-0.048h0.092zM6.487 12.565c0.034 0 0.062-0.011 0.084-0.034s0.033-0.052 0.033-0.089c0-0.037-0.011-0.066-0.033-0.089s-0.050-0.034-0.084-0.034c-0.034 0-0.062 0.011-0.084 0.034s-0.032 0.052-0.032 0.089 0.011 0.066 0.032 0.089c0.022 0.022 0.050 0.034 0.084 0.034zM7.106 12.435c0.048 0.015 0.073 0.046 0.073 0.094 0 0.035-0.013 0.062-0.040 0.081s-0.065 0.029-0.117 0.029h-0.199v-0.391h0.191c0.048 0 0.085 0.009 0.112 0.026s0.040 0.043 0.040 0.075c0 0.020-0.005 0.037-0.016 0.052s-0.025 0.026-0.044 0.034zM6.91 12.411h0.096c0.047 0 0.071-0.016 0.071-0.049s-0.024-0.048-0.071-0.048h-0.096v0.097zM7.014 12.572c0.050 0 0.075-0.016 0.075-0.049 0-0.017-0.006-0.030-0.018-0.038s-0.030-0.013-0.055-0.013h-0.108v0.1h0.105zM7.615 12.247v0.391h-0.092v-0.152c-0.038 0.018-0.077 0.027-0.118 0.027-0.050 0-0.089-0.011-0.116-0.034s-0.040-0.059-0.040-0.107v-0.125h0.092v0.119c0 0.025 0.007 0.043 0.022 0.056s0.035 0.018 0.062 0.018c0.034 0 0.067-0.007 0.098-0.022v-0.171h0.092zM8.127 12.247v0.391h-0.087v-0.051c-0.015 0.019-0.034 0.033-0.056 0.042s-0.046 0.014-0.073 0.014c-0.038 0-0.072-0.008-0.103-0.025s-0.053-0.040-0.070-0.070c-0.017-0.030-0.025-0.065-0.025-0.106s0.008-0.075 0.025-0.105c0.017-0.030 0.041-0.054 0.070-0.070s0.064-0.025 0.103-0.025c0.025 0 0.049 0.004 0.070 0.013s0.040 0.022 0.056 0.039v-0.048h0.092zM7.92 12.565c0.034 0 0.062-0.011 0.084-0.034s0.033-0.052 0.033-0.089c0-0.037-0.011-0.066-0.033-0.089s-0.050-0.034-0.084-0.034c-0.034 0-0.062 0.011-0.084 0.034s-0.032 0.052-0.032 0.089 0.011 0.066 0.032 0.089c0.022 0.022 0.050 0.034 0.084 0.034zM8.256 12.247h0.092v0.159h0.197v-0.159h0.092v0.391h-0.092v-0.155h-0.197v0.155h-0.092v-0.391zM8.766 12.247h0.092v0.159h0.197v-0.159h0.092v0.391h-0.092v-0.155h-0.197v0.155h-0.092v-0.391zM9.607 12.247v0.391h-0.082v-0.118h-0.103l-0.080 0.118h-0.098l0.092-0.13c-0.028-0.010-0.050-0.025-0.065-0.045s-0.022-0.046-0.022-0.075c0-0.045 0.016-0.080 0.048-0.104s0.075-0.037 0.131-0.037h0.18zM9.43 12.324c-0.059 0-0.089 0.022-0.089 0.067s0.029 0.066 0.086 0.066h0.097v-0.133h-0.095zM10.279 12.247v0.391h-0.092v-0.152c-0.038 0.018-0.077 0.027-0.118 0.027-0.050 0-0.089-0.011-0.116-0.034s-0.040-0.059-0.040-0.107v-0.125h0.092v0.119c0 0.025 0.007 0.043 0.022 0.056s0.035 0.018 0.062 0.018c0.034 0 0.067-0.007 0.098-0.022v-0.171h0.092zM10.594 12.566c0.043 0 0.078-0.014 0.106-0.043l0.048 0.056c-0.017 0.021-0.039 0.037-0.066 0.048s-0.057 0.016-0.091 0.016c-0.043 0-0.081-0.009-0.114-0.026s-0.058-0.041-0.076-0.071c-0.018-0.031-0.026-0.065-0.026-0.104s0.009-0.072 0.026-0.103c0.018-0.031 0.042-0.055 0.072-0.072s0.065-0.026 0.104-0.026c0.037 0 0.070 0.008 0.1 0.024s0.054 0.038 0.072 0.068c0.018 0.029 0.026 0.064 0.026 0.103l-0.3 0.059c0.009 0.022 0.024 0.040 0.045 0.051s0.045 0.018 0.074 0.018zM10.578 12.316c-0.034 0-0.061 0.011-0.082 0.033s-0.031 0.052-0.031 0.089v0.001l0.221-0.043c-0.006-0.024-0.019-0.043-0.039-0.058s-0.042-0.022-0.070-0.022zM11.066 12.243c0.041 0 0.076 0.008 0.106 0.025s0.054 0.040 0.071 0.070c0.017 0.030 0.026 0.065 0.026 0.106s-0.008 0.075-0.024 0.105-0.039 0.054-0.068 0.070c-0.029 0.017-0.062 0.025-0.1 0.025-0.054 0-0.097-0.017-0.127-0.052v0.189h-0.092v-0.336c0-0.040 0.009-0.075 0.026-0.105s0.042-0.054 0.073-0.071c0.032-0.017 0.068-0.026 0.11-0.026zM11.062 12.566c0.034 0 0.062-0.011 0.084-0.034s0.032-0.053 0.032-0.089-0.011-0.066-0.032-0.089c-0.021-0.023-0.049-0.034-0.084-0.034s-0.063 0.011-0.084 0.034-0.031 0.052-0.031 0.089c0 0.037 0.011 0.066 0.031 0.089s0.049 0.034 0.084 0.034zM11.552 12.566c0.043 0 0.078-0.014 0.106-0.043l0.048 0.056c-0.017 0.021-0.039 0.037-0.066 0.048s-0.057 0.016-0.091 0.016c-0.043 0-0.081-0.009-0.114-0.026s-0.058-0.041-0.076-0.071c-0.018-0.031-0.026-0.065-0.026-0.104s0.009-0.072 0.026-0.103c0.018-0.031 0.042-0.055 0.072-0.072s0.065-0.026 0.104-0.026c0.037 0 0.070 0.008 0.1 0.024s0.054 0.038 0.072 0.068c0.018 0.029 0.026 0.064 0.026 0.103l-0.3 0.059c0.009 0.022 0.024 0.040 0.045 0.051s0.045 0.018 0.074 0.018zM11.536 12.316c-0.034 0-0.061 0.011-0.082 0.033s-0.031 0.052-0.031 0.089v0.001l0.221-0.043c-0.006-0.024-0.019-0.043-0.039-0.058s-0.042-0.022-0.070-0.022zM12.057 12.435c0.024 0.007 0.043 0.018 0.056 0.034s0.021 0.033 0.021 0.055c0 0.024-0.008 0.045-0.024 0.064s-0.038 0.032-0.067 0.043-0.061 0.015-0.097 0.015c-0.030 0-0.060-0.003-0.089-0.010s-0.055-0.018-0.078-0.031l0.026-0.068c0.019 0.011 0.041 0.019 0.065 0.025s0.048 0.009 0.072 0.009c0.031 0 0.055-0.005 0.072-0.014s0.026-0.023 0.026-0.040c0-0.015-0.007-0.027-0.021-0.035s-0.032-0.012-0.056-0.012h-0.076v-0.062h0.069c0.023 0 0.041-0.004 0.053-0.012s0.020-0.019 0.020-0.033-0.008-0.025-0.023-0.034c-0.016-0.008-0.037-0.012-0.065-0.012-0.039 0-0.080 0.010-0.124 0.029l-0.023-0.067c0.051-0.024 0.103-0.036 0.155-0.036 0.033 0 0.063 0.005 0.089 0.014s0.047 0.021 0.062 0.038c0.015 0.016 0.023 0.035 0.023 0.056 0 0.019-0.006 0.036-0.018 0.051s-0.028 0.026-0.048 0.034zM7.697 13.529c-0.041 0-0.077-0.009-0.109-0.026s-0.057-0.041-0.075-0.071c-0.018-0.031-0.027-0.065-0.027-0.104s0.009-0.073 0.027-0.103c0.018-0.030 0.043-0.054 0.075-0.071s0.069-0.026 0.11-0.026c0.039 0 0.072 0.008 0.101 0.023s0.051 0.038 0.066 0.067l-0.070 0.041c-0.011-0.018-0.025-0.031-0.043-0.040s-0.035-0.014-0.055-0.014c-0.034 0-0.063 0.011-0.085 0.034s-0.034 0.052-0.034 0.089 0.011 0.067 0.033 0.089c0.022 0.022 0.051 0.033 0.086 0.033 0.020 0 0.038-0.004 0.055-0.013s0.031-0.023 0.043-0.041l0.070 0.041c-0.015 0.029-0.037 0.052-0.067 0.068s-0.062 0.023-0.1 0.023zM8.327 13.133v0.391h-0.091v-0.314h-0.193v0.314h-0.092v-0.391h0.375zM8.651 13.128c0.041 0 0.076 0.008 0.106 0.025s0.054 0.040 0.071 0.070c0.017 0.030 0.026 0.065 0.026 0.106s-0.008 0.075-0.024 0.105-0.039 0.054-0.068 0.070c-0.029 0.017-0.062 0.025-0.1 0.025-0.054 0-0.097-0.017-0.127-0.052v0.189h-0.092v-0.336c0-0.040 0.009-0.075 0.026-0.105s0.042-0.054 0.073-0.071c0.032-0.017 0.068-0.026 0.11-0.026zM8.648 13.451c0.034 0 0.062-0.011 0.084-0.034s0.032-0.053 0.032-0.089-0.011-0.066-0.032-0.089c-0.021-0.023-0.049-0.034-0.084-0.034s-0.063 0.011-0.084 0.034-0.031 0.052-0.031 0.089c0 0.037 0.011 0.066 0.031 0.089s0.049 0.034 0.084 0.034zM9.334 13.133v0.391h-0.087v-0.051c-0.015 0.019-0.034 0.033-0.056 0.042s-0.046 0.014-0.073 0.014c-0.038 0-0.072-0.008-0.103-0.025s-0.053-0.040-0.070-0.070c-0.017-0.030-0.025-0.065-0.025-0.106s0.008-0.075 0.025-0.105c0.017-0.030 0.041-0.054 0.070-0.070s0.065-0.025 0.103-0.025c0.025 0 0.049 0.004 0.070 0.013s0.040 0.022 0.056 0.039v-0.048h0.092zM9.128 13.451c0.034 0 0.062-0.011 0.084-0.034s0.033-0.052 0.033-0.089c0-0.037-0.011-0.066-0.033-0.089s-0.050-0.034-0.084-0.034c-0.034 0-0.062 0.011-0.084 0.034s-0.032 0.052-0.032 0.089 0.011 0.066 0.032 0.089c0.022 0.022 0.050 0.034 0.084 0.034zM9.747 13.32c0.048 0.015 0.073 0.046 0.073 0.094 0 0.035-0.013 0.062-0.040 0.081s-0.065 0.029-0.117 0.029h-0.199v-0.391h0.191c0.048 0 0.085 0.009 0.112 0.026s0.040 0.043 0.040 0.075c0 0.020-0.005 0.037-0.016 0.052s-0.025 0.026-0.044 0.034zM9.55 13.296h0.096c0.047 0 0.071-0.016 0.071-0.049s-0.024-0.048-0.071-0.048h-0.096v0.097zM9.655 13.457c0.050 0 0.075-0.016 0.075-0.049 0-0.017-0.006-0.030-0.018-0.038s-0.030-0.013-0.055-0.013h-0.108v0.1h0.105zM10.302 13.133v0.332c0 0.138-0.068 0.207-0.203 0.207-0.036 0-0.070-0.005-0.103-0.015s-0.059-0.023-0.080-0.041l0.041-0.069c0.017 0.014 0.037 0.025 0.061 0.034s0.049 0.012 0.075 0.012c0.040 0 0.069-0.010 0.088-0.029s0.029-0.049 0.029-0.089v-0.018c-0.015 0.016-0.033 0.029-0.053 0.037s-0.044 0.012-0.068 0.012c-0.052 0-0.094-0.014-0.124-0.043s-0.045-0.072-0.045-0.13v-0.201h0.092v0.189c0 0.035 0.008 0.061 0.023 0.078s0.039 0.026 0.068 0.026c0.033 0 0.059-0.010 0.078-0.030s0.029-0.049 0.029-0.087v-0.176h0.092z"></path>
<path fill="#403d44" style="fill: var(--color7, #403d44)" d="M24.567 12.125v0.513h-0.094v-0.432h-0.266v0.432h-0.094v-0.513h0.454zM24.709 12.247h0.092v0.391h-0.092v-0.391zM24.755 12.183c-0.017 0-0.031-0.005-0.042-0.015s-0.017-0.024-0.017-0.040 0.006-0.029 0.017-0.039c0.011-0.011 0.025-0.016 0.042-0.016s0.031 0.005 0.042 0.015c0.011 0.010 0.017 0.022 0.017 0.037s-0.006 0.030-0.017 0.041c-0.011 0.011-0.025 0.016-0.042 0.016zM25.317 12.247v0.332c0 0.138-0.070 0.207-0.211 0.207-0.038 0-0.073-0.005-0.107-0.015s-0.062-0.023-0.084-0.041l0.041-0.069c0.017 0.014 0.039 0.025 0.064 0.034s0.053 0.013 0.080 0.013c0.043 0 0.075-0.010 0.095-0.029s0.030-0.049 0.030-0.089v-0.021c-0.016 0.017-0.035 0.030-0.057 0.039s-0.047 0.013-0.074 0.013c-0.037 0-0.071-0.008-0.101-0.023s-0.053-0.039-0.071-0.067c-0.017-0.029-0.026-0.062-0.026-0.099s0.009-0.070 0.026-0.098c0.018-0.029 0.041-0.051 0.071-0.067s0.064-0.023 0.101-0.023c0.028 0 0.054 0.005 0.077 0.014s0.043 0.023 0.059 0.043v-0.052h0.087zM25.108 12.543c0.035 0 0.063-0.010 0.085-0.031s0.034-0.048 0.034-0.081c0-0.033-0.011-0.059-0.034-0.080s-0.050-0.031-0.085-0.031c-0.035 0-0.064 0.010-0.086 0.031s-0.033 0.047-0.033 0.080c0 0.033 0.011 0.060 0.033 0.081s0.051 0.031 0.086 0.031zM25.941 12.243c0.049 0 0.088 0.014 0.117 0.043s0.043 0.071 0.043 0.128v0.224h-0.092v-0.213c0-0.034-0.008-0.060-0.023-0.077s-0.037-0.026-0.065-0.026c-0.031 0-0.055 0.010-0.074 0.031s-0.028 0.049-0.028 0.086v0.199h-0.092v-0.213c0-0.034-0.008-0.060-0.023-0.077s-0.037-0.026-0.065-0.026c-0.031 0-0.056 0.010-0.075 0.030s-0.027 0.049-0.027 0.087v0.199h-0.092v-0.391h0.087v0.050c0.015-0.018 0.033-0.031 0.055-0.040s0.046-0.014 0.073-0.014c0.029 0 0.055 0.006 0.078 0.017s0.041 0.027 0.054 0.048c0.016-0.021 0.037-0.036 0.062-0.048s0.053-0.018 0.084-0.018zM26.415 12.243c0.041 0 0.076 0.008 0.106 0.025s0.054 0.040 0.071 0.070c0.017 0.030 0.026 0.065 0.026 0.106s-0.008 0.075-0.024 0.105-0.039 0.054-0.068 0.070c-0.029 0.017-0.062 0.025-0.1 0.025-0.054 0-0.097-0.017-0.128-0.052v0.189h-0.092v-0.336c0-0.040 0.009-0.075 0.026-0.105s0.042-0.054 0.073-0.071c0.032-0.017 0.068-0.026 0.11-0.026zM26.412 12.566c0.034 0 0.062-0.011 0.084-0.034s0.032-0.053 0.032-0.089-0.011-0.066-0.032-0.089c-0.021-0.023-0.049-0.034-0.084-0.034s-0.063 0.011-0.084 0.034-0.032 0.052-0.032 0.089c0 0.037 0.011 0.066 0.032 0.089s0.049 0.034 0.084 0.034zM27.088 12.247v0.391h-0.087v-0.050c-0.015 0.018-0.033 0.031-0.055 0.041s-0.045 0.014-0.070 0.014c-0.052 0-0.094-0.014-0.124-0.043s-0.045-0.073-0.045-0.13v-0.223h0.092v0.211c0 0.035 0.008 0.062 0.023 0.079s0.039 0.026 0.069 0.026c0.032 0 0.058-0.010 0.077-0.030s0.029-0.050 0.029-0.088v-0.198h0.092zM27.604 12.638v-0.259l-0.132 0.218h-0.040l-0.13-0.219v0.26h-0.084v-0.391h0.096l0.139 0.245 0.146-0.245h0.086l0.001 0.391h-0.083zM27.98 12.482h-0.071v0.157h-0.092v-0.391h0.092v0.158h0.073l0.116-0.158h0.098l-0.142 0.188 0.152 0.203h-0.108l-0.118-0.157zM28.645 12.247v0.391h-0.087v-0.051c-0.015 0.019-0.034 0.033-0.056 0.042s-0.046 0.014-0.073 0.014c-0.038 0-0.072-0.008-0.103-0.025s-0.053-0.040-0.070-0.070c-0.017-0.030-0.025-0.065-0.025-0.106s0.008-0.075 0.025-0.105c0.017-0.030 0.041-0.054 0.070-0.070s0.064-0.025 0.103-0.025c0.025 0 0.049 0.004 0.070 0.013s0.040 0.022 0.056 0.039v-0.048h0.092zM28.439 12.565c0.034 0 0.062-0.011 0.084-0.034s0.033-0.052 0.033-0.089c0-0.037-0.011-0.066-0.033-0.089s-0.050-0.034-0.084-0.034c-0.034 0-0.062 0.011-0.084 0.034s-0.032 0.052-0.032 0.089 0.011 0.066 0.032 0.089c0.022 0.022 0.050 0.034 0.084 0.034zM24.924 13.133v0.332c0 0.138-0.070 0.207-0.211 0.207-0.038 0-0.073-0.005-0.107-0.015s-0.062-0.023-0.084-0.041l0.041-0.069c0.017 0.014 0.039 0.025 0.064 0.034s0.053 0.013 0.080 0.013c0.043 0 0.075-0.010 0.095-0.029s0.030-0.049 0.030-0.089v-0.021c-0.016 0.017-0.035 0.030-0.057 0.039s-0.047 0.013-0.074 0.013c-0.037 0-0.071-0.008-0.101-0.023s-0.053-0.039-0.071-0.067c-0.017-0.029-0.026-0.062-0.026-0.099s0.009-0.070 0.026-0.098c0.018-0.029 0.041-0.051 0.071-0.067s0.064-0.023 0.101-0.023c0.028 0 0.054 0.005 0.077 0.014s0.043 0.023 0.059 0.043v-0.052h0.087zM24.715 13.429c0.035 0 0.063-0.010 0.085-0.031s0.034-0.048 0.034-0.081c0-0.033-0.011-0.059-0.034-0.080s-0.050-0.031-0.085-0.031c-0.035 0-0.064 0.010-0.086 0.031s-0.033 0.047-0.033 0.080c0 0.033 0.011 0.060 0.033 0.081s0.051 0.031 0.086 0.031zM25.229 13.529c-0.040 0-0.075-0.009-0.107-0.026s-0.057-0.041-0.075-0.071c-0.018-0.031-0.026-0.065-0.026-0.104s0.009-0.073 0.026-0.103c0.018-0.030 0.043-0.054 0.075-0.071s0.067-0.026 0.107-0.026c0.040 0 0.076 0.009 0.108 0.026s0.056 0.041 0.074 0.071c0.018 0.030 0.027 0.065 0.027 0.103s-0.009 0.073-0.027 0.104c-0.018 0.030-0.042 0.054-0.074 0.071s-0.068 0.026-0.108 0.026zM25.229 13.451c0.034 0 0.062-0.011 0.084-0.034s0.033-0.052 0.033-0.089c0-0.037-0.011-0.066-0.033-0.089s-0.050-0.034-0.084-0.034c-0.034 0-0.062 0.011-0.084 0.034s-0.032 0.052-0.032 0.089 0.011 0.066 0.032 0.089c0.022 0.022 0.050 0.034 0.084 0.034zM25.729 13.128c0.041 0 0.076 0.008 0.106 0.025s0.054 0.040 0.071 0.070c0.017 0.030 0.026 0.065 0.026 0.106s-0.008 0.075-0.024 0.105-0.039 0.054-0.068 0.070c-0.029 0.017-0.062 0.025-0.1 0.025-0.054 0-0.097-0.017-0.128-0.052v0.189h-0.092v-0.336c0-0.040 0.009-0.075 0.026-0.105s0.042-0.054 0.073-0.071c0.032-0.017 0.068-0.026 0.11-0.026zM25.726 13.451c0.034 0 0.062-0.011 0.084-0.034s0.032-0.053 0.032-0.089-0.011-0.066-0.032-0.089c-0.021-0.023-0.049-0.034-0.084-0.034s-0.063 0.011-0.084 0.034-0.032 0.052-0.032 0.089c0 0.037 0.011 0.066 0.032 0.089s0.049 0.034 0.084 0.034zM26.206 13.529c-0.040 0-0.075-0.009-0.107-0.026s-0.057-0.041-0.075-0.071c-0.018-0.031-0.026-0.065-0.026-0.104s0.009-0.073 0.026-0.103c0.018-0.030 0.043-0.054 0.075-0.071s0.067-0.026 0.107-0.026c0.040 0 0.076 0.009 0.108 0.026s0.056 0.041 0.074 0.071c0.018 0.030 0.027 0.065 0.027 0.103s-0.009 0.073-0.027 0.104c-0.018 0.030-0.042 0.054-0.074 0.071s-0.068 0.026-0.108 0.026zM26.206 13.451c0.034 0 0.062-0.011 0.084-0.034s0.033-0.052 0.033-0.089c0-0.037-0.011-0.066-0.033-0.089s-0.050-0.034-0.084-0.034c-0.034 0-0.062 0.011-0.084 0.034s-0.032 0.052-0.032 0.089 0.011 0.066 0.032 0.089c0.022 0.022 0.050 0.034 0.084 0.034zM26.69 13.529c-0.041 0-0.077-0.009-0.109-0.026s-0.057-0.041-0.075-0.071c-0.018-0.031-0.027-0.065-0.027-0.104s0.009-0.073 0.027-0.103c0.018-0.030 0.043-0.054 0.075-0.071s0.069-0.026 0.11-0.026c0.039 0 0.072 0.008 0.101 0.023s0.051 0.038 0.066 0.067l-0.070 0.041c-0.011-0.018-0.025-0.031-0.043-0.040s-0.035-0.014-0.055-0.014c-0.034 0-0.063 0.011-0.085 0.034s-0.034 0.052-0.034 0.089 0.011 0.067 0.033 0.089c0.022 0.022 0.051 0.033 0.086 0.033 0.020 0 0.038-0.004 0.055-0.013s0.031-0.023 0.043-0.041l0.070 0.041c-0.015 0.029-0.037 0.052-0.067 0.068s-0.062 0.023-0.1 0.023zM27.292 13.133v0.391h-0.092v-0.314h-0.147l-0.004 0.078c-0.002 0.052-0.007 0.095-0.015 0.13s-0.019 0.062-0.036 0.083c-0.017 0.020-0.040 0.030-0.069 0.030-0.014 0-0.031-0.003-0.051-0.008l0.004-0.077c0.007 0.001 0.013 0.002 0.018 0.002 0.019 0 0.032-0.007 0.042-0.022s0.015-0.033 0.018-0.053c0.003-0.021 0.005-0.051 0.007-0.089l0.007-0.151h0.317zM27.793 13.133v0.391h-0.087v-0.050c-0.015 0.018-0.033 0.031-0.055 0.041s-0.045 0.014-0.070 0.014c-0.052 0-0.094-0.014-0.124-0.043s-0.045-0.073-0.045-0.13v-0.223h0.092v0.211c0 0.035 0.008 0.062 0.023 0.079s0.039 0.026 0.069 0.026c0.032 0 0.058-0.010 0.077-0.030s0.029-0.050 0.029-0.088v-0.198h0.092zM28.169 13.524l-0.1-0.136-0.101 0.136h-0.101l0.152-0.199-0.146-0.193h0.102l0.096 0.128 0.096-0.128h0.099l-0.147 0.191 0.153 0.2h-0.103z"></path>
<path fill="#403d44" style="fill: var(--color7, #403d44)" d="M5.564 19.032c-0.052 0-0.099-0.011-0.141-0.034s-0.074-0.054-0.098-0.095c-0.023-0.040-0.035-0.085-0.035-0.136s0.012-0.096 0.036-0.136c0.024-0.040 0.057-0.071 0.098-0.094s0.089-0.034 0.141-0.034c0.042 0 0.080 0.007 0.115 0.022s0.064 0.036 0.088 0.064l-0.062 0.058c-0.037-0.040-0.083-0.060-0.137-0.060-0.035 0-0.067 0.008-0.095 0.023s-0.050 0.036-0.065 0.064-0.023 0.058-0.023 0.093c0 0.035 0.008 0.066 0.023 0.093s0.037 0.049 0.065 0.064c0.028 0.015 0.059 0.023 0.095 0.023 0.054 0 0.1-0.020 0.137-0.061l0.062 0.059c-0.024 0.028-0.053 0.049-0.089 0.064s-0.073 0.022-0.115 0.022zM6.213 18.633v0.391h-0.087v-0.050c-0.015 0.018-0.033 0.031-0.055 0.041s-0.045 0.014-0.070 0.014c-0.052 0-0.094-0.014-0.124-0.043s-0.045-0.073-0.045-0.13v-0.224h0.092v0.211c0 0.035 0.008 0.062 0.023 0.079s0.039 0.026 0.069 0.026c0.032 0 0.058-0.010 0.077-0.030s0.029-0.050 0.029-0.088v-0.198h0.092zM6.522 19.029c-0.041 0-0.077-0.009-0.109-0.026s-0.057-0.041-0.075-0.071c-0.018-0.031-0.027-0.065-0.027-0.104s0.009-0.073 0.027-0.103c0.018-0.030 0.043-0.054 0.075-0.071s0.069-0.026 0.11-0.026c0.039 0 0.072 0.008 0.101 0.023s0.051 0.038 0.066 0.067l-0.070 0.041c-0.011-0.018-0.025-0.032-0.043-0.040s-0.035-0.014-0.055-0.014c-0.034 0-0.063 0.011-0.085 0.034s-0.034 0.052-0.034 0.089 0.011 0.067 0.033 0.089c0.022 0.022 0.051 0.033 0.086 0.033 0.020 0 0.038-0.004 0.055-0.013s0.031-0.023 0.043-0.041l0.070 0.041c-0.015 0.029-0.037 0.052-0.067 0.068s-0.062 0.023-0.1 0.023zM7.271 18.629c0.049 0 0.088 0.014 0.117 0.043s0.043 0.071 0.043 0.128v0.224h-0.092v-0.213c0-0.034-0.008-0.060-0.023-0.077s-0.037-0.026-0.065-0.026c-0.031 0-0.055 0.010-0.074 0.031s-0.028 0.049-0.028 0.086v0.199h-0.092v-0.213c0-0.034-0.008-0.060-0.023-0.077s-0.037-0.026-0.065-0.026c-0.031 0-0.056 0.010-0.075 0.030s-0.027 0.049-0.027 0.087v0.199h-0.092v-0.391h0.087v0.050c0.015-0.018 0.033-0.031 0.055-0.040s0.046-0.014 0.073-0.014c0.029 0 0.055 0.006 0.078 0.017s0.041 0.027 0.054 0.048c0.016-0.021 0.037-0.036 0.062-0.048s0.053-0.018 0.084-0.018zM7.736 18.952c0.043 0 0.078-0.014 0.106-0.043l0.048 0.056c-0.017 0.021-0.039 0.037-0.066 0.048s-0.057 0.016-0.091 0.016c-0.043 0-0.081-0.009-0.114-0.026s-0.058-0.041-0.076-0.071c-0.018-0.031-0.026-0.065-0.026-0.104s0.009-0.072 0.026-0.103c0.018-0.031 0.042-0.055 0.072-0.072s0.065-0.026 0.104-0.026c0.037 0 0.070 0.008 0.1 0.024s0.054 0.038 0.072 0.068c0.018 0.029 0.026 0.064 0.026 0.103l-0.3 0.059c0.009 0.022 0.024 0.040 0.045 0.051s0.045 0.018 0.074 0.018zM7.719 18.702c-0.034 0-0.061 0.011-0.082 0.033s-0.031 0.052-0.031 0.089v0.001l0.221-0.043c-0.006-0.024-0.019-0.043-0.039-0.058s-0.042-0.022-0.070-0.022zM8.399 19.024v-0.259l-0.132 0.218h-0.040l-0.13-0.219v0.26h-0.084v-0.391h0.096l0.139 0.245 0.146-0.245h0.086l0.001 0.391h-0.083zM8.993 18.633v0.391h-0.087v-0.051c-0.015 0.019-0.034 0.032-0.056 0.042s-0.046 0.014-0.073 0.014c-0.038 0-0.072-0.008-0.103-0.025s-0.053-0.040-0.070-0.070c-0.017-0.030-0.025-0.065-0.025-0.106s0.008-0.075 0.025-0.105c0.017-0.030 0.041-0.054 0.070-0.070s0.065-0.025 0.103-0.025c0.025 0 0.049 0.004 0.070 0.013s0.040 0.022 0.056 0.039v-0.048h0.092zM8.786 18.951c0.034 0 0.062-0.011 0.084-0.034s0.033-0.052 0.033-0.089c0-0.037-0.011-0.066-0.033-0.089s-0.050-0.034-0.084-0.034c-0.034 0-0.062 0.011-0.084 0.034s-0.032 0.052-0.032 0.089 0.011 0.066 0.032 0.089c0.022 0.022 0.050 0.034 0.084 0.034zM9.716 19.024v-0.259l-0.132 0.218h-0.040l-0.13-0.219v0.26h-0.084v-0.391h0.096l0.139 0.245 0.146-0.245h0.086l0.001 0.391h-0.083zM10.31 18.633v0.391h-0.087v-0.051c-0.015 0.019-0.034 0.032-0.056 0.042s-0.046 0.014-0.073 0.014c-0.038 0-0.072-0.008-0.103-0.025s-0.053-0.040-0.070-0.070c-0.017-0.030-0.025-0.065-0.025-0.106s0.008-0.075 0.025-0.105c0.017-0.030 0.041-0.054 0.070-0.070s0.065-0.025 0.103-0.025c0.025 0 0.049 0.004 0.070 0.013s0.040 0.022 0.056 0.039v-0.048h0.092zM10.104 18.951c0.034 0 0.062-0.011 0.084-0.034s0.033-0.052 0.033-0.089c0-0.037-0.011-0.066-0.033-0.089s-0.050-0.034-0.084-0.034c-0.034 0-0.062 0.011-0.084 0.034s-0.032 0.052-0.032 0.089 0.011 0.066 0.032 0.089c0.022 0.022 0.050 0.034 0.084 0.034zM10.794 18.633v0.391h-0.092v-0.314h-0.147l-0.004 0.078c-0.002 0.052-0.007 0.095-0.015 0.13s-0.019 0.062-0.036 0.083c-0.017 0.020-0.040 0.030-0.069 0.030-0.014 0-0.031-0.003-0.051-0.008l0.004-0.077c0.007 0.001 0.013 0.002 0.018 0.002 0.019 0 0.033-0.007 0.042-0.022s0.015-0.033 0.018-0.053c0.003-0.021 0.005-0.051 0.007-0.089l0.007-0.151h0.317zM11.295 18.633v0.391h-0.087v-0.050c-0.015 0.018-0.033 0.031-0.055 0.041s-0.045 0.014-0.070 0.014c-0.052 0-0.094-0.014-0.124-0.043s-0.045-0.073-0.045-0.13v-0.224h0.092v0.211c0 0.035 0.008 0.062 0.023 0.079s0.039 0.026 0.069 0.026c0.032 0 0.058-0.010 0.077-0.030s0.029-0.050 0.029-0.088v-0.198h0.092zM11.671 19.024l-0.1-0.136-0.101 0.136h-0.101l0.152-0.199-0.146-0.193h0.102l0.096 0.128 0.096-0.128h0.099l-0.147 0.191 0.153 0.2h-0.103zM7.945 19.596h-0.209v0.314h-0.092v-0.391h0.3v0.078zM8.213 19.514c0.041 0 0.076 0.008 0.106 0.025s0.054 0.040 0.071 0.070c0.017 0.030 0.026 0.065 0.026 0.106s-0.008 0.075-0.024 0.105-0.039 0.054-0.068 0.070c-0.029 0.017-0.062 0.025-0.1 0.025-0.054 0-0.097-0.017-0.127-0.052v0.189h-0.092v-0.336c0-0.040 0.009-0.075 0.026-0.105s0.042-0.054 0.073-0.071c0.032-0.017 0.068-0.026 0.11-0.026zM8.209 19.837c0.034 0 0.062-0.011 0.084-0.034s0.032-0.053 0.032-0.089-0.011-0.066-0.032-0.089c-0.021-0.023-0.049-0.034-0.084-0.034s-0.063 0.011-0.084 0.034-0.031 0.052-0.031 0.089c0 0.037 0.011 0.066 0.031 0.089s0.049 0.034 0.084 0.034zM8.892 19.518v0.332c0 0.138-0.068 0.207-0.203 0.207-0.036 0-0.070-0.005-0.103-0.015s-0.059-0.023-0.080-0.041l0.041-0.069c0.017 0.014 0.037 0.025 0.061 0.034s0.049 0.012 0.075 0.012c0.040 0 0.069-0.010 0.088-0.029s0.029-0.049 0.029-0.089v-0.018c-0.015 0.016-0.033 0.029-0.053 0.037s-0.044 0.012-0.068 0.012c-0.052 0-0.094-0.014-0.124-0.043s-0.045-0.072-0.045-0.13v-0.201h0.092v0.189c0 0.035 0.008 0.061 0.023 0.078s0.039 0.026 0.068 0.026c0.033 0 0.059-0.010 0.078-0.030s0.029-0.049 0.029-0.087v-0.176h0.092zM9.396 19.518v0.391h-0.091v-0.314h-0.193v0.314h-0.092v-0.391h0.375z"></path>
<path fill="#403d44" style="fill: var(--color7, #403d44)" d="M19.333 23.814c-0.052 0-0.099-0.011-0.141-0.034s-0.075-0.054-0.099-0.095c-0.024-0.041-0.036-0.086-0.036-0.136s0.012-0.095 0.036-0.135c0.024-0.041 0.057-0.072 0.099-0.095s0.089-0.034 0.141-0.034 0.099 0.011 0.141 0.034c0.042 0.022 0.075 0.054 0.099 0.094s0.036 0.085 0.036 0.136c0 0.050-0.012 0.096-0.036 0.136s-0.057 0.072-0.099 0.095c-0.042 0.022-0.089 0.034-0.141 0.034zM19.333 23.731c0.034 0 0.065-0.008 0.092-0.023s0.049-0.037 0.064-0.064c0.016-0.028 0.023-0.059 0.023-0.093s-0.008-0.065-0.023-0.092c-0.016-0.028-0.037-0.049-0.064-0.064s-0.058-0.023-0.092-0.023-0.065 0.008-0.092 0.023c-0.027 0.015-0.049 0.037-0.064 0.064s-0.023 0.058-0.023 0.092 0.008 0.065 0.023 0.093c0.016 0.027 0.037 0.049 0.064 0.064s0.058 0.023 0.092 0.023zM19.89 23.812c-0.041 0-0.077-0.009-0.109-0.026s-0.057-0.041-0.075-0.071c-0.018-0.031-0.027-0.065-0.027-0.104s0.009-0.073 0.027-0.103c0.018-0.030 0.043-0.054 0.075-0.071s0.069-0.026 0.11-0.026c0.039 0 0.072 0.008 0.101 0.023s0.051 0.038 0.066 0.067l-0.070 0.041c-0.011-0.018-0.025-0.032-0.043-0.040s-0.035-0.014-0.055-0.014c-0.034 0-0.063 0.011-0.085 0.034s-0.034 0.052-0.034 0.089 0.011 0.067 0.033 0.089c0.022 0.022 0.051 0.033 0.086 0.033 0.020 0 0.038-0.004 0.055-0.013s0.031-0.023 0.043-0.041l0.070 0.041c-0.015 0.029-0.037 0.052-0.067 0.068s-0.062 0.023-0.1 0.023zM20.314 23.812c-0.040 0-0.075-0.009-0.107-0.026s-0.057-0.041-0.075-0.071c-0.018-0.031-0.026-0.065-0.026-0.104s0.009-0.073 0.026-0.103c0.018-0.030 0.043-0.054 0.075-0.071s0.067-0.026 0.107-0.026c0.040 0 0.076 0.009 0.108 0.026s0.056 0.041 0.074 0.071c0.018 0.030 0.027 0.065 0.027 0.103s-0.009 0.073-0.027 0.104c-0.018 0.030-0.042 0.054-0.074 0.071s-0.068 0.026-0.108 0.026zM20.314 23.734c0.034 0 0.062-0.011 0.084-0.034s0.033-0.052 0.033-0.089c0-0.037-0.011-0.066-0.033-0.089s-0.050-0.034-0.084-0.034c-0.034 0-0.062 0.011-0.084 0.034s-0.032 0.052-0.032 0.089 0.011 0.066 0.032 0.089c0.022 0.022 0.050 0.034 0.084 0.034zM20.832 23.435c0.037 0 0.070 0.008 0.098 0.024s0.050 0.038 0.066 0.066c0.016 0.028 0.024 0.061 0.024 0.097s-0.009 0.071-0.026 0.1c-0.018 0.029-0.042 0.051-0.074 0.067s-0.068 0.024-0.108 0.024c-0.068 0-0.12-0.022-0.158-0.067s-0.056-0.11-0.056-0.194c0-0.079 0.017-0.141 0.051-0.187s0.085-0.076 0.155-0.091l0.182-0.039 0.013 0.082-0.165 0.034c-0.047 0.010-0.083 0.026-0.106 0.050s-0.037 0.056-0.041 0.099c0.018-0.021 0.039-0.037 0.064-0.048s0.052-0.018 0.082-0.018zM20.814 23.74c0.034 0 0.061-0.011 0.081-0.032s0.032-0.050 0.032-0.084-0.011-0.061-0.032-0.081c-0.021-0.021-0.048-0.031-0.081-0.031s-0.062 0.010-0.083 0.031-0.032 0.048-0.032 0.081c0 0.034 0.011 0.062 0.032 0.084s0.049 0.032 0.083 0.032zM21.487 23.416v0.391h-0.087v-0.050c-0.015 0.018-0.033 0.031-0.055 0.041s-0.045 0.014-0.070 0.014c-0.052 0-0.094-0.014-0.124-0.043s-0.045-0.073-0.045-0.13v-0.224h0.092v0.211c0 0.035 0.008 0.062 0.023 0.079s0.039 0.026 0.069 0.026c0.032 0 0.058-0.010 0.077-0.030s0.029-0.050 0.029-0.088v-0.198h0.092zM21.796 23.812c-0.041 0-0.077-0.009-0.109-0.026s-0.057-0.041-0.075-0.071c-0.018-0.031-0.027-0.065-0.027-0.104s0.009-0.073 0.027-0.103c0.018-0.030 0.043-0.054 0.075-0.071s0.069-0.026 0.11-0.026c0.039 0 0.072 0.008 0.101 0.023s0.051 0.038 0.066 0.067l-0.070 0.041c-0.011-0.018-0.025-0.032-0.043-0.040s-0.035-0.014-0.055-0.014c-0.034 0-0.063 0.011-0.085 0.034s-0.034 0.052-0.034 0.089 0.011 0.067 0.033 0.089c0.022 0.022 0.051 0.033 0.086 0.033 0.020 0 0.038-0.004 0.055-0.013s0.031-0.023 0.043-0.041l0.070 0.041c-0.015 0.029-0.037 0.052-0.067 0.068s-0.062 0.023-0.1 0.023zM22.545 23.411c0.049 0 0.088 0.014 0.117 0.043s0.043 0.071 0.043 0.128v0.224h-0.092v-0.213c0-0.034-0.008-0.060-0.023-0.077s-0.037-0.026-0.065-0.026c-0.031 0-0.055 0.010-0.074 0.031s-0.028 0.049-0.028 0.086v0.199h-0.092v-0.213c0-0.034-0.008-0.060-0.023-0.077s-0.037-0.026-0.065-0.026c-0.031 0-0.056 0.010-0.075 0.030s-0.027 0.049-0.027 0.087v0.199h-0.092v-0.391h0.087v0.050c0.015-0.018 0.033-0.031 0.055-0.040s0.046-0.014 0.073-0.014c0.029 0 0.055 0.006 0.078 0.017s0.041 0.027 0.054 0.048c0.016-0.021 0.037-0.036 0.062-0.048s0.053-0.018 0.084-0.018zM22.826 23.416h0.092v0.391h-0.092v-0.391zM22.872 23.351c-0.017 0-0.031-0.005-0.042-0.015s-0.017-0.024-0.017-0.040 0.006-0.029 0.017-0.039c0.011-0.011 0.025-0.016 0.042-0.016s0.031 0.005 0.042 0.015c0.011 0.010 0.017 0.022 0.017 0.037s-0.006 0.030-0.017 0.041c-0.011 0.011-0.025 0.016-0.042 0.016zM23.227 23.812c-0.041 0-0.077-0.009-0.109-0.026s-0.057-0.041-0.075-0.071c-0.018-0.031-0.027-0.065-0.027-0.104s0.009-0.073 0.027-0.103c0.018-0.030 0.043-0.054 0.075-0.071s0.069-0.026 0.11-0.026c0.039 0 0.072 0.008 0.101 0.023s0.051 0.038 0.066 0.067l-0.070 0.041c-0.011-0.018-0.025-0.032-0.043-0.040s-0.035-0.014-0.055-0.014c-0.034 0-0.063 0.011-0.085 0.034s-0.034 0.052-0.034 0.089 0.011 0.067 0.033 0.089c0.022 0.022 0.051 0.033 0.086 0.033 0.020 0 0.038-0.004 0.055-0.013s0.031-0.023 0.043-0.041l0.070 0.041c-0.015 0.029-0.037 0.052-0.067 0.068s-0.062 0.023-0.1 0.023zM23.482 23.416h0.092v0.159h0.197v-0.159h0.092v0.391h-0.092v-0.155h-0.197v0.155h-0.092v-0.391zM24.363 23.416v0.391h-0.087v-0.050c-0.015 0.018-0.033 0.031-0.055 0.041s-0.045 0.014-0.070 0.014c-0.052 0-0.094-0.014-0.124-0.043s-0.045-0.073-0.045-0.13v-0.224h0.092v0.211c0 0.035 0.008 0.062 0.023 0.079s0.039 0.026 0.069 0.026c0.032 0 0.058-0.010 0.077-0.030s0.029-0.050 0.029-0.088v-0.198h0.092zM24.865 23.416v0.391h-0.087v-0.050c-0.015 0.018-0.033 0.031-0.055 0.041s-0.045 0.014-0.070 0.014c-0.052 0-0.094-0.014-0.124-0.043s-0.045-0.073-0.045-0.13v-0.224h0.092v0.211c0 0.035 0.008 0.062 0.023 0.079s0.039 0.026 0.069 0.026c0.032 0 0.058-0.010 0.077-0.030s0.029-0.050 0.029-0.088v-0.198h0.092zM24.673 23.37c-0.040 0-0.070-0.009-0.091-0.027s-0.031-0.045-0.032-0.081h0.061c0 0.018 0.006 0.032 0.016 0.042s0.026 0.015 0.045 0.015c0.019 0 0.033-0.005 0.044-0.015s0.017-0.024 0.018-0.042h0.062c-0 0.035-0.011 0.062-0.032 0.081s-0.051 0.027-0.091 0.027zM20.206 24.297c0.041 0 0.076 0.008 0.106 0.025s0.054 0.040 0.071 0.070c0.017 0.030 0.026 0.065 0.026 0.106s-0.008 0.075-0.024 0.105-0.039 0.054-0.068 0.070c-0.029 0.017-0.062 0.025-0.1 0.025-0.054 0-0.097-0.017-0.128-0.052v0.189h-0.092v-0.336c0-0.040 0.009-0.075 0.026-0.105s0.042-0.054 0.073-0.071c0.032-0.017 0.068-0.026 0.11-0.026zM20.203 24.62c0.034 0 0.062-0.011 0.084-0.034s0.032-0.053 0.032-0.089-0.011-0.066-0.032-0.089c-0.021-0.023-0.049-0.034-0.084-0.034s-0.063 0.011-0.084 0.034-0.032 0.052-0.032 0.089c0 0.037 0.011 0.066 0.032 0.089s0.049 0.034 0.084 0.034zM20.683 24.698c-0.040 0-0.075-0.009-0.107-0.026s-0.057-0.041-0.075-0.071c-0.018-0.031-0.026-0.065-0.026-0.104s0.009-0.073 0.026-0.103c0.018-0.030 0.043-0.054 0.075-0.071s0.067-0.026 0.107-0.026c0.040 0 0.076 0.009 0.108 0.026s0.056 0.041 0.074 0.071c0.018 0.030 0.027 0.065 0.027 0.103s-0.009 0.073-0.027 0.104c-0.018 0.030-0.042 0.054-0.074 0.071s-0.068 0.026-0.108 0.026zM20.683 24.619c0.034 0 0.062-0.011 0.084-0.034s0.033-0.052 0.033-0.089c0-0.037-0.011-0.066-0.033-0.089s-0.050-0.034-0.084-0.034c-0.034 0-0.062 0.011-0.084 0.034s-0.032 0.052-0.032 0.089 0.011 0.066 0.032 0.089c0.022 0.022 0.050 0.034 0.084 0.034zM21.218 24.489c0.024 0.007 0.043 0.018 0.056 0.034s0.021 0.033 0.021 0.055c0 0.024-0.008 0.045-0.024 0.064s-0.038 0.032-0.067 0.043-0.061 0.015-0.097 0.015c-0.030 0-0.060-0.003-0.089-0.010s-0.055-0.018-0.078-0.031l0.026-0.068c0.019 0.011 0.041 0.019 0.064 0.025s0.048 0.009 0.072 0.009c0.031 0 0.055-0.005 0.072-0.014s0.026-0.023 0.026-0.040c0-0.015-0.007-0.027-0.021-0.035s-0.032-0.012-0.056-0.012h-0.076v-0.062h0.069c0.023 0 0.041-0.004 0.053-0.012s0.020-0.019 0.020-0.033-0.008-0.025-0.023-0.034c-0.016-0.008-0.037-0.012-0.064-0.012-0.039 0-0.080 0.010-0.124 0.029l-0.023-0.067c0.051-0.024 0.103-0.036 0.155-0.036 0.033 0 0.063 0.005 0.089 0.014s0.047 0.021 0.062 0.038c0.015 0.016 0.023 0.035 0.023 0.056 0 0.019-0.006 0.036-0.018 0.051s-0.028 0.026-0.048 0.034zM21.681 24.489c0.048 0.015 0.073 0.046 0.073 0.094 0 0.035-0.013 0.062-0.040 0.081s-0.065 0.029-0.117 0.029h-0.199v-0.391h0.191c0.048 0 0.085 0.009 0.112 0.026s0.040 0.043 0.040 0.075c0 0.020-0.005 0.037-0.016 0.052s-0.025 0.026-0.044 0.034zM21.484 24.465h0.096c0.047 0 0.071-0.016 0.071-0.049s-0.024-0.048-0.071-0.048h-0.096v0.097zM21.589 24.626c0.050 0 0.075-0.016 0.075-0.049 0-0.017-0.006-0.030-0.018-0.038s-0.030-0.013-0.055-0.013h-0.108v0.1h0.105zM22.229 24.301v0.391h-0.087v-0.050c-0.015 0.018-0.033 0.031-0.055 0.041s-0.045 0.014-0.070 0.014c-0.052 0-0.094-0.014-0.124-0.043s-0.045-0.073-0.045-0.13v-0.224h0.092v0.211c0 0.035 0.008 0.062 0.023 0.079s0.039 0.026 0.069 0.026c0.032 0 0.058-0.010 0.077-0.030s0.029-0.050 0.029-0.088v-0.198h0.092zM22.854 24.297c0.049 0 0.088 0.014 0.117 0.043s0.043 0.071 0.043 0.128v0.224h-0.092v-0.213c0-0.034-0.008-0.060-0.023-0.077s-0.037-0.026-0.065-0.026c-0.031 0-0.055 0.010-0.074 0.031s-0.028 0.049-0.028 0.086v0.199h-0.092v-0.213c0-0.034-0.008-0.060-0.023-0.077s-0.037-0.026-0.065-0.026c-0.031 0-0.056 0.010-0.075 0.030s-0.027 0.049-0.027 0.087v0.199h-0.092v-0.391h0.087v0.050c0.015-0.018 0.033-0.031 0.055-0.040s0.046-0.014 0.073-0.014c0.029 0 0.055 0.006 0.078 0.017s0.041 0.027 0.054 0.048c0.016-0.021 0.037-0.036 0.062-0.048s0.053-0.018 0.084-0.018zM23.309 24.698c-0.040 0-0.075-0.009-0.107-0.026s-0.057-0.041-0.075-0.071c-0.018-0.031-0.026-0.065-0.026-0.104s0.009-0.073 0.026-0.103c0.018-0.030 0.043-0.054 0.075-0.071s0.067-0.026 0.107-0.026c0.040 0 0.076 0.009 0.108 0.026s0.056 0.041 0.074 0.071c0.018 0.030 0.027 0.065 0.027 0.103s-0.009 0.073-0.027 0.104c-0.018 0.030-0.042 0.054-0.074 0.071s-0.068 0.026-0.108 0.026zM23.309 24.619c0.034 0 0.062-0.011 0.084-0.034s0.033-0.052 0.033-0.089c0-0.037-0.011-0.066-0.033-0.089s-0.050-0.034-0.084-0.034c-0.034 0-0.062 0.011-0.084 0.034s-0.032 0.052-0.032 0.089 0.011 0.066 0.032 0.089c0.022 0.022 0.050 0.034 0.084 0.034zM23.778 24.536h-0.071v0.157h-0.092v-0.391h0.092v0.158h0.073l0.116-0.158h0.098l-0.142 0.188 0.152 0.203h-0.108l-0.118-0.157z"></path>
<path fill="#403d44" style="fill: var(--color7, #403d44)" d="M19.862 7.324c-0.052 0-0.099-0.011-0.141-0.034s-0.074-0.054-0.098-0.095c-0.023-0.040-0.035-0.085-0.035-0.136s0.012-0.096 0.036-0.136c0.024-0.040 0.057-0.071 0.098-0.094s0.089-0.034 0.141-0.034c0.042 0 0.080 0.007 0.115 0.022s0.064 0.036 0.088 0.064l-0.062 0.058c-0.037-0.040-0.083-0.060-0.137-0.060-0.035 0-0.067 0.008-0.095 0.023s-0.050 0.036-0.065 0.064-0.023 0.058-0.023 0.093c0 0.035 0.008 0.066 0.023 0.093s0.037 0.049 0.065 0.064c0.028 0.015 0.059 0.023 0.095 0.023 0.054 0 0.1-0.020 0.137-0.061l0.062 0.059c-0.024 0.028-0.053 0.049-0.089 0.064s-0.073 0.022-0.115 0.022zM20.511 6.926v0.391h-0.087v-0.050c-0.015 0.018-0.033 0.031-0.055 0.041s-0.045 0.014-0.070 0.014c-0.052 0-0.094-0.014-0.124-0.043s-0.045-0.073-0.045-0.13v-0.223h0.092v0.211c0 0.035 0.008 0.062 0.023 0.079s0.039 0.026 0.069 0.026c0.032 0 0.058-0.010 0.077-0.030s0.029-0.050 0.029-0.088v-0.198h0.092zM21.027 7.317v-0.259l-0.132 0.218h-0.040l-0.13-0.219v0.26h-0.084v-0.391h0.096l0.139 0.245 0.146-0.245h0.086l0.001 0.391h-0.083zM21.523 7.113c0.048 0.015 0.073 0.046 0.073 0.094 0 0.035-0.013 0.062-0.040 0.081s-0.065 0.029-0.117 0.029h-0.199v-0.391h0.191c0.048 0 0.085 0.009 0.112 0.026s0.040 0.043 0.040 0.075c0 0.020-0.005 0.037-0.016 0.052s-0.025 0.026-0.044 0.034zM21.327 7.089h0.096c0.047 0 0.071-0.016 0.071-0.049s-0.024-0.048-0.071-0.048h-0.096v0.097zM21.432 7.25c0.050 0 0.075-0.016 0.075-0.049 0-0.017-0.006-0.030-0.018-0.038s-0.030-0.013-0.055-0.013h-0.108v0.1h0.105zM21.875 7.322c-0.040 0-0.075-0.009-0.107-0.026s-0.057-0.041-0.075-0.071c-0.018-0.031-0.026-0.065-0.026-0.104s0.009-0.073 0.026-0.103c0.018-0.030 0.043-0.054 0.075-0.071s0.067-0.026 0.107-0.026c0.040 0 0.076 0.009 0.108 0.026s0.056 0.041 0.074 0.071c0.018 0.030 0.027 0.065 0.027 0.103s-0.009 0.073-0.027 0.104c-0.018 0.030-0.042 0.054-0.074 0.071s-0.068 0.026-0.108 0.026zM21.875 7.244c0.034 0 0.062-0.011 0.084-0.034s0.033-0.052 0.033-0.089c0-0.037-0.011-0.066-0.033-0.089s-0.050-0.034-0.084-0.034c-0.034 0-0.062 0.011-0.084 0.034s-0.032 0.052-0.032 0.089 0.011 0.066 0.032 0.089c0.022 0.022 0.050 0.034 0.084 0.034zM22.532 6.926v0.391h-0.092v-0.314h-0.147l-0.004 0.078c-0.002 0.052-0.007 0.095-0.015 0.13s-0.019 0.062-0.036 0.083c-0.017 0.020-0.040 0.030-0.069 0.030-0.014 0-0.031-0.003-0.051-0.008l0.004-0.077c0.007 0.001 0.013 0.002 0.018 0.002 0.019 0 0.032-0.007 0.042-0.022s0.015-0.033 0.018-0.053c0.003-0.021 0.005-0.051 0.007-0.089l0.007-0.151h0.317zM22.663 6.926h0.092v0.391h-0.092v-0.391zM22.709 6.861c-0.017 0-0.031-0.005-0.042-0.015s-0.017-0.024-0.017-0.040 0.006-0.029 0.017-0.039c0.011-0.011 0.025-0.016 0.042-0.016s0.031 0.005 0.042 0.015c0.011 0.010 0.017 0.022 0.017 0.037s-0.006 0.030-0.017 0.041c-0.011 0.011-0.025 0.016-0.042 0.016zM23.218 6.926v0.391h-0.092v-0.152c-0.038 0.018-0.077 0.027-0.118 0.027-0.050 0-0.089-0.011-0.116-0.034s-0.040-0.059-0.040-0.107v-0.125h0.092v0.119c0 0.025 0.007 0.043 0.022 0.056s0.035 0.018 0.062 0.018c0.034 0 0.067-0.007 0.098-0.022v-0.171h0.092zM23.348 6.926h0.092v0.159h0.197v-0.159h0.092v0.391h-0.092v-0.155h-0.197v0.155h-0.092v-0.391zM24.24 6.926v0.391h-0.087v-0.051c-0.015 0.019-0.034 0.032-0.056 0.042s-0.046 0.014-0.073 0.014c-0.038 0-0.072-0.008-0.103-0.025s-0.053-0.040-0.070-0.070c-0.017-0.030-0.025-0.065-0.025-0.106s0.008-0.075 0.025-0.105c0.017-0.030 0.041-0.054 0.070-0.070s0.064-0.025 0.103-0.025c0.025 0 0.049 0.004 0.070 0.013s0.040 0.022 0.056 0.039v-0.048h0.092zM24.033 7.244c0.034 0 0.062-0.011 0.084-0.034s0.033-0.052 0.033-0.089c0-0.037-0.011-0.066-0.033-0.089s-0.050-0.034-0.084-0.034c-0.034 0-0.062 0.011-0.084 0.034s-0.032 0.052-0.032 0.089 0.011 0.066 0.032 0.089c0.022 0.022 0.050 0.034 0.084 0.034zM20.732 8.207c-0.040 0-0.075-0.009-0.107-0.026s-0.057-0.041-0.075-0.071c-0.018-0.031-0.026-0.065-0.026-0.104s0.009-0.073 0.026-0.103c0.018-0.030 0.043-0.054 0.075-0.071s0.067-0.026 0.107-0.026c0.040 0 0.076 0.009 0.108 0.026s0.056 0.041 0.074 0.071c0.018 0.030 0.027 0.065 0.027 0.103s-0.009 0.073-0.027 0.104c-0.018 0.030-0.042 0.054-0.074 0.071s-0.068 0.026-0.108 0.026zM20.732 8.129c0.034 0 0.062-0.011 0.084-0.034s0.033-0.052 0.033-0.089c0-0.037-0.011-0.066-0.033-0.089s-0.050-0.034-0.084-0.034c-0.034 0-0.062 0.011-0.084 0.034s-0.032 0.052-0.032 0.089 0.011 0.066 0.032 0.089c0.022 0.022 0.050 0.034 0.084 0.034zM21.216 8.207c-0.041 0-0.077-0.009-0.109-0.026s-0.057-0.041-0.075-0.071c-0.018-0.031-0.027-0.065-0.027-0.104s0.009-0.073 0.027-0.103c0.018-0.030 0.043-0.054 0.075-0.071s0.069-0.026 0.11-0.026c0.039 0 0.072 0.008 0.101 0.023s0.051 0.038 0.066 0.067l-0.070 0.041c-0.011-0.018-0.025-0.032-0.043-0.040s-0.035-0.014-0.055-0.014c-0.034 0-0.063 0.011-0.085 0.034s-0.034 0.052-0.034 0.089 0.011 0.067 0.033 0.089c0.022 0.022 0.051 0.033 0.086 0.033 0.020 0 0.038-0.004 0.055-0.013s0.031-0.023 0.043-0.041l0.070 0.041c-0.015 0.029-0.037 0.052-0.067 0.068s-0.062 0.023-0.1 0.023zM21.471 7.811h0.092v0.159h0.197v-0.159h0.092v0.391h-0.092v-0.155h-0.197v0.155h-0.092v-0.391zM22.156 8.207c-0.040 0-0.075-0.009-0.107-0.026s-0.057-0.041-0.075-0.071c-0.018-0.031-0.026-0.065-0.026-0.104s0.009-0.073 0.026-0.103c0.018-0.030 0.043-0.054 0.075-0.071s0.067-0.026 0.107-0.026c0.040 0 0.076 0.009 0.108 0.026s0.056 0.041 0.074 0.071c0.018 0.030 0.027 0.065 0.027 0.103s-0.009 0.073-0.027 0.104c-0.018 0.030-0.042 0.054-0.074 0.071s-0.068 0.026-0.108 0.026zM22.156 8.129c0.034 0 0.062-0.011 0.084-0.034s0.033-0.052 0.033-0.089c0-0.037-0.011-0.066-0.033-0.089s-0.050-0.034-0.084-0.034c-0.034 0-0.062 0.011-0.084 0.034s-0.032 0.052-0.032 0.089 0.011 0.066 0.032 0.089c0.022 0.022 0.050 0.034 0.084 0.034zM22.747 7.999c0.048 0.015 0.073 0.046 0.073 0.094 0 0.035-0.013 0.062-0.040 0.081s-0.065 0.029-0.117 0.029h-0.199v-0.391h0.191c0.048 0 0.085 0.009 0.112 0.026s0.040 0.043 0.040 0.075c0 0.020-0.005 0.037-0.016 0.052s-0.025 0.026-0.044 0.034zM22.55 7.974h0.096c0.047 0 0.071-0.016 0.071-0.049s-0.024-0.048-0.071-0.048h-0.096v0.097zM22.655 8.136c0.050 0 0.075-0.016 0.075-0.049 0-0.017-0.006-0.030-0.018-0.038s-0.030-0.013-0.055-0.013h-0.108v0.1h0.105zM23.305 7.811v0.391h-0.087v-0.051c-0.015 0.019-0.034 0.033-0.056 0.042s-0.046 0.014-0.073 0.014c-0.038 0-0.072-0.008-0.103-0.025s-0.053-0.040-0.070-0.070c-0.017-0.030-0.025-0.065-0.025-0.106s0.008-0.075 0.025-0.105c0.017-0.030 0.041-0.054 0.070-0.070s0.064-0.025 0.103-0.025c0.025 0 0.049 0.004 0.070 0.013s0.040 0.022 0.056 0.039v-0.048h0.092zM23.098 8.129c0.034 0 0.062-0.011 0.084-0.034s0.033-0.052 0.033-0.089c0-0.037-0.011-0.066-0.033-0.089s-0.050-0.034-0.084-0.034c-0.034 0-0.062 0.011-0.084 0.034s-0.032 0.052-0.032 0.089 0.011 0.066 0.032 0.089c0.022 0.022 0.050 0.034 0.084 0.034z"></path>
</symbol>
</defs>
</svg>
