<svg aria-hidden="true" style="position: absolute; width: 0; height: 0; overflow: hidden;" version="1.1" xmlns="http://www.w3.org/2000/svg" xmlns:xlink="http://www.w3.org/1999/xlink">
<defs>
<symbol id="icon-Vector-68" viewBox="0 0 32 32">
<path stroke-linejoin="miter" stroke-linecap="butt" stroke-miterlimit="4" stroke-width="4" d="M0.080 16.538h27.84M27.92 16.538l-13.92 13.92M27.92 16.538l-13.92-13.92"></path>
</symbol>
<symbol id="btn-vector" viewBox="0 0 32 32">
<path fill="none" stroke="" style="stroke: var(--color1, #fff)" stroke-linejoin="miter" stroke-linecap="butt" stroke-miterlimit="4" stroke-width="2.0645" d="M5.781 25.986c5.644 5.644 14.794 5.644 20.438 0s5.644-14.794 0-20.438-14.794-5.644-20.438 0c-5.644 5.644-5.644 14.794 0 20.438z"></path>
</symbol>
<symbol id="icon-Union-1" viewBox="0 0 32 32">
<path fill="#622599" style="fill: var(--color1)" d="M12.49 19.12c0 1.008 1.092 1.639 1.965 1.134l5.362-3.096c0.873-0.504 0.873-1.765 0-2.269l-5.362-3.096c-0.873-0.504-1.965 0.126-1.965 1.134v6.192z"></path>
<path fill="#622599" style="fill: var(--color1)" d="M15.276 0.15c-2.837-0-5.073-0-6.851 0.193-1.818 0.197-3.311 0.608-4.591 1.538-0.769 0.559-1.446 1.235-2.004 2.004-0.93 1.28-1.341 2.772-1.538 4.591-0.193 1.777-0.193 4.014-0.193 6.851v1.087c-0 2.837-0 5.073 0.193 6.851 0.197 1.818 0.608 3.311 1.538 4.591 0.559 0.769 1.235 1.445 2.004 2.004 1.28 0.93 2.772 1.341 4.591 1.538 1.777 0.192 4.014 0.192 6.851 0.192h1.087c2.837 0 5.073 0 6.851-0.192 1.818-0.197 3.311-0.608 4.591-1.538 0.769-0.559 1.446-1.235 2.004-2.004 0.93-1.28 1.341-2.773 1.538-4.591 0.193-1.777 0.192-4.014 0.192-6.851v-1.087c0-2.837 0-5.073-0.192-6.851-0.197-1.818-0.608-3.311-1.538-4.591-0.559-0.769-1.235-1.446-2.004-2.004-1.28-0.93-2.773-1.341-4.591-1.538-1.777-0.193-4.014-0.193-6.851-0.193h-1.087zM5.382 4.010c0.756-0.549 1.733-0.878 3.327-1.050 1.619-0.175 3.713-0.177 6.646-0.177h0.929c2.933 0 5.027 0.002 6.646 0.177 1.594 0.173 2.571 0.501 3.327 1.050 0.546 0.396 1.025 0.876 1.422 1.422 0.549 0.756 0.878 1.733 1.050 3.327 0.175 1.619 0.177 3.713 0.177 6.646v0.929c0 2.933-0.002 5.027-0.177 6.646-0.173 1.594-0.501 2.571-1.050 3.327-0.396 0.546-0.876 1.025-1.422 1.422-0.756 0.549-1.733 0.878-3.327 1.050-1.619 0.175-3.713 0.177-6.646 0.177h-0.929c-2.933 0-5.027-0.002-6.646-0.177-1.594-0.173-2.571-0.501-3.327-1.050-0.546-0.396-1.025-0.876-1.422-1.422-0.549-0.756-0.878-1.733-1.050-3.327-0.175-1.619-0.177-3.713-0.177-6.646v-0.929c0-2.933 0.002-5.027 0.177-6.646 0.173-1.594 0.501-2.571 1.050-3.327 0.396-0.546 0.876-1.025 1.422-1.422z"></path>
</symbol>
<symbol id="instagram" viewBox="0 0 32 32">
<path fill="#622599" style="fill: var(--color1, )" d="M15.276 0.15h1.087c2.837-0 5.073-0 6.851 0.193 1.818 0.197 3.311 0.608 4.591 1.538 0.769 0.559 1.446 1.235 2.004 2.004 0.93 1.28 1.341 2.772 1.538 4.591 0.193 1.777 0.192 4.014 0.192 6.851v1.087c0 2.837 0 5.073-0.192 6.851-0.197 1.818-0.608 3.311-1.538 4.591-0.559 0.769-1.235 1.445-2.004 2.004-1.28 0.93-2.773 1.341-4.591 1.538-1.777 0.192-4.014 0.192-6.851 0.192h-1.087c-2.837 0-5.073 0-6.851-0.192-1.818-0.197-3.311-0.608-4.591-1.538-0.769-0.559-1.446-1.235-2.004-2.004-0.93-1.28-1.341-2.773-1.538-4.591-0.193-1.777-0.193-4.014-0.193-6.851v-1.087c-0-2.837-0-5.073 0.193-6.851 0.197-1.818 0.608-3.311 1.538-4.591 0.559-0.769 1.235-1.446 2.004-2.004 1.28-0.93 2.772-1.341 4.591-1.538 1.777-0.193 4.014-0.193 6.851-0.193zM8.709 2.96c-1.594 0.173-2.571 0.501-3.327 1.050-0.546 0.396-1.025 0.876-1.422 1.422-0.549 0.756-0.878 1.733-1.050 3.327-0.175 1.619-0.177 3.713-0.177 6.646v0.929c0 2.933 0.002 5.027 0.177 6.646 0.173 1.594 0.501 2.571 1.050 3.327 0.396 0.546 0.876 1.025 1.422 1.422 0.756 0.549 1.733 0.878 3.327 1.050 1.619 0.175 3.713 0.177 6.646 0.177h0.929c2.933 0 5.027-0.002 6.646-0.177 1.594-0.173 2.571-0.501 3.327-1.050 0.546-0.396 1.025-0.876 1.422-1.422 0.549-0.756 0.878-1.733 1.050-3.327 0.175-1.619 0.177-3.713 0.177-6.646v-0.929c0-2.933-0.002-5.027-0.177-6.646-0.173-1.594-0.501-2.571-1.050-3.327-0.396-0.546-0.876-1.025-1.422-1.422-0.756-0.549-1.733-0.878-3.327-1.050-1.619-0.175-3.713-0.177-6.646-0.177h-0.929c-2.933 0-5.027 0.002-6.646 0.177z"></path>
<path fill="#622599" style="fill: var(--color1, )" d="M15.82 10.526c-2.951 0-5.343 2.392-5.343 5.343s2.392 5.343 5.343 5.343c2.951 0 5.343-2.392 5.343-5.343s-2.392-5.343-5.343-5.343zM7.844 15.869c0-4.405 3.571-7.976 7.976-7.976s7.976 3.571 7.976 7.976c0 4.405-3.571 7.976-7.976 7.976s-7.976-3.571-7.976-7.976z"></path>
<path fill="#622599" style="fill: var(--color1, )" d="M22.479 7.448c0-0.994 0.806-1.8 1.8-1.8s1.8 0.806 1.8 1.8c0 0.994-0.806 1.8-1.8 1.8s-1.8-0.806-1.8-1.8z"></path>
</symbol>
<symbol id="telegram" viewBox="0 0 32 32">
<path fill="#622599" style="fill: var(--color1, )" d="M11.305 14.050c-1.398 0.537-2.835 1.088-4.149 1.725-0.686 0.442 0.226 0.754 1.081 1.047 0.136 0.047 0.27 0.093 0.397 0.139 0.105 0.028 0.212 0.058 0.321 0.089 0.951 0.267 2.012 0.564 2.936 0.117 1.517-0.766 2.949-1.652 4.38-2.538 0.469-0.29 0.937-0.58 1.409-0.866 0.022-0.012 0.047-0.027 0.074-0.042 0.402-0.229 1.305-0.744 0.971-0.034-0.79 0.76-1.637 1.432-2.487 2.108-0.573 0.456-1.149 0.913-1.711 1.4-0.489 0.35-0.998 1.053-0.45 1.542 1.262 0.777 2.544 1.535 3.825 2.292 0.417 0.247 0.834 0.493 1.25 0.74 0.705 0.495 1.807 0.095 1.962-0.679 0.069-0.356 0.138-0.712 0.207-1.067 0.382-1.966 0.765-3.933 1.103-5.906 0.046-0.309 0.098-0.619 0.15-0.928 0.126-0.75 0.253-1.501 0.292-2.256-0.102-0.753-1.14-0.587-1.718-0.418-2.97 0.993-5.909 2.061-8.838 3.146-0.332 0.129-0.668 0.258-1.006 0.388z"></path>
<path fill="#622599" style="fill: var(--color1, )" d="M15.276 0.15c-2.837-0-5.073-0-6.851 0.193-1.818 0.197-3.311 0.608-4.591 1.538-0.769 0.559-1.446 1.235-2.004 2.004-0.93 1.28-1.341 2.772-1.538 4.591-0.193 1.777-0.193 4.014-0.193 6.851v1.087c-0 2.837-0 5.073 0.193 6.851 0.197 1.818 0.608 3.311 1.538 4.591 0.559 0.769 1.235 1.445 2.004 2.004 1.28 0.93 2.772 1.341 4.591 1.538 1.777 0.192 4.014 0.192 6.851 0.192h1.087c2.837 0 5.073 0 6.851-0.192 1.818-0.197 3.311-0.608 4.591-1.538 0.769-0.559 1.446-1.235 2.004-2.004 0.93-1.28 1.341-2.773 1.538-4.591 0.193-1.777 0.192-4.014 0.192-6.851v-1.087c0-2.837 0-5.073-0.192-6.851-0.197-1.818-0.608-3.311-1.538-4.591-0.559-0.769-1.235-1.446-2.004-2.004-1.28-0.93-2.773-1.341-4.591-1.538-1.777-0.193-4.014-0.193-6.851-0.193h-1.087zM5.382 4.010c0.756-0.549 1.733-0.878 3.327-1.050 1.619-0.175 3.713-0.177 6.646-0.177h0.929c2.933 0 5.027 0.002 6.646 0.177 1.594 0.173 2.571 0.501 3.327 1.050 0.546 0.396 1.025 0.876 1.422 1.422 0.549 0.756 0.878 1.733 1.050 3.327 0.175 1.619 0.177 3.713 0.177 6.646v0.929c0 2.933-0.002 5.027-0.177 6.646-0.173 1.594-0.501 2.571-1.050 3.327-0.396 0.546-0.876 1.025-1.422 1.422-0.756 0.549-1.733 0.878-3.327 1.050-1.619 0.175-3.713 0.177-6.646 0.177h-0.929c-2.933 0-5.027-0.002-6.646-0.177-1.594-0.173-2.571-0.501-3.327-1.050-0.546-0.396-1.025-0.876-1.422-1.422-0.549-0.756-0.878-1.733-1.050-3.327-0.175-1.619-0.177-3.713-0.177-6.646v-0.929c0-2.933 0.002-5.027 0.177-6.646 0.173-1.594 0.501-2.571 1.050-3.327 0.396-0.546 0.876-1.025 1.422-1.422z"></path>
</symbol>

<symbol id="logo-footer" viewBox="0 0 82 32">
<path fill="#fff" style="fill: var(--color1, #fff)" d="M30.706 11.272c-0.96-1.267-2.401-2.048-3.964-2.134-1.894-0.104-3.623 0.486-5.090 1.718 0.428-1.249 0.576-2.325 0.463-3.288-0.471-3.974-5.596-7.080-5.814-7.21l-0.306-0.182-0.297 0.182c-0.218 0.13-5.334 3.236-5.814 7.21-0.114 0.963 0.035 2.039 0.463 3.288-1.467-1.232-3.195-1.822-5.090-1.718-1.563 0.087-3.012 0.868-3.963 2.134-0.995 1.31-1.327 2.967-0.925 4.668 0.716 3.115 3.623 3.93 5.081 3.93 0.009 0 0.017 0 0.026 0l0.952-0.009-0.445-0.842c-0.009-0.017-0.96-1.857 0.017-3.063l-0.829-0.824c-0.655 0.746-0.908 1.735-0.725 2.881 0.035 0.208 0.079 0.408 0.131 0.59-1.021-0.226-2.61-0.894-3.082-2.924-0.314-1.371-0.061-2.69 0.725-3.722 0.742-0.98 1.903-1.605 3.099-1.675 2.357-0.13 4.339 0.972 5.884 3.28 0.14 0.2 0.262 0.408 0.384 0.607l-5.535 0.208 4.103 4.078-4.112 4.052 5.648 0.226 0.131 3.566c-0.559 0.599-1.161 0.685-1.868 0.599-0.856-0.104-1.318-0.677-1.554-1.154 0.349-0.009 0.768-0.061 1.257-0.182 0.34-0.087 0.655-0.217 0.952-0.39l-0.052-1.449c-0.402 0.442-0.864 0.633-1.187 0.711-0.995 0.252-1.659 0.113-1.659 0.113l-0.847-0.2 0.131 0.85c0.14 0.885 0.899 2.62 2.811 2.855 0.192 0.026 0.375 0.035 0.559 0.035 0.332 0 0.637-0.043 0.925-0.121 0.192 0.338 1.056 1.735 2.689 2.924 1.222 0.894 1.807 1.006 1.956 1.024l0.052 0.009 0.052-0.009c0.148-0.017 0.733-0.13 1.956-1.024 1.633-1.188 2.497-2.585 2.689-2.924 0.288 0.087 0.594 0.121 0.925 0.121 0.183 0 0.367-0.009 0.559-0.035 1.912-0.234 2.671-1.97 2.811-2.855l0.122-0.833-0.829 0.182c-0.009 0-0.663 0.139-1.659-0.104-0.314-0.078-0.777-0.269-1.187-0.711l-0.052 1.449c0.288 0.174 0.611 0.304 0.952 0.39 0.489 0.121 0.917 0.174 1.257 0.182-0.244 0.486-0.698 1.050-1.554 1.154-0.838 0.104-1.397-0.069-1.886-0.607l0.14-3.557 5.631-0.208-4.068-4.078 4.077-4.052-5.544-0.217c0.122-0.2 0.244-0.408 0.384-0.607 1.545-2.308 3.527-3.41 5.884-3.28 1.205 0.069 2.366 0.694 3.099 1.675 0.777 1.032 1.039 2.351 0.724 3.722-0.471 2.030-2.060 2.707-3.082 2.924 0.052-0.182 0.096-0.382 0.131-0.59 0.183-1.137-0.061-2.117-0.707-2.863l-0.829 0.824c0.951 1.206 0.009 3.028 0 3.045l-0.445 0.842 0.952 0.009c0.009 0 0.018 0 0.026 0 1.458 0 4.356-0.816 5.081-3.93 0.428-1.718 0.096-3.375-0.89-4.685zM16.581 13.701l2.453-2.438 0.122 3.245-2.575 2.559v-3.366zM15.42 17.172l-2.575-2.559 0.131-3.349 2.436 2.438v3.47h0.009zM12.967 25.657l-0.122-3.236 2.567-2.551v3.375l-2.444 2.412zM16.581 19.965l2.575 2.559-0.131 3.141-2.444-2.429v-3.271zM11.046 7.706c0.349-2.907 3.894-5.457 4.959-6.169 1.065 0.703 4.61 3.254 4.959 6.169 0.113 0.98-0.131 2.186-0.751 3.661l-0.105-2.794-4.103 4.069-4.077-4.078-0.114 2.837c-0.637-1.492-0.89-2.707-0.768-3.696zM8.768 15.436l3.152-0.113 2.575 2.56h-3.265l-2.462-2.447zM11.212 19.046h3.379l-2.567 2.551-3.265-0.13 2.453-2.421zM17.323 29.952c-0.733 0.529-1.152 0.72-1.327 0.781-0.166-0.061-0.594-0.243-1.327-0.781-1.1-0.798-1.807-1.718-2.148-2.23l3.483-3.436 3.466 3.445c-0.349 0.512-1.056 1.423-2.148 2.221zM23.242 21.475l-3.37 0.121-2.567-2.551h3.509l2.427 2.429zM20.798 17.892h-3.396l2.584-2.568 3.265 0.13-2.453 2.438z"></path>
<path fill="#fff" style="fill: var(--color1, #fff)" d="M37.9 15.766c0.541 0.312 1.152 0.469 1.807 0.469 0.507 0 0.987-0.095 1.432-0.295 0.445-0.191 0.829-0.477 1.152-0.833s0.559-0.781 0.716-1.249l0.052-0.156h-1.309l-0.035 0.069c-0.192 0.408-0.454 0.729-0.794 0.954s-0.742 0.347-1.205 0.347c-0.428 0-0.829-0.104-1.179-0.312s-0.628-0.503-0.838-0.868c-0.201-0.364-0.306-0.772-0.306-1.215s0.105-0.85 0.306-1.215c0.201-0.364 0.48-0.659 0.838-0.868 0.349-0.208 0.742-0.312 1.179-0.312 0.463 0 0.864 0.113 1.205 0.347s0.611 0.555 0.794 0.954l0.035 0.069h1.309l-0.052-0.156c-0.148-0.469-0.393-0.894-0.716-1.249s-0.707-0.642-1.152-0.833-0.925-0.295-1.432-0.295c-0.655 0-1.266 0.156-1.807 0.469s-0.978 0.746-1.292 1.284-0.471 1.145-0.471 1.805c0 0.651 0.157 1.258 0.471 1.805 0.314 0.538 0.751 0.972 1.292 1.284z"></path>
<path fill="#fff" style="fill: var(--color1, #fff)" d="M50.489 9.215h-1.545l-3.387 3.167v-3.167h-1.205v6.924h1.205v-2.317l0.847-0.781 2.558 3.097h1.571l-3.265-3.93 3.221-2.993z"></path>
<path fill="#fff" style="fill: var(--color1, #fff)" d="M52.829 14.612h3.466l0.664 1.527h1.37l-3.125-6.924h-1.222l-3.125 6.924h1.318l0.655-1.527zM53.318 13.493l1.257-2.863 1.248 2.863h-2.505z"></path>
<path fill="#fff" style="fill: var(--color1, #fff)" d="M60.406 16.139h1.388l3.632-6.924h-1.379l-2.139 4.147-2.296-4.147h-1.484l3.090 5.414-0.812 1.51z"></path>
<path fill="#fff" style="fill: var(--color1, #fff)" d="M68.351 16.139h1.205v-5.761h2.401v-1.163h-6.006v1.163h2.401v5.761z"></path>
<path fill="#fff" style="fill: var(--color1, #fff)" d="M78.093 16.139h1.205v-6.924h-1.362l-3.632 5.11v-5.11h-1.205v6.924h1.24l3.754-5.258v5.258z"></path>
<path fill="#fff" style="fill: var(--color1, #fff)" d="M39.83 25.509l-2.296-4.147h-1.484l3.090 5.414-0.812 1.51h1.388l3.632-6.924h-1.379l-2.139 4.147z"></path>
<path fill="#fff" style="fill: var(--color1, #fff)" d="M50.148 21.362h-1.537l-3.396 3.167v-3.167h-1.205v6.924h1.205v-2.317l0.847-0.781 2.558 3.098h1.571l-3.256-3.93 3.213-2.993z"></path>
<path fill="#fff" style="fill: var(--color1, #fff)" d="M56.687 23.445c0-0.39-0.087-0.755-0.271-1.067s-0.445-0.564-0.786-0.746c-0.34-0.174-0.751-0.269-1.214-0.269h-3.064v6.924h1.205v-2.768h1.859c0.463 0 0.873-0.087 1.214-0.269s0.611-0.425 0.786-0.746c0.175-0.304 0.271-0.668 0.271-1.059zM55.43 23.445c0 0.321-0.087 0.547-0.262 0.711-0.175 0.156-0.437 0.243-0.794 0.243h-1.825v-1.883h1.825c0.349 0 0.62 0.078 0.794 0.234 0.183 0.148 0.262 0.373 0.262 0.694z"></path>
<path fill="#fff" style="fill: var(--color1, #fff)" d="M59.498 21.362l-3.125 6.924h1.318l0.663-1.527h3.466l0.663 1.527h1.371l-3.126-6.924h-1.231zM61.34 25.64h-2.497l1.257-2.863 1.24 2.863z"></path>
<path fill="#fff" style="fill: var(--color1, #fff)" d="M65.138 19.549h-1.301v1.293h1.301v-1.293z"></path>
<path fill="#fff" style="fill: var(--color1, #fff)" d="M67.155 19.549h-1.301v1.293h1.301v-1.293z"></path>
<path fill="#fff" style="fill: var(--color1, #fff)" d="M66.098 21.362h-1.205v6.924h1.205v-6.924z"></path>
<path fill="#fff" style="fill: var(--color1, #fff)" d="M72.768 24.243h-3.597v-2.881h-1.205v6.924h1.205v-2.881h3.597v2.881h1.205v-6.924h-1.205v2.881z"></path>
<path fill="#fff" style="fill: var(--color1, #fff)" d="M80.669 21.362l-3.623 5.11v-5.11h-1.205v6.924h1.24l3.754-5.258v5.258h1.205v-6.924h-1.371z"></path>
</symbol>

<symbol id="Logo-img-part" viewBox="0 0 32 32">
<path fill="" style="fill: var(--color2, )" d="M30.361 11.288c-0.956-1.269-2.39-2.051-3.945-2.138-1.886-0.104-3.606 0.487-5.066 1.721 0.426-1.252 0.573-2.329 0.46-3.294-0.469-3.981-5.57-7.092-5.787-7.222l-0.304-0.182-0.295 0.182c-0.217 0.13-5.309 3.242-5.787 7.222-0.113 0.965 0.035 2.042 0.461 3.294-1.46-1.234-3.18-1.825-5.066-1.721-1.555 0.087-2.998 0.869-3.945 2.138-0.991 1.312-1.321 2.972-0.921 4.676 0.713 3.12 3.606 3.937 5.057 3.937 0.009 0 0.017 0 0.026 0l0.947-0.009-0.443-0.843c-0.009-0.017-0.956-1.86 0.017-3.068l-0.825-0.826c-0.652 0.747-0.904 1.738-0.721 2.885 0.035 0.209 0.078 0.409 0.13 0.591-1.017-0.226-2.598-0.895-3.067-2.929-0.313-1.373-0.061-2.694 0.721-3.729 0.739-0.982 1.894-1.608 3.085-1.677 2.346-0.13 4.319 0.973 5.857 3.285 0.139 0.2 0.261 0.409 0.382 0.608l-5.509 0.209 4.084 4.085-4.093 4.059 5.622 0.226 0.13 3.572c-0.556 0.6-1.156 0.687-1.86 0.6-0.852-0.104-1.312-0.678-1.547-1.156 0.348-0.009 0.765-0.061 1.251-0.183 0.339-0.087 0.652-0.217 0.947-0.391l-0.052-1.451c-0.4 0.443-0.86 0.635-1.182 0.713-0.991 0.252-1.651 0.113-1.651 0.113l-0.843-0.2 0.13 0.852c0.139 0.886 0.895 2.625 2.798 2.859 0.191 0.026 0.374 0.035 0.556 0.035 0.33 0 0.634-0.043 0.921-0.122 0.191 0.339 1.051 1.738 2.676 2.929 1.217 0.895 1.799 1.008 1.946 1.025l0.052 0.009 0.052-0.009c0.148-0.017 0.73-0.13 1.946-1.025 1.625-1.191 2.485-2.59 2.676-2.929 0.287 0.087 0.591 0.122 0.921 0.122 0.182 0 0.365-0.009 0.556-0.035 1.903-0.235 2.659-1.973 2.798-2.859l0.122-0.834-0.826 0.183c-0.009 0-0.66 0.139-1.651-0.104-0.313-0.078-0.773-0.27-1.182-0.713l-0.052 1.451c0.287 0.174 0.608 0.304 0.947 0.391 0.487 0.122 0.912 0.174 1.251 0.183-0.243 0.487-0.695 1.052-1.547 1.156-0.834 0.104-1.39-0.069-1.877-0.608l0.139-3.563 5.605-0.209-4.049-4.085 4.058-4.059-5.518-0.217c0.122-0.2 0.243-0.408 0.382-0.608 1.538-2.312 3.511-3.416 5.857-3.285 1.199 0.070 2.355 0.695 3.085 1.677 0.773 1.034 1.034 2.355 0.721 3.729-0.469 2.034-2.051 2.712-3.067 2.929 0.052-0.183 0.096-0.382 0.13-0.591 0.183-1.139-0.061-2.121-0.704-2.868l-0.825 0.826c0.947 1.208 0.009 3.033 0 3.051l-0.443 0.843 0.947 0.009c0.009 0 0.017 0 0.026 0 1.451 0 4.336-0.817 5.057-3.937 0.426-1.721 0.096-3.381-0.886-4.693zM16.301 13.722l2.442-2.442 0.122 3.251-2.563 2.564v-3.372zM15.146 17.198l-2.563-2.564 0.13-3.355 2.424 2.442v3.476h0.009zM12.704 25.698l-0.122-3.242 2.555-2.555v3.381l-2.433 2.416zM16.301 19.997l2.563 2.564-0.13 3.146-2.433-2.433v-3.277zM10.792 7.716c0.348-2.912 3.875-5.467 4.936-6.179 1.060 0.704 4.588 3.259 4.936 6.179 0.113 0.982-0.13 2.19-0.747 3.668l-0.104-2.799-4.084 4.076-4.058-4.085-0.113 2.842c-0.634-1.495-0.886-2.712-0.765-3.702zM8.524 15.46l3.137-0.113 2.563 2.564h-3.25l-2.45-2.451zM10.957 19.076h3.363l-2.555 2.555-3.25-0.131 2.442-2.425zM17.040 30c-0.73 0.53-1.147 0.721-1.321 0.782-0.165-0.061-0.591-0.243-1.321-0.782-1.095-0.8-1.799-1.721-2.138-2.234l3.467-3.442 3.45 3.45c-0.348 0.513-1.051 1.425-2.138 2.225zM22.931 21.509l-3.354 0.122-2.555-2.555h3.493l2.416 2.433zM20.498 17.92h-3.38l2.572-2.573 3.25 0.13-2.442 2.442z"></path>
</symbol>
<symbol id="Logo-text-part" viewBox="0 0 75 32">
<path d="M3.257 11.231c0.883 0.513 1.879 0.769 2.947 0.769 0.826 0 1.609-0.157 2.335-0.484 0.726-0.313 1.352-0.783 1.879-1.367s0.911-1.281 1.167-2.050l0.085-0.256h-2.135l-0.057 0.114c-0.313 0.669-0.74 1.196-1.296 1.566s-1.21 0.57-1.965 0.57c-0.698 0-1.352-0.171-1.922-0.513s-1.025-0.826-1.367-1.424c-0.327-0.598-0.498-1.267-0.498-1.993s0.171-1.395 0.498-1.993 0.783-1.082 1.367-1.424c0.569-0.342 1.21-0.513 1.922-0.513 0.755 0 1.409 0.185 1.965 0.57s0.997 0.911 1.296 1.566l0.057 0.114h2.135l-0.085-0.256c-0.242-0.769-0.641-1.467-1.167-2.050s-1.153-1.054-1.879-1.367-1.509-0.484-2.335-0.484c-1.068 0-2.064 0.256-2.947 0.769s-1.594 1.225-2.107 2.107c-0.512 0.883-0.769 1.879-0.769 2.962 0 1.068 0.256 2.065 0.769 2.962 0.512 0.883 1.224 1.595 2.107 2.107z"></path>
<path d="M23.785 0.481h-2.52l-5.524 5.197v-5.197h-1.965v11.362h1.965v-3.802l1.381-1.281 4.171 5.083h2.562l-5.324-6.45 5.253-4.912z"></path>
<path d="M27.601 9.337h5.652l1.082 2.506h2.235l-5.096-11.362h-1.993l-5.096 11.362h2.15l1.068-2.506zM28.398 7.5l2.050-4.699 2.036 4.699h-4.086z"></path>
<path d="M39.957 11.843h2.264l5.922-11.362h-2.25l-3.488 6.806-3.744-6.806h-2.42l5.039 8.885-1.324 2.478z"></path>
<path d="M52.912 11.843h1.964v-9.454h3.915v-1.908h-9.794v1.908h3.915v9.454z"></path>
<path d="M68.799 11.843h1.964v-11.362h-2.221l-5.922 8.387v-8.387h-1.965v11.362h2.021l6.122-8.629v8.629z"></path>
<path d="M6.403 27.221l-3.744-6.806h-2.42l5.039 8.885-1.324 2.477h2.264l5.922-11.362h-2.249l-3.488 6.806z"></path>
<path d="M23.23 20.415h-2.506l-5.538 5.197v-5.197h-1.965v11.362h1.965v-3.802l1.381-1.281 4.171 5.083h2.562l-5.31-6.45 5.239-4.912z"></path>
<path d="M33.893 23.832c0-0.641-0.142-1.239-0.441-1.751s-0.726-0.925-1.281-1.224c-0.555-0.285-1.224-0.441-1.979-0.441h-4.997v11.362h1.965v-4.542h3.032c0.755 0 1.424-0.142 1.979-0.441s0.996-0.698 1.281-1.225c0.285-0.498 0.441-1.096 0.441-1.737zM31.843 23.832c0 0.527-0.142 0.897-0.427 1.168-0.285 0.256-0.712 0.399-1.295 0.399h-2.975v-3.090h2.975c0.569 0 1.011 0.128 1.295 0.384 0.299 0.242 0.427 0.612 0.427 1.139z"></path>
<path d="M38.477 20.415l-5.096 11.362h2.15l1.082-2.506h5.652l1.082 2.506h2.235l-5.096-11.362h-2.008zM41.48 27.434h-4.072l2.050-4.699 2.021 4.699z"></path>
<path d="M47.673 17.439h-2.121v2.122h2.121v-2.122z"></path>
<path d="M50.962 17.439h-2.121v2.122h2.121v-2.122z"></path>
<path d="M49.239 20.415h-1.965v11.362h1.965v-11.362z"></path>
<path d="M60.115 25.142h-5.865v-4.727h-1.965v11.362h1.965v-4.727h5.865v4.727h1.965v-11.362h-1.965v4.727z"></path>
<path d="M72.999 20.415l-5.908 8.387v-8.387h-1.964v11.362h2.021l6.121-8.629v8.629h1.965v-11.362h-2.235z"></path>
</symbol>

</defs>
</svg>
