<svg aria-hidden="true" style="position: absolute; width: 0; height: 0; overflow: hidden;" version="1.1" xmlns="http://www.w3.org/2000/svg" xmlns:xlink="http://www.w3.org/1999/xlink">
<defs>
<symbol id="icon-Group-1000002419" viewBox="0 0 35 32">
<path fill="#5b5b6c" style="fill: var(--color1, #5b5b6c)" opacity="0.3" d="M17.661 16.146l11.806 10.189-11.806 4.778v-14.967z"></path>
<path fill="#5b5b6c" style="fill: var(--color1, #5b5b6c)" opacity="0.3" d="M17.871 15.817l11.806-10.188-11.806-4.778v14.967z"></path>
<path fill="#5b5b6c" style="fill: var(--color1, #5b5b6c)" opacity="0.3" d="M17.661 15.714l-11.806-10.188 11.806-4.778v14.967z"></path>
<path fill="#5b5b6c" style="fill: var(--color1, #5b5b6c)" opacity="0.3" d="M17.036 15.781l-10.636 11.189-5.924-10.382 16.56-0.807z"></path>
<path fill="#5b5b6c" style="fill: var(--color1, #5b5b6c)" opacity="0.3" d="M17.296 16.396l0.040 14.742-11.998-4.372 11.958-10.37z"></path>
<path fill="#5b5b6c" style="fill: var(--color1, #5b5b6c)" opacity="0.3" d="M17.954 15.777l16.332 0.265-5.038 10.738-11.294-11.003z"></path>
<path fill="#5b5b6c" style="fill: var(--color1, #5b5b6c)" opacity="0.3" d="M17.963 15.801l16.323 0.574-4.403-10.98-11.92 10.406z"></path>
<path fill="#5b5b6c" style="fill: var(--color1, #5b5b6c)" opacity="0.3" d="M17.597 15.496l-16.323 0.574 4.403-10.98 11.92 10.406z"></path>
</symbol>
</defs>
</svg>
